<svg width="822" height="240" viewBox="0 0 822 240" fill="none" xmlns="http://www.w3.org/2000/svg">
<path d="M7.8 58.5L14.07 41.46L14.16 46.5L0 11.7H5.61L16.71 39.69H14.79L25.2 11.7H30.63L12.99 58.5H7.8Z" fill="#FDFDFD"/>
<path d="M46.4133 45C43.1933 45 40.4133 44.27 38.0733 42.81C35.7533 41.35 33.9633 39.33 32.7033 36.75C31.4433 34.17 30.8133 31.21 30.8133 27.87C30.8133 24.47 31.4533 21.49 32.7333 18.93C34.0133 16.37 35.8233 14.38 38.1633 12.96C40.5033 11.52 43.2533 10.8 46.4133 10.8C49.6533 10.8 52.4433 11.53 54.7833 12.99C57.1233 14.43 58.9133 16.44 60.1533 19.02C61.4133 21.58 62.0433 24.53 62.0433 27.87C62.0433 31.25 61.4133 34.23 60.1533 36.81C58.8933 39.37 57.0933 41.38 54.7533 42.84C52.4133 44.28 49.6333 45 46.4133 45ZM46.4133 39.93C49.7733 39.93 52.2733 38.81 53.9133 36.57C55.5533 34.33 56.3733 31.43 56.3733 27.87C56.3733 24.21 55.5433 21.3 53.8833 19.14C52.2233 16.96 49.7333 15.87 46.4133 15.87C44.1533 15.87 42.2933 16.38 40.8333 17.4C39.3733 18.42 38.2833 19.83 37.5633 21.63C36.8433 23.43 36.4833 25.51 36.4833 27.87C36.4833 31.51 37.3233 34.43 39.0033 36.63C40.6833 38.83 43.1533 39.93 46.4133 39.93Z" fill="#FDFDFD"/>
<path d="M79.1484 44.94C77.0684 44.94 75.2784 44.61 73.7784 43.95C72.2984 43.29 71.0684 42.41 70.0884 41.31C69.1084 40.21 68.3384 38.99 67.7784 37.65C67.2184 36.31 66.8184 34.94 66.5784 33.54C66.3584 32.14 66.2484 30.83 66.2484 29.61V11.7H71.6484V27.93C71.6484 29.45 71.7884 30.92 72.0684 32.34C72.3484 33.76 72.8184 35.04 73.4784 36.18C74.1584 37.32 75.0584 38.22 76.1784 38.88C77.3184 39.54 78.7384 39.87 80.4384 39.87C81.7784 39.87 82.9984 39.64 84.0984 39.18C85.1984 38.72 86.1384 38.04 86.9184 37.14C87.6984 36.22 88.2984 35.06 88.7184 33.66C89.1384 32.26 89.3484 30.63 89.3484 28.77L92.8584 29.85C92.8584 32.97 92.2884 35.66 91.1484 37.92C90.0284 40.18 88.4384 41.92 86.3784 43.14C84.3384 44.34 81.9284 44.94 79.1484 44.94ZM89.9484 44.1V35.43H89.3484V11.7H94.7184V44.1H89.9484Z" fill="#FDFDFD"/>
<path d="M118.43 44.1L108.53 11.67L113.84 11.7L121.07 35.4L128.36 11.7H133.07L140.33 35.4L147.59 11.7H152.87L142.97 44.1H138.53L130.7 19.47L122.87 44.1H118.43Z" fill="#FDFDFD"/>
<path d="M157.087 5.97V0.45H162.428V5.97H157.087ZM157.087 44.1V11.7H162.428V44.1H157.087Z" fill="#FDFDFD"/>
<path d="M170.229 44.1V0H175.569V44.1H170.229Z" fill="#FDFDFD"/>
<path d="M183.37 44.1V0H188.71V44.1H183.37Z" fill="#FDFDFD"/>
<path d="M229.193 44.1V27.87C229.193 26.33 229.053 24.85 228.773 23.43C228.513 22.01 228.043 20.74 227.363 19.62C226.703 18.48 225.803 17.58 224.663 16.92C223.543 16.26 222.123 15.93 220.403 15.93C219.063 15.93 217.843 16.16 216.743 16.62C215.663 17.06 214.733 17.74 213.953 18.66C213.173 19.58 212.563 20.74 212.123 22.14C211.703 23.52 211.493 25.15 211.493 27.03L207.983 25.95C207.983 22.81 208.543 20.12 209.663 17.88C210.803 15.62 212.393 13.89 214.433 12.69C216.493 11.47 218.913 10.86 221.693 10.86C223.793 10.86 225.583 11.19 227.063 11.85C228.543 12.51 229.773 13.39 230.753 14.49C231.733 15.57 232.503 16.79 233.063 18.15C233.623 19.49 234.013 20.86 234.233 22.26C234.473 23.64 234.593 24.95 234.593 26.19V44.1H229.193ZM206.093 44.1V11.7H210.893V20.37H211.493V44.1H206.093Z" fill="#FDFDFD"/>
<path d="M254.1 45C250.88 45 248.1 44.27 245.76 42.81C243.44 41.35 241.65 39.33 240.39 36.75C239.13 34.17 238.5 31.21 238.5 27.87C238.5 24.47 239.14 21.49 240.42 18.93C241.7 16.37 243.51 14.38 245.85 12.96C248.19 11.52 250.94 10.8 254.1 10.8C257.34 10.8 260.13 11.53 262.47 12.99C264.81 14.43 266.6 16.44 267.84 19.02C269.1 21.58 269.73 24.53 269.73 27.87C269.73 31.25 269.1 34.23 267.84 36.81C266.58 39.37 264.78 41.38 262.44 42.84C260.1 44.28 257.32 45 254.1 45ZM254.1 39.93C257.46 39.93 259.96 38.81 261.6 36.57C263.24 34.33 264.06 31.43 264.06 27.87C264.06 24.21 263.23 21.3 261.57 19.14C259.91 16.96 257.42 15.87 254.1 15.87C251.84 15.87 249.98 16.38 248.52 17.4C247.06 18.42 245.97 19.83 245.25 21.63C244.53 23.43 244.17 25.51 244.17 27.87C244.17 31.51 245.01 34.43 246.69 36.63C248.37 38.83 250.84 39.93 254.1 39.93Z" fill="#FDFDFD"/>
<path d="M292.625 44.1C290.705 44.48 288.805 44.63 286.925 44.55C285.065 44.49 283.405 44.12 281.945 43.44C280.485 42.74 279.375 41.66 278.615 40.2C277.975 38.92 277.625 37.63 277.565 36.33C277.525 35.01 277.505 33.52 277.505 31.86V2.7H282.845V31.62C282.845 32.94 282.855 34.07 282.875 35.01C282.915 35.95 283.125 36.76 283.505 37.44C284.225 38.72 285.365 39.47 286.925 39.69C288.505 39.91 290.405 39.85 292.625 39.51V44.1ZM270.935 16.11V11.7H292.625V16.11H270.935Z" fill="#FDFDFD"/>
<path d="M322.495 45C319.455 45 316.895 44.25 314.815 42.75C312.735 41.23 311.155 39.18 310.075 36.6C309.015 34 308.485 31.09 308.485 27.87C308.485 24.61 309.015 21.69 310.075 19.11C311.155 16.53 312.735 14.5 314.815 13.02C316.915 11.54 319.485 10.8 322.525 10.8C325.525 10.8 328.105 11.55 330.265 13.05C332.445 14.53 334.115 16.56 335.275 19.14C336.435 21.72 337.015 24.63 337.015 27.87C337.015 31.11 336.435 34.02 335.275 36.6C334.115 39.18 332.445 41.23 330.265 42.75C328.105 44.25 325.515 45 322.495 45ZM307.585 44.1V0.899999H312.955V20.25H312.355V44.1H307.585ZM321.835 40.11C323.975 40.11 325.745 39.57 327.145 38.49C328.545 37.41 329.595 35.95 330.295 34.11C330.995 32.25 331.345 30.17 331.345 27.87C331.345 25.59 330.995 23.53 330.295 21.69C329.615 19.85 328.555 18.39 327.115 17.31C325.695 16.23 323.885 15.69 321.685 15.69C319.585 15.69 317.845 16.21 316.465 17.25C315.085 18.27 314.055 19.7 313.375 21.54C312.695 23.36 312.355 25.47 312.355 27.87C312.355 30.23 312.685 32.34 313.345 34.2C314.025 36.04 315.065 37.49 316.465 38.55C317.865 39.59 319.655 40.11 321.835 40.11Z" fill="#FDFDFD"/>
<path d="M355.831 45C352.651 45 349.871 44.3 347.491 42.9C345.131 41.48 343.291 39.51 341.971 36.99C340.651 34.45 339.991 31.49 339.991 28.11C339.991 24.57 340.641 21.51 341.941 18.93C343.241 16.33 345.051 14.33 347.371 12.93C349.711 11.51 352.451 10.8 355.591 10.8C358.851 10.8 361.621 11.55 363.901 13.05C366.201 14.55 367.921 16.69 369.061 19.47C370.221 22.25 370.721 25.56 370.561 29.4H365.161V27.48C365.101 23.5 364.291 20.53 362.731 18.57C361.171 16.59 358.851 15.6 355.771 15.6C352.471 15.6 349.961 16.66 348.241 18.78C346.521 20.9 345.661 23.94 345.661 27.9C345.661 31.72 346.521 34.68 348.241 36.78C349.961 38.88 352.411 39.93 355.591 39.93C357.731 39.93 359.591 39.44 361.171 38.46C362.751 37.48 363.991 36.07 364.891 34.23L370.021 36C368.761 38.86 366.861 41.08 364.321 42.66C361.801 44.22 358.971 45 355.831 45ZM343.861 29.4V25.11H367.801V29.4H343.861Z" fill="#FDFDFD"/>
<path d="M386.252 44.1V0H391.592V44.1H386.252Z" fill="#FDFDFD"/>
<path d="M412.834 45C409.654 45 406.874 44.3 404.494 42.9C402.134 41.48 400.294 39.51 398.974 36.99C397.654 34.45 396.994 31.49 396.994 28.11C396.994 24.57 397.644 21.51 398.944 18.93C400.244 16.33 402.054 14.33 404.374 12.93C406.714 11.51 409.454 10.8 412.594 10.8C415.854 10.8 418.624 11.55 420.904 13.05C423.204 14.55 424.924 16.69 426.064 19.47C427.224 22.25 427.724 25.56 427.564 29.4H422.164V27.48C422.104 23.5 421.294 20.53 419.734 18.57C418.174 16.59 415.854 15.6 412.774 15.6C409.474 15.6 406.964 16.66 405.244 18.78C403.524 20.9 402.664 23.94 402.664 27.9C402.664 31.72 403.524 34.68 405.244 36.78C406.964 38.88 409.414 39.93 412.594 39.93C414.734 39.93 416.594 39.44 418.174 38.46C419.754 37.48 420.994 36.07 421.894 34.23L427.024 36C425.764 38.86 423.864 41.08 421.324 42.66C418.804 44.22 415.974 45 412.834 45ZM400.864 29.4V25.11H424.804V29.4H400.864Z" fill="#FDFDFD"/>
<path d="M435.533 44.1V9.93C435.533 9.09 435.573 8.24 435.653 7.38C435.733 6.5 435.913 5.65 436.193 4.83C436.473 3.99 436.933 3.22 437.573 2.52C438.313 1.7 439.123 1.12 440.003 0.779997C440.883 0.419999 441.773 0.2 442.673 0.119998C443.593 0.0399995 444.463 0 445.283 0H449.393V4.44H445.583C444.003 4.44 442.823 4.83 442.043 5.61C441.263 6.37 440.873 7.53 440.873 9.09V44.1H435.533ZM430.043 16.11V11.7H449.393V16.11H430.043Z" fill="#FDFDFD"/>
<path d="M470.471 44.1C468.551 44.48 466.651 44.63 464.771 44.55C462.911 44.49 461.251 44.12 459.791 43.44C458.331 42.74 457.221 41.66 456.461 40.2C455.821 38.92 455.471 37.63 455.411 36.33C455.371 35.01 455.351 33.52 455.351 31.86V2.7H460.691V31.62C460.691 32.94 460.701 34.07 460.721 35.01C460.761 35.95 460.971 36.76 461.351 37.44C462.071 38.72 463.211 39.47 464.771 39.69C466.351 39.91 468.251 39.85 470.471 39.51V44.1ZM448.781 16.11V11.7H470.471V16.11H448.781Z" fill="#FDFDFD"/>
<path d="M492.361 44.1L482.461 11.67L487.771 11.7L495.001 35.4L502.291 11.7H507.001L514.261 35.4L521.521 11.7H526.801L516.901 44.1H512.461L504.631 19.47L496.801 44.1H492.361Z" fill="#FDFDFD"/>
<path d="M531.019 5.97V0.45H536.359V5.97H531.019ZM531.019 44.1V11.7H536.359V44.1H531.019Z" fill="#FDFDFD"/>
<path d="M561.65 44.1C559.73 44.48 557.83 44.63 555.95 44.55C554.09 44.49 552.43 44.12 550.97 43.44C549.51 42.74 548.4 41.66 547.64 40.2C547 38.92 546.65 37.63 546.59 36.33C546.55 35.01 546.53 33.52 546.53 31.86V2.7H551.87V31.62C551.87 32.94 551.88 34.07 551.9 35.01C551.94 35.95 552.15 36.76 552.53 37.44C553.25 38.72 554.39 39.47 555.95 39.69C557.53 39.91 559.43 39.85 561.65 39.51V44.1ZM539.96 16.11V11.7H561.65V16.11H539.96Z" fill="#FDFDFD"/>
<path d="M589.498 44.1V27.87C589.498 26.33 589.358 24.85 589.078 23.43C588.818 22.01 588.348 20.74 587.668 19.62C587.008 18.48 586.108 17.58 584.968 16.92C583.848 16.26 582.428 15.93 580.708 15.93C579.368 15.93 578.148 16.16 577.048 16.62C575.968 17.06 575.038 17.74 574.258 18.66C573.478 19.58 572.868 20.74 572.428 22.14C572.008 23.52 571.798 25.15 571.798 27.03L568.288 25.95C568.288 22.81 568.848 20.12 569.968 17.88C571.108 15.62 572.698 13.89 574.738 12.69C576.798 11.47 579.218 10.86 581.998 10.86C584.098 10.86 585.888 11.19 587.368 11.85C588.848 12.51 590.078 13.39 591.058 14.49C592.038 15.57 592.808 16.79 593.368 18.15C593.928 19.49 594.318 20.86 594.538 22.26C594.778 23.64 594.898 24.95 594.898 26.19V44.1H589.498ZM566.398 44.1V0.899999H571.198V24.75H571.798V44.1H566.398Z" fill="#FDFDFD"/>
<path d="M614.698 45C611.478 45 608.698 44.27 606.358 42.81C604.038 41.35 602.248 39.33 600.988 36.75C599.728 34.17 599.098 31.21 599.098 27.87C599.098 24.47 599.738 21.49 601.018 18.93C602.298 16.37 604.108 14.38 606.448 12.96C608.788 11.52 611.538 10.8 614.698 10.8C617.938 10.8 620.728 11.53 623.068 12.99C625.408 14.43 627.198 16.44 628.438 19.02C629.698 21.58 630.328 24.53 630.328 27.87C630.328 31.25 629.698 34.23 628.438 36.81C627.178 39.37 625.378 41.38 623.038 42.84C620.698 44.28 617.918 45 614.698 45ZM614.698 39.93C618.058 39.93 620.558 38.81 622.198 36.57C623.838 34.33 624.658 31.43 624.658 27.87C624.658 24.21 623.828 21.3 622.168 19.14C620.508 16.96 618.018 15.87 614.698 15.87C612.438 15.87 610.578 16.38 609.118 17.4C607.658 18.42 606.568 19.83 605.848 21.63C605.128 23.43 604.768 25.51 604.768 27.87C604.768 31.51 605.608 34.43 607.288 36.63C608.968 38.83 611.438 39.93 614.698 39.93Z" fill="#FDFDFD"/>
<path d="M647.433 44.94C645.353 44.94 643.563 44.61 642.063 43.95C640.583 43.29 639.353 42.41 638.373 41.31C637.393 40.21 636.623 38.99 636.063 37.65C635.503 36.31 635.103 34.94 634.863 33.54C634.643 32.14 634.533 30.83 634.533 29.61V11.7H639.933V27.93C639.933 29.45 640.073 30.92 640.353 32.34C640.633 33.76 641.103 35.04 641.763 36.18C642.443 37.32 643.343 38.22 644.463 38.88C645.603 39.54 647.023 39.87 648.723 39.87C650.063 39.87 651.283 39.64 652.383 39.18C653.483 38.72 654.423 38.04 655.203 37.14C655.983 36.22 656.583 35.06 657.003 33.66C657.423 32.26 657.633 30.63 657.633 28.77L661.143 29.85C661.143 32.97 660.573 35.66 659.433 37.92C658.313 40.18 656.723 41.92 654.663 43.14C652.623 44.34 650.213 44.94 647.433 44.94ZM658.233 44.1V35.43H657.633V11.7H663.003V44.1H658.233Z" fill="#FDFDFD"/>
<path d="M687.692 44.1C685.772 44.48 683.872 44.63 681.992 44.55C680.132 44.49 678.472 44.12 677.012 43.44C675.552 42.74 674.442 41.66 673.682 40.2C673.042 38.92 672.692 37.63 672.632 36.33C672.592 35.01 672.572 33.52 672.572 31.86V2.7H677.912V31.62C677.912 32.94 677.922 34.07 677.942 35.01C677.982 35.95 678.192 36.76 678.572 37.44C679.292 38.72 680.432 39.47 681.992 39.69C683.572 39.91 685.472 39.85 687.692 39.51V44.1ZM666.002 16.11V11.7H687.692V16.11H666.002Z" fill="#FDFDFD"/>
<path d="M725.752 44.1V27.87C725.752 26.33 725.612 24.85 725.332 23.43C725.072 22.01 724.602 20.74 723.922 19.62C723.262 18.48 722.362 17.58 721.222 16.92C720.102 16.26 718.682 15.93 716.962 15.93C715.622 15.93 714.402 16.16 713.302 16.62C712.222 17.06 711.292 17.74 710.512 18.66C709.732 19.58 709.122 20.74 708.682 22.14C708.262 23.52 708.052 25.15 708.052 27.03L704.542 25.95C704.542 22.81 705.102 20.12 706.222 17.88C707.362 15.62 708.952 13.89 710.992 12.69C713.052 11.47 715.472 10.86 718.252 10.86C720.352 10.86 722.142 11.19 723.622 11.85C725.102 12.51 726.332 13.39 727.312 14.49C728.292 15.57 729.062 16.79 729.622 18.15C730.182 19.49 730.572 20.86 730.792 22.26C731.032 23.64 731.152 24.95 731.152 26.19V44.1H725.752ZM702.652 44.1V0.899999H707.452V24.75H708.052V44.1H702.652Z" fill="#FDFDFD"/>
<path d="M751.192 45C748.012 45 745.232 44.3 742.852 42.9C740.492 41.48 738.652 39.51 737.332 36.99C736.012 34.45 735.352 31.49 735.352 28.11C735.352 24.57 736.002 21.51 737.302 18.93C738.602 16.33 740.412 14.33 742.732 12.93C745.072 11.51 747.812 10.8 750.952 10.8C754.212 10.8 756.982 11.55 759.262 13.05C761.562 14.55 763.282 16.69 764.422 19.47C765.582 22.25 766.082 25.56 765.922 29.4H760.522V27.48C760.462 23.5 759.652 20.53 758.092 18.57C756.532 16.59 754.212 15.6 751.132 15.6C747.832 15.6 745.322 16.66 743.602 18.78C741.882 20.9 741.022 23.94 741.022 27.9C741.022 31.72 741.882 34.68 743.602 36.78C745.322 38.88 747.772 39.93 750.952 39.93C753.092 39.93 754.952 39.44 756.532 38.46C758.112 37.48 759.352 36.07 760.252 34.23L765.382 36C764.122 38.86 762.222 41.08 759.682 42.66C757.162 44.22 754.332 45 751.192 45ZM739.222 29.4V25.11H763.162V29.4H739.222Z" fill="#FDFDFD"/>
<path d="M771.401 44.1V0H776.741V44.1H771.401Z" fill="#FDFDFD"/>
<path d="M798.822 45C795.782 45 793.222 44.25 791.142 42.75C789.062 41.23 787.482 39.18 786.402 36.6C785.342 34 784.812 31.09 784.812 27.87C784.812 24.61 785.342 21.69 786.402 19.11C787.482 16.53 789.062 14.5 791.142 13.02C793.242 11.54 795.812 10.8 798.852 10.8C801.852 10.8 804.432 11.55 806.592 13.05C808.772 14.53 810.442 16.56 811.602 19.14C812.762 21.72 813.342 24.63 813.342 27.87C813.342 31.11 812.762 34.02 811.602 36.6C810.442 39.18 808.772 41.23 806.592 42.75C804.432 44.25 801.842 45 798.822 45ZM783.912 58.5V11.7H788.682V35.55H789.282V58.5H783.912ZM798.162 40.11C800.302 40.11 802.072 39.57 803.472 38.49C804.872 37.41 805.922 35.95 806.622 34.11C807.322 32.25 807.672 30.17 807.672 27.87C807.672 25.59 807.322 23.53 806.622 21.69C805.942 19.85 804.882 18.39 803.442 17.31C802.022 16.23 800.212 15.69 798.012 15.69C795.912 15.69 794.172 16.21 792.792 17.25C791.412 18.27 790.382 19.7 789.702 21.54C789.022 23.36 788.682 25.47 788.682 27.87C788.682 30.23 789.012 32.34 789.672 34.2C790.352 36.04 791.392 37.49 792.792 38.55C794.192 39.59 795.982 40.11 798.162 40.11Z" fill="#FDFDFD"/>
<path d="M133.684 105C131.264 105 129.234 104.56 127.594 103.68C125.974 102.78 124.744 101.6 123.904 100.14C123.084 98.68 122.674 97.08 122.674 95.34C122.674 93.64 122.994 92.17 123.634 90.93C124.294 89.67 125.214 88.63 126.394 87.81C127.574 86.97 128.984 86.31 130.624 85.83C132.164 85.41 133.884 85.05 135.784 84.75C137.704 84.43 139.644 84.14 141.604 83.88C143.564 83.62 145.394 83.37 147.094 83.13L145.174 84.24C145.234 81.36 144.654 79.23 143.434 77.85C142.234 76.47 140.154 75.78 137.194 75.78C135.234 75.78 133.514 76.23 132.034 77.13C130.574 78.01 129.544 79.45 128.944 81.45L123.874 79.92C124.654 77.08 126.164 74.85 128.404 73.23C130.644 71.61 133.594 70.8 137.254 70.8C140.194 70.8 142.714 71.33 144.814 72.39C146.934 73.43 148.454 75.01 149.374 77.13C149.834 78.13 150.124 79.22 150.244 80.4C150.364 81.56 150.424 82.78 150.424 84.06V104.1H145.684V96.33L146.794 97.05C145.574 99.67 143.864 101.65 141.664 102.99C139.484 104.33 136.824 105 133.684 105ZM134.494 100.53C136.414 100.53 138.074 100.19 139.474 99.51C140.894 98.81 142.034 97.9 142.894 96.78C143.754 95.64 144.314 94.4 144.574 93.06C144.874 92.06 145.034 90.95 145.054 89.73C145.094 88.49 145.114 87.54 145.114 86.88L146.974 87.69C145.234 87.93 143.524 88.16 141.844 88.38C140.164 88.6 138.574 88.84 137.074 89.1C135.574 89.34 134.224 89.63 133.024 89.97C132.144 90.25 131.314 90.61 130.534 91.05C129.774 91.49 129.154 92.06 128.674 92.76C128.214 93.44 127.984 94.29 127.984 95.31C127.984 96.19 128.204 97.03 128.644 97.83C129.104 98.63 129.804 99.28 130.744 99.78C131.704 100.28 132.954 100.53 134.494 100.53Z" fill="#FDFDFD"/>
<path d="M174.514 104.1C172.594 104.48 170.694 104.63 168.814 104.55C166.954 104.49 165.294 104.12 163.834 103.44C162.374 102.74 161.264 101.66 160.504 100.2C159.864 98.92 159.514 97.63 159.454 96.33C159.414 95.01 159.394 93.52 159.394 91.86V62.7H164.734V91.62C164.734 92.94 164.744 94.07 164.764 95.01C164.804 95.95 165.014 96.76 165.394 97.44C166.114 98.72 167.254 99.47 168.814 99.69C170.394 99.91 172.294 99.85 174.514 99.51V104.1ZM152.824 76.11V71.7H174.514V76.11H152.824Z" fill="#FDFDFD"/>
<path d="M198.714 105C196.294 105 194.264 104.56 192.624 103.68C191.004 102.78 189.774 101.6 188.934 100.14C188.114 98.68 187.704 97.08 187.704 95.34C187.704 93.64 188.024 92.17 188.664 90.93C189.324 89.67 190.244 88.63 191.424 87.81C192.604 86.97 194.014 86.31 195.654 85.83C197.194 85.41 198.914 85.05 200.814 84.75C202.734 84.43 204.674 84.14 206.634 83.88C208.594 83.62 210.424 83.37 212.124 83.13L210.204 84.24C210.264 81.36 209.684 79.23 208.464 77.85C207.264 76.47 205.184 75.78 202.224 75.78C200.264 75.78 198.544 76.23 197.064 77.13C195.604 78.01 194.574 79.45 193.974 81.45L188.904 79.92C189.684 77.08 191.194 74.85 193.434 73.23C195.674 71.61 198.624 70.8 202.284 70.8C205.224 70.8 207.744 71.33 209.844 72.39C211.964 73.43 213.484 75.01 214.404 77.13C214.864 78.13 215.154 79.22 215.274 80.4C215.394 81.56 215.454 82.78 215.454 84.06V104.1H210.714V96.33L211.824 97.05C210.604 99.67 208.894 101.65 206.694 102.99C204.514 104.33 201.854 105 198.714 105ZM199.524 100.53C201.444 100.53 203.104 100.19 204.504 99.51C205.924 98.81 207.064 97.9 207.924 96.78C208.784 95.64 209.344 94.4 209.604 93.06C209.904 92.06 210.064 90.95 210.084 89.73C210.124 88.49 210.144 87.54 210.144 86.88L212.004 87.69C210.264 87.93 208.554 88.16 206.874 88.38C205.194 88.6 203.604 88.84 202.104 89.1C200.604 89.34 199.254 89.63 198.054 89.97C197.174 90.25 196.344 90.61 195.564 91.05C194.804 91.49 194.184 92.06 193.704 92.76C193.244 93.44 193.014 94.29 193.014 95.31C193.014 96.19 193.234 97.03 193.674 97.83C194.134 98.63 194.834 99.28 195.774 99.78C196.734 100.28 197.984 100.53 199.524 100.53Z" fill="#FDFDFD"/>
<path d="M244.524 104.1V87.87C244.524 86.33 244.384 84.85 244.104 83.43C243.844 82.01 243.374 80.74 242.694 79.62C242.034 78.48 241.134 77.58 239.994 76.92C238.874 76.26 237.454 75.93 235.734 75.93C234.394 75.93 233.174 76.16 232.074 76.62C230.994 77.06 230.064 77.74 229.284 78.66C228.504 79.58 227.894 80.74 227.454 82.14C227.034 83.52 226.824 85.15 226.824 87.03L223.314 85.95C223.314 82.81 223.874 80.12 224.994 77.88C226.134 75.62 227.724 73.89 229.764 72.69C231.824 71.47 234.244 70.86 237.024 70.86C239.124 70.86 240.914 71.19 242.394 71.85C243.874 72.51 245.104 73.39 246.084 74.49C247.064 75.57 247.834 76.79 248.394 78.15C248.954 79.49 249.344 80.86 249.564 82.26C249.804 83.64 249.924 84.95 249.924 86.19V104.1H244.524ZM221.424 104.1V71.7H226.224V80.37H226.824V104.1H221.424Z" fill="#FDFDFD"/>
<path d="M259.252 118.5L265.522 101.46L265.612 106.5L251.452 71.7H257.062L268.162 99.69H266.242L276.652 71.7H282.082L264.442 118.5H259.252Z" fill="#FDFDFD"/>
<path d="M313.538 104.1C311.618 104.48 309.718 104.63 307.838 104.55C305.978 104.49 304.318 104.12 302.858 103.44C301.398 102.74 300.288 101.66 299.528 100.2C298.888 98.92 298.538 97.63 298.478 96.33C298.438 95.01 298.418 93.52 298.418 91.86V62.7H303.758V91.62C303.758 92.94 303.768 94.07 303.788 95.01C303.828 95.95 304.038 96.76 304.418 97.44C305.138 98.72 306.278 99.47 307.838 99.69C309.418 99.91 311.318 99.85 313.538 99.51V104.1ZM291.848 76.11V71.7H313.538V76.11H291.848Z" fill="#FDFDFD"/>
<path d="M318.916 65.97V60.45H324.256V65.97H318.916ZM318.916 104.1V71.7H324.256V104.1H318.916Z" fill="#FDFDFD"/>
<path d="M370.188 104.1L370.218 83.37C370.218 80.95 369.568 79.06 368.268 77.7C366.988 76.32 365.318 75.63 363.258 75.63C362.058 75.63 360.918 75.91 359.838 76.47C358.758 77.01 357.878 77.87 357.198 79.05C356.518 80.21 356.178 81.7 356.178 83.52L353.358 82.38C353.318 80.08 353.788 78.07 354.768 76.35C355.768 74.61 357.128 73.26 358.848 72.3C360.568 71.34 362.508 70.86 364.668 70.86C368.048 70.86 370.708 71.89 372.648 73.95C374.588 75.99 375.558 78.74 375.558 82.2L375.528 104.1H370.188ZM331.428 104.1V71.7H336.198V80.37H336.798V104.1H331.428ZM350.838 104.1L350.868 83.58C350.868 81.1 350.228 79.16 348.948 77.76C347.668 76.34 345.968 75.63 343.848 75.63C341.748 75.63 340.048 76.35 338.748 77.79C337.448 79.23 336.798 81.14 336.798 83.52L333.978 81.84C333.978 79.74 334.478 77.86 335.478 76.2C336.478 74.54 337.838 73.24 339.558 72.3C341.278 71.34 343.228 70.86 345.408 70.86C347.588 70.86 349.488 71.32 351.108 72.24C352.728 73.16 353.978 74.48 354.858 76.2C355.738 77.9 356.178 79.93 356.178 82.29L356.148 104.1H350.838Z" fill="#FDFDFD"/>
<path d="M395.319 105C392.139 105 389.359 104.3 386.979 102.9C384.619 101.48 382.779 99.51 381.459 96.99C380.139 94.45 379.479 91.49 379.479 88.11C379.479 84.57 380.129 81.51 381.429 78.93C382.729 76.33 384.539 74.33 386.859 72.93C389.199 71.51 391.939 70.8 395.079 70.8C398.339 70.8 401.109 71.55 403.389 73.05C405.689 74.55 407.409 76.69 408.549 79.47C409.709 82.25 410.209 85.56 410.049 89.4H404.649V87.48C404.589 83.5 403.779 80.53 402.219 78.57C400.659 76.59 398.339 75.6 395.259 75.6C391.959 75.6 389.449 76.66 387.729 78.78C386.009 80.9 385.149 83.94 385.149 87.9C385.149 91.72 386.009 94.68 387.729 96.78C389.449 98.88 391.899 99.93 395.079 99.93C397.219 99.93 399.079 99.44 400.659 98.46C402.239 97.48 403.479 96.07 404.379 94.23L409.509 96C408.249 98.86 406.349 101.08 403.809 102.66C401.289 104.22 398.459 105 395.319 105ZM383.349 89.4V85.11H407.289V89.4H383.349Z" fill="#FDFDFD"/>
<path d="M438.94 105C435.72 105 432.94 104.27 430.6 102.81C428.28 101.35 426.49 99.33 425.23 96.75C423.97 94.17 423.34 91.21 423.34 87.87C423.34 84.47 423.98 81.49 425.26 78.93C426.54 76.37 428.35 74.38 430.69 72.96C433.03 71.52 435.78 70.8 438.94 70.8C442.18 70.8 444.97 71.53 447.31 72.99C449.65 74.43 451.44 76.44 452.68 79.02C453.94 81.58 454.57 84.53 454.57 87.87C454.57 91.25 453.94 94.23 452.68 96.81C451.42 99.37 449.62 101.38 447.28 102.84C444.94 104.28 442.16 105 438.94 105ZM438.94 99.93C442.3 99.93 444.8 98.81 446.44 96.57C448.08 94.33 448.9 91.43 448.9 87.87C448.9 84.21 448.07 81.3 446.41 79.14C444.75 76.96 442.26 75.87 438.94 75.87C436.68 75.87 434.82 76.38 433.36 77.4C431.9 78.42 430.81 79.83 430.09 81.63C429.37 83.43 429.01 85.51 429.01 87.87C429.01 91.51 429.85 94.43 431.53 96.63C433.21 98.83 435.68 99.93 438.94 99.93Z" fill="#FDFDFD"/>
<path d="M462.465 104.1V69.93C462.465 69.09 462.505 68.24 462.585 67.38C462.665 66.5 462.845 65.65 463.125 64.83C463.405 63.99 463.865 63.22 464.505 62.52C465.245 61.7 466.055 61.12 466.935 60.78C467.815 60.42 468.705 60.2 469.605 60.12C470.525 60.04 471.395 60 472.215 60H476.325V64.44H472.515C470.935 64.44 469.755 64.83 468.975 65.61C468.195 66.37 467.805 67.53 467.805 69.09V104.1H462.465ZM456.975 76.11V71.7H476.325V76.11H456.975Z" fill="#FDFDFD"/>
<path d="M507.615 104.1C505.695 104.48 503.795 104.63 501.915 104.55C500.055 104.49 498.395 104.12 496.935 103.44C495.475 102.74 494.365 101.66 493.605 100.2C492.965 98.92 492.615 97.63 492.555 96.33C492.515 95.01 492.495 93.52 492.495 91.86V62.7H497.835V91.62C497.835 92.94 497.845 94.07 497.865 95.01C497.905 95.95 498.115 96.76 498.495 97.44C499.215 98.72 500.355 99.47 501.915 99.69C503.495 99.91 505.395 99.85 507.615 99.51V104.1ZM485.925 76.11V71.7H507.615V76.11H485.925Z" fill="#FDFDFD"/>
<path d="M535.463 104.1V87.87C535.463 86.33 535.323 84.85 535.043 83.43C534.783 82.01 534.313 80.74 533.633 79.62C532.973 78.48 532.073 77.58 530.933 76.92C529.813 76.26 528.393 75.93 526.673 75.93C525.333 75.93 524.113 76.16 523.013 76.62C521.933 77.06 521.003 77.74 520.223 78.66C519.443 79.58 518.833 80.74 518.393 82.14C517.973 83.52 517.763 85.15 517.763 87.03L514.253 85.95C514.253 82.81 514.813 80.12 515.933 77.88C517.073 75.62 518.663 73.89 520.703 72.69C522.763 71.47 525.183 70.86 527.963 70.86C530.063 70.86 531.853 71.19 533.333 71.85C534.813 72.51 536.043 73.39 537.023 74.49C538.003 75.57 538.773 76.79 539.333 78.15C539.893 79.49 540.283 80.86 540.503 82.26C540.743 83.64 540.863 84.95 540.863 86.19V104.1H535.463ZM512.363 104.1V60.9H517.163V84.75H517.763V104.1H512.363Z" fill="#FDFDFD"/>
<path d="M560.902 105C557.722 105 554.942 104.3 552.562 102.9C550.202 101.48 548.362 99.51 547.042 96.99C545.722 94.45 545.062 91.49 545.062 88.11C545.062 84.57 545.712 81.51 547.012 78.93C548.312 76.33 550.122 74.33 552.442 72.93C554.782 71.51 557.522 70.8 560.662 70.8C563.922 70.8 566.692 71.55 568.972 73.05C571.272 74.55 572.992 76.69 574.132 79.47C575.292 82.25 575.792 85.56 575.632 89.4H570.232V87.48C570.172 83.5 569.362 80.53 567.802 78.57C566.242 76.59 563.922 75.6 560.842 75.6C557.542 75.6 555.032 76.66 553.312 78.78C551.592 80.9 550.732 83.94 550.732 87.9C550.732 91.72 551.592 94.68 553.312 96.78C555.032 98.88 557.482 99.93 560.662 99.93C562.802 99.93 564.662 99.44 566.242 98.46C567.822 97.48 569.062 96.07 569.962 94.23L575.092 96C573.832 98.86 571.932 101.08 569.392 102.66C566.872 104.22 564.042 105 560.902 105ZM548.932 89.4V85.11H572.872V89.4H548.932Z" fill="#FDFDFD"/>
<path d="M603.443 105C600.423 105 597.833 104.25 595.673 102.75C593.513 101.23 591.843 99.18 590.663 96.6C589.503 94.02 588.923 91.11 588.923 87.87C588.923 84.63 589.503 81.72 590.663 79.14C591.843 76.56 593.513 74.53 595.673 73.05C597.833 71.55 600.413 70.8 603.413 70.8C606.473 70.8 609.043 71.54 611.123 73.02C613.203 74.5 614.773 76.53 615.833 79.11C616.913 81.69 617.453 84.61 617.453 87.87C617.453 91.09 616.913 94 615.833 96.6C614.773 99.18 613.203 101.23 611.123 102.75C609.043 104.25 606.483 105 603.443 105ZM604.103 100.11C606.283 100.11 608.073 99.59 609.473 98.55C610.873 97.49 611.903 96.04 612.563 94.2C613.243 92.34 613.583 90.23 613.583 87.87C613.583 85.47 613.243 83.36 612.563 81.54C611.903 79.7 610.883 78.27 609.503 77.25C608.123 76.21 606.373 75.69 604.253 75.69C602.053 75.69 600.233 76.23 598.793 77.31C597.373 78.39 596.313 79.85 595.613 81.69C594.933 83.53 594.593 85.59 594.593 87.87C594.593 90.17 594.943 92.25 595.643 94.11C596.343 95.95 597.393 97.41 598.793 98.49C600.213 99.57 601.983 100.11 604.103 100.11ZM613.583 104.1V80.25H612.983V60.9H618.353V104.1H613.583Z" fill="#FDFDFD"/>
<path d="M634.169 105C631.749 105 629.719 104.56 628.079 103.68C626.459 102.78 625.229 101.6 624.389 100.14C623.569 98.68 623.159 97.08 623.159 95.34C623.159 93.64 623.479 92.17 624.119 90.93C624.779 89.67 625.699 88.63 626.879 87.81C628.059 86.97 629.469 86.31 631.109 85.83C632.649 85.41 634.369 85.05 636.269 84.75C638.189 84.43 640.129 84.14 642.089 83.88C644.049 83.62 645.879 83.37 647.579 83.13L645.659 84.24C645.719 81.36 645.139 79.23 643.919 77.85C642.719 76.47 640.639 75.78 637.679 75.78C635.719 75.78 633.999 76.23 632.519 77.13C631.059 78.01 630.029 79.45 629.429 81.45L624.359 79.92C625.139 77.08 626.649 74.85 628.889 73.23C631.129 71.61 634.079 70.8 637.739 70.8C640.679 70.8 643.199 71.33 645.299 72.39C647.419 73.43 648.939 75.01 649.859 77.13C650.319 78.13 650.609 79.22 650.729 80.4C650.849 81.56 650.909 82.78 650.909 84.06V104.1H646.169V96.33L647.279 97.05C646.059 99.67 644.349 101.65 642.149 102.99C639.969 104.33 637.309 105 634.169 105ZM634.979 100.53C636.899 100.53 638.559 100.19 639.959 99.51C641.379 98.81 642.519 97.9 643.379 96.78C644.239 95.64 644.799 94.4 645.059 93.06C645.359 92.06 645.519 90.95 645.539 89.73C645.579 88.49 645.599 87.54 645.599 86.88L647.459 87.69C645.719 87.93 644.009 88.16 642.329 88.38C640.649 88.6 639.059 88.84 637.559 89.1C636.059 89.34 634.709 89.63 633.509 89.97C632.629 90.25 631.799 90.61 631.019 91.05C630.259 91.49 629.639 92.06 629.159 92.76C628.699 93.44 628.469 94.29 628.469 95.31C628.469 96.19 628.689 97.03 629.129 97.83C629.589 98.63 630.289 99.28 631.229 99.78C632.189 100.28 633.439 100.53 634.979 100.53Z" fill="#FDFDFD"/>
<path d="M659.592 118.5L665.862 101.46L665.952 106.5L651.792 71.7H657.402L668.502 99.69H666.582L676.992 71.7H682.422L664.782 118.5H659.592Z" fill="#FDFDFD"/>
<path d="M681.733 104.1V98.22H687.613V104.1H681.733Z" fill="#FDFDFD"/>
<path d="M17.5793 164.1V131.7H22.3493V139.53L21.5693 138.51C21.9493 137.51 22.4393 136.59 23.0393 135.75C23.6593 134.91 24.3493 134.22 25.1093 133.68C25.9493 133 26.8993 132.48 27.9593 132.12C29.0193 131.76 30.0993 131.55 31.1993 131.49C32.2993 131.41 33.3293 131.48 34.2893 131.7V136.71C33.1693 136.41 31.9393 136.33 30.5993 136.47C29.2593 136.61 28.0193 137.1 26.8793 137.94C25.8393 138.68 25.0293 139.58 24.4493 140.64C23.8893 141.7 23.4993 142.85 23.2793 144.09C23.0593 145.31 22.9493 146.56 22.9493 147.84V164.1H17.5793Z" fill="#FDFDFD"/>
<path d="M51.3762 165C48.1562 165 45.3762 164.27 43.0362 162.81C40.7162 161.35 38.9262 159.33 37.6662 156.75C36.4062 154.17 35.7762 151.21 35.7762 147.87C35.7762 144.47 36.4162 141.49 37.6962 138.93C38.9762 136.37 40.7862 134.38 43.1262 132.96C45.4662 131.52 48.2162 130.8 51.3762 130.8C54.6162 130.8 57.4062 131.53 59.7462 132.99C62.0862 134.43 63.8762 136.44 65.1162 139.02C66.3762 141.58 67.0062 144.53 67.0062 147.87C67.0062 151.25 66.3762 154.23 65.1162 156.81C63.8562 159.37 62.0562 161.38 59.7162 162.84C57.3762 164.28 54.5962 165 51.3762 165ZM51.3762 159.93C54.7362 159.93 57.2362 158.81 58.8762 156.57C60.5162 154.33 61.3362 151.43 61.3362 147.87C61.3362 144.21 60.5062 141.3 58.8462 139.14C57.1862 136.96 54.6962 135.87 51.3762 135.87C49.1162 135.87 47.2562 136.38 45.7962 137.4C44.3362 138.42 43.2462 139.83 42.5262 141.63C41.8062 143.43 41.4462 145.51 41.4462 147.87C41.4462 151.51 42.2862 154.43 43.9662 156.63C45.6462 158.83 48.1162 159.93 51.3762 159.93Z" fill="#FDFDFD"/>
<path d="M84.1113 164.94C82.0313 164.94 80.2413 164.61 78.7413 163.95C77.2613 163.29 76.0313 162.41 75.0513 161.31C74.0713 160.21 73.3013 158.99 72.7413 157.65C72.1813 156.31 71.7813 154.94 71.5413 153.54C71.3213 152.14 71.2113 150.83 71.2113 149.61V131.7H76.6113V147.93C76.6113 149.45 76.7513 150.92 77.0313 152.34C77.3113 153.76 77.7813 155.04 78.4413 156.18C79.1213 157.32 80.0213 158.22 81.1413 158.88C82.2813 159.54 83.7013 159.87 85.4013 159.87C86.7413 159.87 87.9613 159.64 89.0613 159.18C90.1613 158.72 91.1013 158.04 91.8813 157.14C92.6613 156.22 93.2613 155.06 93.6813 153.66C94.1013 152.26 94.3113 150.63 94.3113 148.77L97.8213 149.85C97.8213 152.97 97.2513 155.66 96.1113 157.92C94.9913 160.18 93.4013 161.92 91.3413 163.14C89.3013 164.34 86.8913 164.94 84.1113 164.94ZM94.9113 164.1V155.43H94.3113V131.7H99.6813V164.1H94.9113Z" fill="#FDFDFD"/>
<path d="M129.351 164.1V147.87C129.351 146.33 129.211 144.85 128.931 143.43C128.671 142.01 128.201 140.74 127.521 139.62C126.861 138.48 125.961 137.58 124.821 136.92C123.701 136.26 122.281 135.93 120.561 135.93C119.221 135.93 118.001 136.16 116.901 136.62C115.821 137.06 114.891 137.74 114.111 138.66C113.331 139.58 112.721 140.74 112.281 142.14C111.861 143.52 111.651 145.15 111.651 147.03L108.141 145.95C108.141 142.81 108.701 140.12 109.821 137.88C110.961 135.62 112.551 133.89 114.591 132.69C116.651 131.47 119.071 130.86 121.851 130.86C123.951 130.86 125.741 131.19 127.221 131.85C128.701 132.51 129.931 133.39 130.911 134.49C131.891 135.57 132.661 136.79 133.221 138.15C133.781 139.49 134.171 140.86 134.391 142.26C134.631 143.64 134.751 144.95 134.751 146.19V164.1H129.351ZM106.251 164.1V131.7H111.051V140.37H111.651V164.1H106.251Z" fill="#FDFDFD"/>
<path d="M153.177 165C150.157 165 147.567 164.25 145.407 162.75C143.247 161.23 141.577 159.18 140.397 156.6C139.237 154.02 138.657 151.11 138.657 147.87C138.657 144.63 139.237 141.72 140.397 139.14C141.577 136.56 143.247 134.53 145.407 133.05C147.567 131.55 150.147 130.8 153.147 130.8C156.207 130.8 158.777 131.54 160.857 133.02C162.937 134.5 164.507 136.53 165.567 139.11C166.647 141.69 167.187 144.61 167.187 147.87C167.187 151.09 166.647 154 165.567 156.6C164.507 159.18 162.937 161.23 160.857 162.75C158.777 164.25 156.217 165 153.177 165ZM153.837 160.11C156.017 160.11 157.807 159.59 159.207 158.55C160.607 157.49 161.637 156.04 162.297 154.2C162.977 152.34 163.317 150.23 163.317 147.87C163.317 145.47 162.977 143.36 162.297 141.54C161.637 139.7 160.617 138.27 159.237 137.25C157.857 136.21 156.107 135.69 153.987 135.69C151.787 135.69 149.967 136.23 148.527 137.31C147.107 138.39 146.047 139.85 145.347 141.69C144.667 143.53 144.327 145.59 144.327 147.87C144.327 150.17 144.677 152.25 145.377 154.11C146.077 155.95 147.127 157.41 148.527 158.49C149.947 159.57 151.717 160.11 153.837 160.11ZM163.317 164.1V140.25H162.717V120.9H168.087V164.1H163.317Z" fill="#FDFDFD"/>
<path d="M174.093 147.39V142.98H192.093V147.39H174.093Z" fill="#FDFDFD"/>
<path d="M216.178 164.1C214.258 164.48 212.358 164.63 210.478 164.55C208.618 164.49 206.958 164.12 205.498 163.44C204.038 162.74 202.928 161.66 202.168 160.2C201.528 158.92 201.178 157.63 201.118 156.33C201.078 155.01 201.058 153.52 201.058 151.86V122.7H206.398V151.62C206.398 152.94 206.408 154.07 206.428 155.01C206.468 155.95 206.678 156.76 207.058 157.44C207.778 158.72 208.918 159.47 210.478 159.69C212.058 159.91 213.958 159.85 216.178 159.51V164.1ZM194.488 136.11V131.7H216.178V136.11H194.488Z" fill="#FDFDFD"/>
<path d="M244.026 164.1V147.87C244.026 146.33 243.886 144.85 243.606 143.43C243.346 142.01 242.876 140.74 242.196 139.62C241.536 138.48 240.636 137.58 239.496 136.92C238.376 136.26 236.956 135.93 235.236 135.93C233.896 135.93 232.676 136.16 231.576 136.62C230.496 137.06 229.566 137.74 228.786 138.66C228.006 139.58 227.396 140.74 226.956 142.14C226.536 143.52 226.326 145.15 226.326 147.03L222.816 145.95C222.816 142.81 223.376 140.12 224.496 137.88C225.636 135.62 227.226 133.89 229.266 132.69C231.326 131.47 233.746 130.86 236.526 130.86C238.626 130.86 240.416 131.19 241.896 131.85C243.376 132.51 244.606 133.39 245.586 134.49C246.566 135.57 247.336 136.79 247.896 138.15C248.456 139.49 248.846 140.86 249.066 142.26C249.306 143.64 249.426 144.95 249.426 146.19V164.1H244.026ZM220.926 164.1V120.9H225.726V144.75H226.326V164.1H220.926Z" fill="#FDFDFD"/>
<path d="M269.465 165C266.285 165 263.505 164.3 261.125 162.9C258.765 161.48 256.925 159.51 255.605 156.99C254.285 154.45 253.625 151.49 253.625 148.11C253.625 144.57 254.275 141.51 255.575 138.93C256.875 136.33 258.685 134.33 261.005 132.93C263.345 131.51 266.085 130.8 269.225 130.8C272.485 130.8 275.255 131.55 277.535 133.05C279.835 134.55 281.555 136.69 282.695 139.47C283.855 142.25 284.355 145.56 284.195 149.4H278.795V147.48C278.735 143.5 277.925 140.53 276.365 138.57C274.805 136.59 272.485 135.6 269.405 135.6C266.105 135.6 263.595 136.66 261.875 138.78C260.155 140.9 259.295 143.94 259.295 147.9C259.295 151.72 260.155 154.68 261.875 156.78C263.595 158.88 266.045 159.93 269.225 159.93C271.365 159.93 273.225 159.44 274.805 158.46C276.385 157.48 277.625 156.07 278.525 154.23L283.655 156C282.395 158.86 280.495 161.08 277.955 162.66C275.435 164.22 272.605 165 269.465 165ZM257.495 149.4V145.11H281.435V149.4H257.495Z" fill="#FDFDFD"/>
<path d="M288.475 147.39V142.98H306.475V147.39H288.475Z" fill="#FDFDFD"/>
<path d="M326.12 165C322.84 165 320.05 164.27 317.75 162.81C315.47 161.33 313.73 159.3 312.53 156.72C311.33 154.14 310.71 151.2 310.67 147.9C310.71 144.52 311.34 141.55 312.56 138.99C313.8 136.41 315.57 134.4 317.87 132.96C320.17 131.52 322.94 130.8 326.18 130.8C329.6 130.8 332.54 131.64 335 133.32C337.48 135 339.14 137.3 339.98 140.22L334.7 141.81C334.02 139.93 332.91 138.47 331.37 137.43C329.85 136.39 328.1 135.87 326.12 135.87C323.9 135.87 322.07 136.39 320.63 137.43C319.19 138.45 318.12 139.87 317.42 141.69C316.72 143.49 316.36 145.56 316.34 147.9C316.38 151.5 317.21 154.41 318.83 156.63C320.47 158.83 322.9 159.93 326.12 159.93C328.24 159.93 330 159.45 331.4 158.49C332.8 157.51 333.86 156.1 334.58 154.26L339.98 155.67C338.86 158.69 337.11 161 334.73 162.6C332.35 164.2 329.48 165 326.12 165Z" fill="#FDFDFD"/>
<path d="M344.024 164.1V120H349.364V164.1H344.024Z" fill="#FDFDFD"/>
<path d="M370.365 165C367.145 165 364.365 164.27 362.025 162.81C359.705 161.35 357.915 159.33 356.655 156.75C355.395 154.17 354.765 151.21 354.765 147.87C354.765 144.47 355.405 141.49 356.685 138.93C357.965 136.37 359.775 134.38 362.115 132.96C364.455 131.52 367.205 130.8 370.365 130.8C373.605 130.8 376.395 131.53 378.735 132.99C381.075 134.43 382.865 136.44 384.105 139.02C385.365 141.58 385.995 144.53 385.995 147.87C385.995 151.25 385.365 154.23 384.105 156.81C382.845 159.37 381.045 161.38 378.705 162.84C376.365 164.28 373.585 165 370.365 165ZM370.365 159.93C373.725 159.93 376.225 158.81 377.865 156.57C379.505 154.33 380.325 151.43 380.325 147.87C380.325 144.21 379.495 141.3 377.835 139.14C376.175 136.96 373.685 135.87 370.365 135.87C368.105 135.87 366.245 136.38 364.785 137.4C363.325 138.42 362.235 139.83 361.515 141.63C360.795 143.43 360.435 145.51 360.435 147.87C360.435 151.51 361.275 154.43 362.955 156.63C364.635 158.83 367.105 159.93 370.365 159.93Z" fill="#FDFDFD"/>
<path d="M404.45 165C401.17 165 398.38 164.27 396.08 162.81C393.8 161.33 392.06 159.3 390.86 156.72C389.66 154.14 389.04 151.2 389 147.9C389.04 144.52 389.67 141.55 390.89 138.99C392.13 136.41 393.9 134.4 396.2 132.96C398.5 131.52 401.27 130.8 404.51 130.8C407.93 130.8 410.87 131.64 413.33 133.32C415.81 135 417.47 137.3 418.31 140.22L413.03 141.81C412.35 139.93 411.24 138.47 409.7 137.43C408.18 136.39 406.43 135.87 404.45 135.87C402.23 135.87 400.4 136.39 398.96 137.43C397.52 138.45 396.45 139.87 395.75 141.69C395.05 143.49 394.69 145.56 394.67 147.9C394.71 151.5 395.54 154.41 397.16 156.63C398.8 158.83 401.23 159.93 404.45 159.93C406.57 159.93 408.33 159.45 409.73 158.49C411.13 157.51 412.19 156.1 412.91 154.26L418.31 155.67C417.19 158.69 415.44 161 413.06 162.6C410.68 164.2 407.81 165 404.45 165Z" fill="#FDFDFD"/>
<path d="M422.603 164.1L422.633 120.9H428.033V147.3L441.623 131.7H448.553L434.243 147.9L450.233 164.1H442.763L428.033 148.5V164.1H422.603Z" fill="#FDFDFD"/>
<path d="M109.567 225C106.527 225 103.967 224.25 101.887 222.75C99.8075 221.23 98.2275 219.18 97.1475 216.6C96.0875 214 95.5575 211.09 95.5575 207.87C95.5575 204.61 96.0875 201.69 97.1475 199.11C98.2275 196.53 99.8075 194.5 101.887 193.02C103.987 191.54 106.557 190.8 109.597 190.8C112.597 190.8 115.177 191.55 117.337 193.05C119.517 194.53 121.187 196.56 122.347 199.14C123.507 201.72 124.087 204.63 124.087 207.87C124.087 211.11 123.507 214.02 122.347 216.6C121.187 219.18 119.517 221.23 117.337 222.75C115.177 224.25 112.587 225 109.567 225ZM94.6575 224.1V180.9H100.027V200.25H99.4275V224.1H94.6575ZM108.907 220.11C111.047 220.11 112.817 219.57 114.217 218.49C115.617 217.41 116.667 215.95 117.367 214.11C118.067 212.25 118.417 210.17 118.417 207.87C118.417 205.59 118.067 203.53 117.367 201.69C116.687 199.85 115.627 198.39 114.187 197.31C112.767 196.23 110.957 195.69 108.757 195.69C106.657 195.69 104.917 196.21 103.537 197.25C102.157 198.27 101.127 199.7 100.447 201.54C99.7675 203.36 99.4275 205.47 99.4275 207.87C99.4275 210.23 99.7575 212.34 100.417 214.2C101.097 216.04 102.137 217.49 103.537 218.55C104.937 219.59 106.727 220.11 108.907 220.11Z" fill="#FDFDFD"/>
<path d="M131.606 238.5L137.876 221.46L137.966 226.5L123.806 191.7H129.416L140.516 219.69H138.596L149.006 191.7H154.436L136.796 238.5H131.606Z" fill="#FDFDFD"/>
<path d="M206.533 224.1L206.563 203.37C206.563 200.95 205.913 199.06 204.613 197.7C203.333 196.32 201.663 195.63 199.603 195.63C198.403 195.63 197.263 195.91 196.183 196.47C195.103 197.01 194.223 197.87 193.543 199.05C192.863 200.21 192.523 201.7 192.523 203.52L189.703 202.38C189.663 200.08 190.133 198.07 191.113 196.35C192.113 194.61 193.473 193.26 195.193 192.3C196.913 191.34 198.853 190.86 201.013 190.86C204.393 190.86 207.053 191.89 208.993 193.95C210.933 195.99 211.903 198.74 211.903 202.2L211.873 224.1H206.533ZM167.773 224.1V191.7H172.543V200.37H173.143V224.1H167.773ZM187.183 224.1L187.213 203.58C187.213 201.1 186.573 199.16 185.293 197.76C184.013 196.34 182.313 195.63 180.193 195.63C178.093 195.63 176.393 196.35 175.093 197.79C173.793 199.23 173.143 201.14 173.143 203.52L170.323 201.84C170.323 199.74 170.823 197.86 171.823 196.2C172.823 194.54 174.183 193.24 175.903 192.3C177.623 191.34 179.573 190.86 181.753 190.86C183.933 190.86 185.833 191.32 187.453 192.24C189.073 193.16 190.323 194.48 191.203 196.2C192.083 197.9 192.523 199.93 192.523 202.29L192.493 224.1H187.183Z" fill="#FDFDFD"/>
<path d="M227.127 225C224.707 225 222.677 224.56 221.037 223.68C219.417 222.78 218.187 221.6 217.347 220.14C216.527 218.68 216.117 217.08 216.117 215.34C216.117 213.64 216.437 212.17 217.077 210.93C217.737 209.67 218.657 208.63 219.837 207.81C221.017 206.97 222.427 206.31 224.067 205.83C225.607 205.41 227.327 205.05 229.227 204.75C231.147 204.43 233.087 204.14 235.047 203.88C237.007 203.62 238.837 203.37 240.537 203.13L238.617 204.24C238.677 201.36 238.097 199.23 236.877 197.85C235.677 196.47 233.597 195.78 230.637 195.78C228.677 195.78 226.957 196.23 225.477 197.13C224.017 198.01 222.987 199.45 222.387 201.45L217.317 199.92C218.097 197.08 219.607 194.85 221.847 193.23C224.087 191.61 227.037 190.8 230.697 190.8C233.637 190.8 236.157 191.33 238.257 192.39C240.377 193.43 241.897 195.01 242.817 197.13C243.277 198.13 243.567 199.22 243.687 200.4C243.807 201.56 243.867 202.78 243.867 204.06V224.1H239.127V216.33L240.237 217.05C239.017 219.67 237.307 221.65 235.107 222.99C232.927 224.33 230.267 225 227.127 225ZM227.937 220.53C229.857 220.53 231.517 220.19 232.917 219.51C234.337 218.81 235.477 217.9 236.337 216.78C237.197 215.64 237.757 214.4 238.017 213.06C238.317 212.06 238.477 210.95 238.497 209.73C238.537 208.49 238.557 207.54 238.557 206.88L240.417 207.69C238.677 207.93 236.967 208.16 235.287 208.38C233.607 208.6 232.017 208.84 230.517 209.1C229.017 209.34 227.667 209.63 226.467 209.97C225.587 210.25 224.757 210.61 223.977 211.05C223.217 211.49 222.597 212.06 222.117 212.76C221.657 213.44 221.427 214.29 221.427 215.31C221.427 216.19 221.647 217.03 222.087 217.83C222.547 218.63 223.247 219.28 224.187 219.78C225.147 220.28 226.397 220.53 227.937 220.53Z" fill="#FDFDFD"/>
<path d="M250.467 185.97V180.45H255.807V185.97H250.467ZM250.467 224.1V191.7H255.807V224.1H250.467Z" fill="#FDFDFD"/>
<path d="M263.609 224.1V180H268.949V224.1H263.609Z" fill="#FDFDFD"/>
<path d="M295.572 225C293.152 225 291.122 224.56 289.482 223.68C287.862 222.78 286.632 221.6 285.792 220.14C284.972 218.68 284.562 217.08 284.562 215.34C284.562 213.64 284.882 212.17 285.522 210.93C286.182 209.67 287.102 208.63 288.282 207.81C289.462 206.97 290.872 206.31 292.512 205.83C294.052 205.41 295.772 205.05 297.672 204.75C299.592 204.43 301.532 204.14 303.492 203.88C305.452 203.62 307.282 203.37 308.982 203.13L307.062 204.24C307.122 201.36 306.542 199.23 305.322 197.85C304.122 196.47 302.042 195.78 299.082 195.78C297.122 195.78 295.402 196.23 293.922 197.13C292.462 198.01 291.432 199.45 290.832 201.45L285.762 199.92C286.542 197.08 288.052 194.85 290.292 193.23C292.532 191.61 295.482 190.8 299.142 190.8C302.082 190.8 304.602 191.33 306.702 192.39C308.822 193.43 310.342 195.01 311.262 197.13C311.722 198.13 312.012 199.22 312.132 200.4C312.252 201.56 312.312 202.78 312.312 204.06V224.1H307.572V216.33L308.682 217.05C307.462 219.67 305.752 221.65 303.552 222.99C301.372 224.33 298.712 225 295.572 225ZM296.382 220.53C298.302 220.53 299.962 220.19 301.362 219.51C302.782 218.81 303.922 217.9 304.782 216.78C305.642 215.64 306.202 214.4 306.462 213.06C306.762 212.06 306.922 210.95 306.942 209.73C306.982 208.49 307.002 207.54 307.002 206.88L308.862 207.69C307.122 207.93 305.412 208.16 303.732 208.38C302.052 208.6 300.462 208.84 298.962 209.1C297.462 209.34 296.112 209.63 294.912 209.97C294.032 210.25 293.202 210.61 292.422 211.05C291.662 211.49 291.042 212.06 290.562 212.76C290.102 213.44 289.872 214.29 289.872 215.31C289.872 216.19 290.092 217.03 290.532 217.83C290.992 218.63 291.692 219.28 292.632 219.78C293.592 220.28 294.842 220.53 296.382 220.53Z" fill="#FDFDFD"/>
<path d="M341.382 224.1V207.87C341.382 206.33 341.242 204.85 340.962 203.43C340.702 202.01 340.232 200.74 339.552 199.62C338.892 198.48 337.992 197.58 336.852 196.92C335.732 196.26 334.312 195.93 332.592 195.93C331.252 195.93 330.032 196.16 328.932 196.62C327.852 197.06 326.922 197.74 326.142 198.66C325.362 199.58 324.752 200.74 324.312 202.14C323.892 203.52 323.682 205.15 323.682 207.03L320.172 205.95C320.172 202.81 320.732 200.12 321.852 197.88C322.992 195.62 324.582 193.89 326.622 192.69C328.682 191.47 331.102 190.86 333.882 190.86C335.982 190.86 337.772 191.19 339.252 191.85C340.732 192.51 341.962 193.39 342.942 194.49C343.922 195.57 344.692 196.79 345.252 198.15C345.812 199.49 346.202 200.86 346.422 202.26C346.662 203.64 346.782 204.95 346.782 206.19V224.1H341.382ZM318.282 224.1V191.7H323.082V200.37H323.682V224.1H318.282Z" fill="#FDFDFD"/>
<path d="M365.208 225C362.188 225 359.598 224.25 357.438 222.75C355.278 221.23 353.608 219.18 352.428 216.6C351.268 214.02 350.688 211.11 350.688 207.87C350.688 204.63 351.268 201.72 352.428 199.14C353.608 196.56 355.278 194.53 357.438 193.05C359.598 191.55 362.178 190.8 365.178 190.8C368.238 190.8 370.808 191.54 372.888 193.02C374.968 194.5 376.538 196.53 377.598 199.11C378.678 201.69 379.218 204.61 379.218 207.87C379.218 211.09 378.678 214 377.598 216.6C376.538 219.18 374.968 221.23 372.888 222.75C370.808 224.25 368.248 225 365.208 225ZM365.868 220.11C368.048 220.11 369.838 219.59 371.238 218.55C372.638 217.49 373.668 216.04 374.328 214.2C375.008 212.34 375.348 210.23 375.348 207.87C375.348 205.47 375.008 203.36 374.328 201.54C373.668 199.7 372.648 198.27 371.268 197.25C369.888 196.21 368.138 195.69 366.018 195.69C363.818 195.69 361.998 196.23 360.558 197.31C359.138 198.39 358.078 199.85 357.378 201.69C356.698 203.53 356.358 205.59 356.358 207.87C356.358 210.17 356.708 212.25 357.408 214.11C358.108 215.95 359.158 217.41 360.558 218.49C361.978 219.57 363.748 220.11 365.868 220.11ZM375.348 224.1V200.25H374.748V180.9H380.118V224.1H375.348Z" fill="#FDFDFD"/>
<path d="M435.665 224.1L435.695 203.37C435.695 200.95 435.045 199.06 433.745 197.7C432.465 196.32 430.795 195.63 428.735 195.63C427.535 195.63 426.395 195.91 425.315 196.47C424.235 197.01 423.355 197.87 422.675 199.05C421.995 200.21 421.655 201.7 421.655 203.52L418.835 202.38C418.795 200.08 419.265 198.07 420.245 196.35C421.245 194.61 422.605 193.26 424.325 192.3C426.045 191.34 427.985 190.86 430.145 190.86C433.525 190.86 436.185 191.89 438.125 193.95C440.065 195.99 441.035 198.74 441.035 202.2L441.005 224.1H435.665ZM396.905 224.1V191.7H401.675V200.37H402.275V224.1H396.905ZM416.315 224.1L416.345 203.58C416.345 201.1 415.705 199.16 414.425 197.76C413.145 196.34 411.445 195.63 409.325 195.63C407.225 195.63 405.525 196.35 404.225 197.79C402.925 199.23 402.275 201.14 402.275 203.52L399.455 201.84C399.455 199.74 399.955 197.86 400.955 196.2C401.955 194.54 403.315 193.24 405.035 192.3C406.755 191.34 408.705 190.86 410.885 190.86C413.065 190.86 414.965 191.32 416.585 192.24C418.205 193.16 419.455 194.48 420.335 196.2C421.215 197.9 421.655 199.93 421.655 202.29L421.625 224.1H416.315Z" fill="#FDFDFD"/>
<path d="M460.796 225C457.616 225 454.836 224.3 452.456 222.9C450.096 221.48 448.256 219.51 446.936 216.99C445.616 214.45 444.956 211.49 444.956 208.11C444.956 204.57 445.606 201.51 446.906 198.93C448.206 196.33 450.016 194.33 452.336 192.93C454.676 191.51 457.416 190.8 460.556 190.8C463.816 190.8 466.586 191.55 468.866 193.05C471.166 194.55 472.886 196.69 474.026 199.47C475.186 202.25 475.686 205.56 475.526 209.4H470.126V207.48C470.066 203.5 469.256 200.53 467.696 198.57C466.136 196.59 463.816 195.6 460.736 195.6C457.436 195.6 454.926 196.66 453.206 198.78C451.486 200.9 450.626 203.94 450.626 207.9C450.626 211.72 451.486 214.68 453.206 216.78C454.926 218.88 457.376 219.93 460.556 219.93C462.696 219.93 464.556 219.44 466.136 218.46C467.716 217.48 468.956 216.07 469.856 214.23L474.986 216C473.726 218.86 471.826 221.08 469.286 222.66C466.766 224.22 463.936 225 460.796 225ZM448.826 209.4V205.11H472.766V209.4H448.826Z" fill="#FDFDFD"/>
<path d="M492.645 224.97C488.785 224.97 485.615 224.13 483.135 222.45C480.675 220.75 479.165 218.38 478.605 215.34L484.065 214.47C484.505 216.23 485.515 217.63 487.095 218.67C488.675 219.69 490.635 220.2 492.975 220.2C495.195 220.2 496.935 219.74 498.195 218.82C499.455 217.9 500.085 216.65 500.085 215.07C500.085 214.15 499.875 213.41 499.455 212.85C499.035 212.27 498.165 211.73 496.845 211.23C495.545 210.73 493.575 210.13 490.935 209.43C488.075 208.67 485.825 207.88 484.185 207.06C482.545 206.24 481.375 205.29 480.675 204.21C479.975 203.13 479.625 201.82 479.625 200.28C479.625 198.38 480.145 196.72 481.185 195.3C482.225 193.86 483.675 192.75 485.535 191.97C487.415 191.19 489.595 190.8 492.075 190.8C494.535 190.8 496.735 191.19 498.675 191.97C500.615 192.75 502.175 193.86 503.355 195.3C504.555 196.72 505.265 198.38 505.485 200.28L500.025 201.27C499.765 199.53 498.925 198.16 497.505 197.16C496.105 196.16 494.295 195.63 492.075 195.57C489.975 195.49 488.265 195.86 486.945 196.68C485.645 197.5 484.995 198.61 484.995 200.01C484.995 200.79 485.235 201.46 485.715 202.02C486.215 202.58 487.125 203.11 488.445 203.61C489.785 204.11 491.725 204.68 494.265 205.32C497.125 206.04 499.375 206.83 501.015 207.69C502.675 208.53 503.855 209.53 504.555 210.69C505.255 211.83 505.605 213.24 505.605 214.92C505.605 218.04 504.455 220.5 502.155 222.3C499.855 224.08 496.685 224.97 492.645 224.97Z" fill="#FDFDFD"/>
<path d="M522.662 224.97C518.802 224.97 515.632 224.13 513.152 222.45C510.692 220.75 509.182 218.38 508.622 215.34L514.082 214.47C514.522 216.23 515.532 217.63 517.112 218.67C518.692 219.69 520.652 220.2 522.992 220.2C525.212 220.2 526.952 219.74 528.212 218.82C529.472 217.9 530.102 216.65 530.102 215.07C530.102 214.15 529.892 213.41 529.472 212.85C529.052 212.27 528.182 211.73 526.862 211.23C525.562 210.73 523.592 210.13 520.952 209.43C518.092 208.67 515.842 207.88 514.202 207.06C512.562 206.24 511.392 205.29 510.692 204.21C509.992 203.13 509.642 201.82 509.642 200.28C509.642 198.38 510.162 196.72 511.202 195.3C512.242 193.86 513.692 192.75 515.552 191.97C517.432 191.19 519.612 190.8 522.092 190.8C524.552 190.8 526.752 191.19 528.692 191.97C530.632 192.75 532.192 193.86 533.372 195.3C534.572 196.72 535.282 198.38 535.502 200.28L530.042 201.27C529.782 199.53 528.942 198.16 527.522 197.16C526.122 196.16 524.312 195.63 522.092 195.57C519.992 195.49 518.282 195.86 516.962 196.68C515.662 197.5 515.012 198.61 515.012 200.01C515.012 200.79 515.252 201.46 515.732 202.02C516.232 202.58 517.142 203.11 518.462 203.61C519.802 204.11 521.742 204.68 524.282 205.32C527.142 206.04 529.392 206.83 531.032 207.69C532.692 208.53 533.872 209.53 534.572 210.69C535.272 211.83 535.622 213.24 535.622 214.92C535.622 218.04 534.472 220.5 532.172 222.3C529.872 224.08 526.702 224.97 522.662 224.97Z" fill="#FDFDFD"/>
<path d="M554.478 225C551.298 225 548.518 224.3 546.138 222.9C543.778 221.48 541.938 219.51 540.618 216.99C539.298 214.45 538.638 211.49 538.638 208.11C538.638 204.57 539.288 201.51 540.588 198.93C541.888 196.33 543.698 194.33 546.018 192.93C548.358 191.51 551.098 190.8 554.238 190.8C557.498 190.8 560.268 191.55 562.548 193.05C564.848 194.55 566.568 196.69 567.708 199.47C568.868 202.25 569.368 205.56 569.208 209.4H563.808V207.48C563.748 203.5 562.938 200.53 561.378 198.57C559.818 196.59 557.498 195.6 554.418 195.6C551.118 195.6 548.608 196.66 546.888 198.78C545.168 200.9 544.308 203.94 544.308 207.9C544.308 211.72 545.168 214.68 546.888 216.78C548.608 218.88 551.058 219.93 554.238 219.93C556.378 219.93 558.238 219.44 559.818 218.46C561.398 217.48 562.638 216.07 563.538 214.23L568.668 216C567.408 218.86 565.508 221.08 562.968 222.66C560.448 224.22 557.618 225 554.478 225ZM542.508 209.4V205.11H566.448V209.4H542.508Z" fill="#FDFDFD"/>
<path d="M596.279 224.1V207.87C596.279 206.33 596.139 204.85 595.859 203.43C595.599 202.01 595.129 200.74 594.449 199.62C593.789 198.48 592.889 197.58 591.749 196.92C590.629 196.26 589.209 195.93 587.489 195.93C586.149 195.93 584.929 196.16 583.829 196.62C582.749 197.06 581.819 197.74 581.039 198.66C580.259 199.58 579.649 200.74 579.209 202.14C578.789 203.52 578.579 205.15 578.579 207.03L575.069 205.95C575.069 202.81 575.629 200.12 576.749 197.88C577.889 195.62 579.479 193.89 581.519 192.69C583.579 191.47 585.999 190.86 588.779 190.86C590.879 190.86 592.669 191.19 594.149 191.85C595.629 192.51 596.859 193.39 597.839 194.49C598.819 195.57 599.589 196.79 600.149 198.15C600.709 199.49 601.099 200.86 601.319 202.26C601.559 203.64 601.679 204.95 601.679 206.19V224.1H596.279ZM573.179 224.1V191.7H577.979V200.37H578.579V224.1H573.179Z" fill="#FDFDFD"/>
<path d="M620.788 239.4C619.088 239.4 617.428 239.14 615.808 238.62C614.188 238.1 612.698 237.31 611.338 236.25C609.998 235.21 608.878 233.89 607.978 232.29L612.868 229.71C613.668 231.29 614.798 232.44 616.258 233.16C617.738 233.88 619.258 234.24 620.818 234.24C622.878 234.24 624.588 233.86 625.948 233.1C627.308 232.36 628.308 231.25 628.948 229.77C629.608 228.29 629.928 226.45 629.908 224.25V215.4H630.538V191.7H635.278V224.31C635.278 225.19 635.248 226.04 635.188 226.86C635.148 227.68 635.048 228.49 634.888 229.29C634.468 231.59 633.638 233.48 632.398 234.96C631.158 236.46 629.558 237.57 627.598 238.29C625.638 239.03 623.368 239.4 620.788 239.4ZM620.398 225C617.378 225 614.788 224.25 612.628 222.75C610.468 221.23 608.798 219.18 607.618 216.6C606.458 214.02 605.878 211.11 605.878 207.87C605.878 204.63 606.458 201.72 607.618 199.14C608.798 196.56 610.468 194.53 612.628 193.05C614.788 191.55 617.368 190.8 620.368 190.8C623.428 190.8 625.998 191.54 628.078 193.02C630.158 194.5 631.728 196.53 632.788 199.11C633.868 201.69 634.408 204.61 634.408 207.87C634.408 211.09 633.868 214 632.788 216.6C631.728 219.18 630.158 221.23 628.078 222.75C625.998 224.25 623.438 225 620.398 225ZM621.058 220.11C623.238 220.11 625.028 219.59 626.428 218.55C627.828 217.49 628.858 216.04 629.518 214.2C630.198 212.34 630.538 210.23 630.538 207.87C630.538 205.47 630.198 203.36 629.518 201.54C628.858 199.7 627.838 198.27 626.458 197.25C625.078 196.21 623.328 195.69 621.208 195.69C619.008 195.69 617.188 196.23 615.748 197.31C614.328 198.39 613.268 199.85 612.568 201.69C611.888 203.53 611.548 205.59 611.548 207.87C611.548 210.17 611.898 212.25 612.598 214.11C613.298 215.95 614.348 217.41 615.748 218.49C617.168 219.57 618.938 220.11 621.058 220.11Z" fill="#FDFDFD"/>
<path d="M655.895 225C652.715 225 649.935 224.3 647.555 222.9C645.195 221.48 643.355 219.51 642.035 216.99C640.715 214.45 640.055 211.49 640.055 208.11C640.055 204.57 640.705 201.51 642.005 198.93C643.305 196.33 645.115 194.33 647.435 192.93C649.775 191.51 652.515 190.8 655.655 190.8C658.915 190.8 661.685 191.55 663.965 193.05C666.265 194.55 667.985 196.69 669.125 199.47C670.285 202.25 670.785 205.56 670.625 209.4H665.225V207.48C665.165 203.5 664.355 200.53 662.795 198.57C661.235 196.59 658.915 195.6 655.835 195.6C652.535 195.6 650.025 196.66 648.305 198.78C646.585 200.9 645.725 203.94 645.725 207.9C645.725 211.72 646.585 214.68 648.305 216.78C650.025 218.88 652.475 219.93 655.655 219.93C657.795 219.93 659.655 219.44 661.235 218.46C662.815 217.48 664.055 216.07 664.955 214.23L670.085 216C668.825 218.86 666.925 221.08 664.385 222.66C661.865 224.22 659.035 225 655.895 225ZM643.925 209.4V205.11H667.865V209.4H643.925Z" fill="#FDFDFD"/>
<path d="M675.504 224.1V191.7H680.274V199.53L679.494 198.51C679.874 197.51 680.364 196.59 680.964 195.75C681.584 194.91 682.274 194.22 683.034 193.68C683.874 193 684.824 192.48 685.884 192.12C686.944 191.76 688.024 191.55 689.124 191.49C690.224 191.41 691.254 191.48 692.214 191.7V196.71C691.094 196.41 689.864 196.33 688.524 196.47C687.184 196.61 685.944 197.1 684.804 197.94C683.764 198.68 682.954 199.58 682.374 200.64C681.814 201.7 681.424 202.85 681.204 204.09C680.984 205.31 680.874 206.56 680.874 207.84V224.1H675.504Z" fill="#FDFDFD"/>
<path d="M707.155 224.97C703.295 224.97 700.125 224.13 697.645 222.45C695.185 220.75 693.675 218.38 693.115 215.34L698.575 214.47C699.015 216.23 700.025 217.63 701.605 218.67C703.185 219.69 705.145 220.2 707.485 220.2C709.705 220.2 711.445 219.74 712.705 218.82C713.965 217.9 714.595 216.65 714.595 215.07C714.595 214.15 714.385 213.41 713.965 212.85C713.545 212.27 712.675 211.73 711.355 211.23C710.055 210.73 708.085 210.13 705.445 209.43C702.585 208.67 700.335 207.88 698.695 207.06C697.055 206.24 695.885 205.29 695.185 204.21C694.485 203.13 694.135 201.82 694.135 200.28C694.135 198.38 694.655 196.72 695.695 195.3C696.735 193.86 698.185 192.75 700.045 191.97C701.925 191.19 704.105 190.8 706.585 190.8C709.045 190.8 711.245 191.19 713.185 191.97C715.125 192.75 716.685 193.86 717.865 195.3C719.065 196.72 719.775 198.38 719.995 200.28L714.535 201.27C714.275 199.53 713.435 198.16 712.015 197.16C710.615 196.16 708.805 195.63 706.585 195.57C704.485 195.49 702.775 195.86 701.455 196.68C700.155 197.5 699.505 198.61 699.505 200.01C699.505 200.79 699.745 201.46 700.225 202.02C700.725 202.58 701.635 203.11 702.955 203.61C704.295 204.11 706.235 204.68 708.775 205.32C711.635 206.04 713.885 206.83 715.525 207.69C717.185 208.53 718.365 209.53 719.065 210.69C719.765 211.83 720.115 213.24 720.115 214.92C720.115 218.04 718.965 220.5 716.665 222.3C714.365 224.08 711.195 224.97 707.155 224.97Z" fill="#FDFDFD"/>
<path fill-rule="evenodd" clip-rule="evenodd" d="M472.506 113.997C460.911 114.239 451.707 123.836 451.95 135.431L452.516 162.488C452.759 174.084 462.355 183.287 473.951 183.044L800.489 176.212C812.085 175.969 821.288 166.372 821.045 154.777L820.479 127.72C820.237 116.125 810.64 106.921 799.045 107.164L472.506 113.997ZM799.989 159.678C801.87 159.719 803.767 159.529 805.678 159.109L805.582 154.52C803.37 154.907 801.471 155.006 799.887 154.819C798.323 154.632 797.167 153.906 796.421 152.642C796.027 151.97 795.8 151.164 795.74 150.225C795.7 149.286 795.667 148.156 795.639 146.837L795.314 131.33L805.092 131.125L805 126.716L795.222 126.921L795.033 117.923L789.695 118.035L789.883 127.033L783.314 127.17L783.407 131.579L789.975 131.442L790.305 147.188C790.34 148.848 790.391 150.337 790.459 151.656C790.546 152.955 790.923 154.237 791.59 155.503C792.38 156.947 793.512 158.004 794.987 158.673C796.461 159.322 798.128 159.657 799.989 159.678ZM578.37 163.871L578.03 147.644C577.998 146.104 577.827 144.628 577.517 143.214C577.227 141.8 576.731 140.54 576.028 139.434C575.344 138.308 574.425 137.427 573.272 136.791C572.138 136.155 570.711 135.855 568.992 135.891C567.652 135.919 566.437 136.174 565.347 136.657C564.277 137.12 563.361 137.819 562.6 138.755C561.84 139.691 561.254 140.864 560.844 142.273C560.453 143.661 560.277 145.295 560.316 147.175L560.674 164.241L555.275 164.354L554.37 121.164L559.169 121.063L559.483 136.037C560.427 134.709 561.584 133.622 562.955 132.777C564.989 131.514 567.396 130.853 570.175 130.795C572.275 130.751 574.071 131.043 575.565 131.672C577.058 132.301 578.307 133.155 579.309 134.234C580.312 135.294 581.107 136.497 581.696 137.845C582.283 139.173 582.702 140.535 582.951 141.93C583.22 143.304 583.368 144.612 583.394 145.851L583.769 163.757L578.37 163.871ZM486.408 165.797C484.496 166.217 482.6 166.407 480.718 166.366C478.857 166.345 477.19 166.01 475.716 165.361C474.242 164.691 473.109 163.635 472.319 162.191C471.652 160.925 471.275 159.642 471.188 158.344C471.121 157.025 471.069 155.536 471.035 153.876L470.705 138.13L464.136 138.267L464.044 133.858L470.612 133.721L470.424 124.723L475.763 124.611L475.951 133.609L485.729 133.404L485.821 137.813L476.044 138.018L476.368 153.524C476.396 154.844 476.43 155.974 476.469 156.913C476.529 157.852 476.756 158.657 477.15 159.329C477.897 160.594 479.052 161.32 480.617 161.507C482.201 161.694 484.099 161.594 486.312 161.208L486.408 165.797ZM503.893 166.331C500.714 166.397 497.92 165.756 495.511 164.406C493.122 163.036 491.241 161.105 489.868 158.613C488.495 156.101 487.774 153.156 487.703 149.776C487.629 146.237 488.214 143.164 489.46 140.557C490.705 137.931 492.473 135.893 494.763 134.445C497.073 132.976 499.797 132.209 502.937 132.143C506.196 132.075 508.981 132.767 511.292 134.219C513.623 135.67 515.387 137.774 516.585 140.529C517.803 143.284 518.373 146.583 518.293 150.426L515.534 150.484L512.894 150.539L493.446 150.946C493.711 154.045 494.607 156.487 496.133 158.272C497.896 160.335 500.368 161.334 503.547 161.267C505.686 161.222 507.536 160.693 509.095 159.68C510.654 158.668 511.864 157.232 512.725 155.373L517.891 157.036C516.692 159.921 514.838 162.181 512.332 163.814C509.845 165.426 507.032 166.265 503.893 166.331ZM510.238 139.762C511.503 141.285 512.313 143.449 512.668 146.253L493.469 146.655C493.736 144.02 494.498 141.894 495.756 140.276C497.431 138.12 499.918 137.008 503.217 136.939C506.297 136.874 508.637 137.815 510.238 139.762ZM528.731 163.62C531.061 165.032 533.866 165.703 537.145 165.634C540.504 165.564 543.357 164.704 545.703 163.054C548.049 161.405 549.75 159.059 550.806 156.016L545.378 154.719C544.697 156.574 543.667 158.006 542.287 159.015C540.908 160.004 539.158 160.521 537.039 160.565C533.819 160.633 531.367 159.584 529.681 157.419C528.015 155.233 527.124 152.341 527.009 148.743C526.98 146.403 527.297 144.326 527.959 142.512C528.62 140.677 529.66 139.235 531.079 138.185C532.497 137.115 534.315 136.557 536.535 136.511C538.514 136.469 540.275 136.952 541.816 137.96C543.378 138.968 544.518 140.404 545.237 142.27L550.483 140.569C549.582 137.668 547.874 135.403 545.36 133.775C542.865 132.147 539.908 131.369 536.489 131.441C533.249 131.508 530.495 132.286 528.226 133.774C525.956 135.262 524.229 137.309 523.043 139.914C521.877 142.499 521.309 145.481 521.34 148.862C521.449 152.16 522.131 155.086 523.384 157.641C524.638 160.195 526.42 162.188 528.731 163.62ZM602.671 161.711C605.186 163.339 608.373 164.112 612.232 164.031C616.271 163.947 619.422 162.991 621.684 161.163C623.946 159.315 625.044 156.832 624.979 153.712C624.943 152.033 624.564 150.63 623.84 149.505C623.116 148.36 621.915 147.385 620.238 146.58C618.581 145.754 616.314 145.012 613.44 144.352C610.887 143.765 608.936 143.236 607.585 142.764C606.255 142.292 605.334 141.781 604.823 141.232C604.331 140.682 604.077 140.017 604.061 139.237C604.032 137.837 604.658 136.714 605.941 135.867C607.243 135.02 608.945 134.614 611.046 134.65C613.267 134.663 615.088 135.155 616.508 136.126C617.949 137.096 618.818 138.448 619.114 140.182L624.552 139.078C624.292 137.183 623.548 135.538 622.318 134.144C621.108 132.729 619.525 131.652 617.569 130.912C615.614 130.173 613.406 129.829 610.946 129.881C608.467 129.933 606.296 130.368 604.432 131.188C602.589 132.006 601.163 133.146 600.153 134.608C599.143 136.049 598.658 137.72 598.698 139.62C598.73 141.159 599.107 142.462 599.83 143.527C600.552 144.592 601.742 145.517 603.399 146.303C605.055 147.088 607.322 147.831 610.197 148.531C612.851 149.175 614.833 149.734 616.143 150.206C617.473 150.679 618.355 151.2 618.787 151.771C619.218 152.323 619.444 153.058 619.463 153.978C619.496 155.557 618.892 156.82 617.652 157.767C616.411 158.713 614.681 159.209 612.462 159.256C610.122 159.305 608.152 158.836 606.551 157.849C604.95 156.842 603.911 155.464 603.434 153.713L597.993 154.698C598.617 157.725 600.176 160.063 602.671 161.711ZM642.301 163.372C640.222 163.415 638.425 163.123 636.911 162.494C635.418 161.865 634.17 161.011 633.167 159.932C632.164 158.853 631.369 157.649 630.781 156.321C630.193 154.993 629.764 153.632 629.495 152.237C629.246 150.842 629.108 149.535 629.083 148.315L628.708 130.409L634.107 130.296L634.446 146.522C634.478 148.042 634.649 149.509 634.959 150.923C635.268 152.336 635.765 153.606 636.449 154.732C637.153 155.858 638.071 156.739 639.205 157.375C640.358 158.011 641.785 158.311 643.485 158.276C644.824 158.248 646.039 157.992 647.129 157.509C648.219 157.026 649.145 156.327 649.906 155.411C650.667 154.474 651.242 153.302 651.633 151.894C652.023 150.485 652.199 148.851 652.16 146.992L651.803 129.925L657.172 129.813L657.85 162.206L653.081 162.306L652.993 158.11C652.051 159.452 650.884 160.556 649.492 161.421C647.477 162.663 645.08 163.313 642.301 163.372ZM671.618 160.567C673.729 162.023 676.304 162.719 679.344 162.656C682.363 162.592 684.937 161.788 687.065 160.243C689.213 158.678 690.839 156.594 691.945 153.99C693.051 151.386 693.57 148.465 693.502 145.225C693.434 141.986 692.793 139.089 691.579 136.534C690.366 133.979 688.653 131.984 686.443 130.55C684.252 129.095 681.657 128.4 678.657 128.463C675.618 128.526 673.064 129.32 670.996 130.843C670.092 131.515 669.288 132.292 668.584 133.173L668.509 129.575L663.74 129.675L664.72 176.465L670.089 176.352L669.724 158.966C670.305 159.556 670.936 160.09 671.618 160.567ZM668.847 145.755C668.898 148.109 669.272 150.207 669.97 152.05C670.688 153.875 671.758 155.303 673.18 156.333C674.601 157.344 676.402 157.826 678.581 157.781C680.721 157.736 682.479 157.159 683.856 156.05C685.233 154.941 686.253 153.459 686.914 151.605C687.575 149.73 687.881 147.644 687.833 145.344C687.785 143.065 687.392 141.012 686.654 139.187C685.935 137.362 684.845 135.925 683.383 134.875C681.94 133.825 680.12 133.323 677.92 133.369C675.821 133.413 674.092 133.969 672.734 135.038C671.376 136.087 670.376 137.538 669.734 139.392C669.094 141.222 668.798 143.334 668.847 145.728L668.847 145.742L668.847 145.755ZM713.513 161.94C710.473 162.004 707.898 161.307 705.787 159.851C705.105 159.374 704.474 158.841 703.893 158.251L704.258 175.637L698.889 175.749L697.909 128.959L702.678 128.86L702.753 132.458C703.457 131.576 704.261 130.799 705.165 130.128C707.233 128.604 709.787 127.81 712.827 127.747C715.826 127.684 718.421 128.38 720.612 129.834C722.822 131.268 724.535 133.263 725.748 135.818C726.962 138.373 727.603 141.27 727.671 144.51C727.739 147.749 727.22 150.67 726.114 153.274C725.008 155.878 723.382 157.962 721.234 159.528C719.106 161.073 716.532 161.877 713.513 161.94ZM704.139 151.334C703.441 149.492 703.067 147.394 703.017 145.04L703.016 145.026L703.016 145.012C702.967 142.618 703.263 140.506 703.903 138.676C704.545 136.822 705.545 135.371 706.903 134.322C708.261 133.254 709.99 132.697 712.089 132.653C714.289 132.607 716.11 133.109 717.552 134.159C719.014 135.209 720.105 136.646 720.823 138.472C721.561 140.297 721.954 142.349 722.002 144.628C722.05 146.928 721.744 149.015 721.083 150.889C720.422 152.743 719.402 154.225 718.025 155.334C716.648 156.443 714.89 157.02 712.751 157.065C710.571 157.11 708.771 156.628 707.349 155.618C705.927 154.587 704.857 153.159 704.139 151.334ZM738.218 159.232C740.588 160.643 743.383 161.314 746.602 161.247C749.821 161.179 752.586 160.401 754.895 158.913C757.204 157.404 758.961 155.357 760.168 152.771C761.373 150.165 761.941 147.172 761.87 143.793C761.8 140.454 761.108 137.518 759.795 134.985C758.501 132.431 756.669 130.459 754.3 129.069C751.93 127.658 749.125 126.986 745.886 127.054C742.727 127.12 739.992 127.898 737.683 129.387C735.373 130.855 733.605 132.883 732.379 135.469C731.153 138.055 730.576 141.048 730.647 144.447C730.717 147.787 731.409 150.733 732.722 153.286C734.036 155.839 735.868 157.821 738.218 159.232ZM753.924 152.662C752.331 154.935 749.855 156.108 746.496 156.178C743.237 156.246 740.744 155.198 739.018 153.034C737.293 150.869 736.392 147.968 736.315 144.328C736.266 141.969 736.582 139.882 737.265 138.067C737.947 136.253 739.007 134.82 740.445 133.77C741.884 132.719 743.732 132.171 745.992 132.123C749.311 132.054 751.824 133.091 753.529 135.236C755.234 137.361 756.124 140.253 756.201 143.912C756.276 147.471 755.517 150.388 753.924 152.662ZM767.014 159.919L766.335 127.526L771.104 127.426L771.212 132.562C771.415 132.182 771.637 131.815 771.879 131.461C772.481 130.608 773.157 129.904 773.905 129.348C774.731 128.651 775.67 128.111 776.722 127.729C777.774 127.347 778.849 127.114 779.948 127.031C781.046 126.928 782.077 126.976 783.042 127.176L783.147 132.185C782.021 131.909 780.789 131.854 779.452 132.022C778.116 132.19 776.886 132.706 775.764 133.57C774.74 134.332 773.949 135.248 773.391 136.32C772.853 137.392 772.488 138.55 772.294 139.794C772.099 141.018 772.015 142.27 772.042 143.55L772.383 159.807L767.014 159.919Z" fill="#FDFDFD"/>
</svg>
