<svg width="1120" height="483" viewBox="0 0 1120 483" fill="none" xmlns="http://www.w3.org/2000/svg">
<mask id="mask0_171_39944" style="mask-type:alpha" maskUnits="userSpaceOnUse" x="0" y="0" width="1120" height="483">
<rect width="1120" height="483" rx="21" fill="url(#paint0_diamond_171_39944)" fill-opacity="0.5"/>
</mask>
<g mask="url(#mask0_171_39944)">
<path fill-rule="evenodd" clip-rule="evenodd" d="M727.768 284.253C744.126 208.292 805.96 58.3389 922.43 66.2081C1066.13 75.917 1072.77 183.051 1077.64 261.498C1077.7 262.53 1077.77 263.557 1077.83 264.579C1081.76 327.534 1079.47 478.799 1077.83 544.922H961.69V244.906C960.054 210.478 945.536 191.934 922.43 190.805C859.947 187.75 810.242 423.491 789.187 523.346C787.643 530.674 786.252 537.269 785.022 542.985H726.098C726.095 543.085 726.093 543.184 726.09 543.283H616.491V244.906C614.855 210.478 600.338 191.934 577.231 190.805C515.741 187.799 469.376 405.036 445.7 515.964C443.552 526.027 441.592 535.214 439.823 543.283H390.749L390.748 543.275H286.074L237 74.3973H371.137L390.073 255.324C413.943 175.754 474.216 59.2479 577.231 66.2081C715.31 75.5374 720.96 174.822 725.362 252.172V252.173C725.602 256.379 725.837 260.521 726.09 264.579C726.627 273.177 727.047 283.391 727.369 294.788L727.768 284.253Z" fill="#13131A" fill-opacity="0.05"/>
</g>
<defs>
<radialGradient id="paint0_diamond_171_39944" cx="0" cy="0" r="1" gradientUnits="userSpaceOnUse" gradientTransform="translate(919.333 -12.7229) rotate(164.905) scale(1430.7 2120.72)">
<stop stop-color="#F3E7E9"/>
<stop offset="0.0001" stop-color="#F3E7E9"/>
<stop offset="0.921875" stop-color="#E3EEFF"/>
</radialGradient>
</defs>
</svg>
