<svg width="789" height="134" viewBox="0 0 789 134" fill="none" xmlns="http://www.w3.org/2000/svg">
<path fill-rule="evenodd" clip-rule="evenodd" d="M148.832 63.1896C137.237 63.4323 128.034 73.0289 128.276 84.6244L128.862 112.618C129.105 124.214 138.701 133.417 150.297 133.174L737.168 120.894C748.764 120.652 757.967 111.055 757.724 99.4594L757.138 71.4656C756.896 59.8701 747.299 50.6668 735.704 50.9095L148.832 63.1896ZM737.365 103.258C739.246 103.298 741.143 103.109 743.054 102.688L742.958 98.0995C740.746 98.4859 738.848 98.5857 737.263 98.3988C735.699 98.2115 734.544 97.4856 733.797 96.2209C733.403 95.549 733.176 94.7436 733.116 93.8046C733.076 92.8653 733.043 91.7357 733.015 90.416L732.69 74.9094L742.468 74.7046L742.376 70.2956L732.598 70.5004L732.41 61.5024L727.071 61.6142L727.259 70.6122L720.691 70.7498L720.783 75.1588L727.352 75.0213L727.681 90.7678C727.716 92.4274 727.767 93.9167 727.835 95.2356C727.922 96.534 728.299 97.8164 728.966 99.0827C729.756 100.526 730.889 101.583 732.363 102.252C733.837 102.902 735.504 103.237 737.365 103.258ZM241.057 69.5442L241.173 75.063L246.512 74.9512L246.396 69.4324L241.057 69.5442ZM241.293 80.7918L241.971 113.185L247.31 113.073L246.632 80.6799L241.293 80.7918ZM149.901 113.763C152.012 115.219 154.587 115.915 157.626 115.852C160.645 115.788 163.219 114.984 165.347 113.439C167.495 111.874 169.122 109.79 170.227 107.186C171.333 104.582 171.852 101.661 171.784 98.4213C171.716 95.182 171.076 92.2848 169.862 89.7297C168.648 87.1745 166.936 85.1799 164.725 83.7459C162.534 82.2915 159.939 81.5957 156.94 81.6585C153.901 81.7222 151.347 82.5158 149.278 84.0395C148.616 84.5318 148.007 85.0804 147.452 85.6854L147.165 71.9611L141.796 72.0736L142.701 115.264L147.469 115.164L147.393 111.495C148.134 112.356 148.97 113.112 149.901 113.763ZM147.13 98.9377C147.079 96.5383 147.375 94.4216 148.017 92.5878C148.658 90.7339 149.658 89.2827 151.016 88.234C152.374 87.1653 154.103 86.609 156.202 86.565C158.402 86.519 160.223 87.0209 161.665 88.071C163.128 89.1206 164.218 90.558 164.936 92.3834C165.675 94.2083 166.068 96.2606 166.115 98.5401C166.164 100.84 165.857 102.926 165.196 104.801C164.535 106.655 163.516 108.137 162.139 109.246C160.762 110.355 159.003 110.932 156.864 110.977C154.684 111.022 152.884 110.54 151.462 109.529C150.04 108.499 148.97 107.071 148.252 105.246C147.553 103.4 147.179 101.297 147.13 98.9377ZM183.825 114.253C185.338 114.881 187.135 115.174 189.215 115.13C191.994 115.072 194.391 114.421 196.405 113.179C197.798 112.314 198.965 111.211 199.907 109.868L199.995 114.064L204.763 113.964L204.085 81.5712L198.716 81.6836L199.074 98.7499L199.074 98.7631C199.112 100.617 198.936 102.247 198.546 103.652C198.156 105.06 197.58 106.233 196.819 107.169C196.058 108.085 195.133 108.785 194.043 109.268C192.953 109.75 191.738 110.006 190.398 110.034C188.698 110.07 187.272 109.769 186.118 109.133C184.985 108.497 184.066 107.616 183.362 106.491C182.679 105.365 182.182 104.095 181.872 102.681C181.562 101.267 181.392 99.8004 181.36 98.2807L181.02 82.0543L175.621 82.1674L175.996 100.073C176.022 101.293 176.159 102.601 176.409 103.996C176.678 105.39 177.106 106.752 177.694 108.08C178.282 109.408 179.078 110.611 180.08 111.69C181.083 112.77 182.331 113.624 183.825 114.253ZM223.617 114.439C219.758 114.52 216.571 113.747 214.056 112.119C211.561 110.471 210.002 108.133 209.379 105.105L214.819 104.121C215.296 105.872 216.335 107.25 217.936 108.257C219.537 109.244 221.508 109.712 223.847 109.663C226.067 109.617 227.797 109.121 229.037 108.174C230.278 107.228 230.881 105.965 230.848 104.386C230.829 103.466 230.603 102.73 230.172 102.179C229.74 101.608 228.859 101.087 227.528 100.614C226.218 100.142 224.236 99.5831 221.582 98.9385C218.707 98.2386 216.441 97.4959 214.784 96.7104C213.127 95.9249 211.937 94.9997 211.215 93.9345C210.493 92.8694 210.115 91.5671 210.083 90.0274C210.043 88.1278 210.528 86.4573 211.538 85.0158C212.548 83.5544 213.974 82.4142 215.818 81.5955C217.681 80.7763 219.852 80.3407 222.332 80.2887C224.791 80.2372 226.999 80.5811 228.955 81.3203C230.911 82.0595 232.494 83.1366 233.703 84.5515C234.933 85.9461 235.677 87.5909 235.937 89.4858L230.499 90.59C230.203 88.8558 229.334 87.5037 227.894 86.5336C226.473 85.5632 224.652 85.0712 222.432 85.0577C220.33 85.0217 218.628 85.4274 217.326 86.2749C216.043 87.1219 215.417 88.2453 215.446 89.645C215.462 90.4248 215.716 91.0897 216.208 91.6395C216.72 92.1889 217.641 92.6997 218.971 93.172C220.321 93.6438 222.272 94.173 224.825 94.7597C227.7 95.4196 229.966 96.1623 231.623 96.9878C233.301 97.7929 234.501 98.7679 235.225 99.913C235.949 101.038 236.329 102.44 236.364 104.12C236.429 107.239 235.331 109.723 233.069 111.571C230.807 113.399 227.656 114.355 223.617 114.439ZM277.575 112.439L277.235 96.2124C277.203 94.6728 277.032 93.196 276.722 91.7822C276.432 90.368 275.936 89.1081 275.233 88.0026C274.549 86.8766 273.63 85.9957 272.477 85.3597C271.343 84.7233 269.916 84.4231 268.197 84.4591C266.857 84.4872 265.642 84.7427 264.552 85.2256C263.482 85.6882 262.566 86.3875 261.805 87.3236C261.045 88.2597 260.459 89.4323 260.049 90.8412C259.658 92.2297 259.482 93.8637 259.521 95.7433L259.879 112.81L254.48 112.923L253.801 80.5297L258.6 80.4292L258.688 84.6051C259.632 83.2772 260.789 82.1905 262.16 81.3449C264.194 80.082 266.601 79.4214 269.38 79.3632C271.48 79.3193 273.276 79.6117 274.77 80.2406C276.263 80.8694 277.512 81.7235 278.514 82.8027C279.517 83.8619 280.312 85.0655 280.901 86.4135C281.489 87.7415 281.907 89.103 282.156 90.4981C282.425 91.8728 282.573 93.18 282.599 94.4197L282.974 112.326L277.575 112.439ZM294.353 110.887C296.761 112.237 299.555 112.879 302.735 112.812C305.874 112.746 308.687 111.907 311.174 110.295C313.68 108.662 315.533 106.403 316.733 103.517L311.567 101.855C310.706 103.713 309.496 105.149 307.937 106.162C306.378 107.175 304.528 107.703 302.389 107.748C299.209 107.815 296.738 106.816 294.974 104.753C293.449 102.968 292.553 100.526 292.287 97.4275L311.736 97.0201L314.375 96.9648L317.135 96.907C317.214 93.0645 316.645 89.7657 315.427 87.0106C314.229 84.2551 312.465 82.1515 310.134 80.7C307.823 79.2481 305.038 78.5563 301.779 78.6246C298.639 78.6903 295.915 79.4576 293.605 80.9263C291.315 82.3745 289.547 84.412 288.302 87.0387C287.056 89.6453 286.47 92.7183 286.545 96.2575C286.615 99.6367 287.337 102.582 288.71 105.094C290.083 107.586 291.963 109.517 294.353 110.887ZM311.51 92.7339C311.155 89.9298 310.345 87.7663 309.08 86.2433C307.479 84.2964 305.138 83.3552 302.059 83.4197C298.76 83.4889 296.273 84.6012 294.597 86.7567C293.34 88.375 292.578 90.5014 292.311 93.136L311.51 92.7339ZM334.576 112.115C330.717 112.196 327.53 111.422 325.016 109.795C322.521 108.147 320.961 105.809 320.338 102.781L325.778 101.797C326.255 103.547 327.294 104.926 328.896 105.933C330.497 106.919 332.467 107.388 334.806 107.339C337.026 107.293 338.756 106.796 339.996 105.85C341.237 104.904 341.84 103.641 341.807 102.061C341.788 101.142 341.563 100.406 341.131 99.8551C340.699 99.284 339.818 98.7624 338.488 98.2901C337.178 97.8174 335.195 97.2588 332.541 96.6143C329.666 95.9143 327.4 95.1716 325.743 94.3862C324.086 93.6007 322.897 92.6754 322.174 91.6103C321.452 90.5452 321.074 89.2428 321.042 87.7031C321.002 85.8036 321.487 84.133 322.498 82.6916C323.507 81.2301 324.934 80.09 326.777 79.2712C328.64 78.452 330.811 78.0164 333.291 77.9645C335.75 77.913 337.958 78.2568 339.914 78.996C341.87 79.7352 343.453 80.8123 344.663 82.2273C345.892 83.6218 346.637 85.2666 346.896 87.1616L341.458 88.2657C341.162 86.5315 340.294 85.1794 338.853 84.2094C337.432 83.2389 335.612 82.7469 333.391 82.7334C331.29 82.6974 329.588 83.1032 328.285 83.9506C327.003 84.7977 326.376 85.921 326.405 87.3207C326.422 88.1006 326.676 88.7654 327.167 89.3152C327.679 89.8646 328.6 90.3754 329.93 90.8477C331.28 91.3195 333.232 91.8488 335.784 92.4354C338.659 93.0954 340.925 93.8381 342.583 94.6636C344.26 95.4686 345.461 96.4437 346.185 97.5888C346.908 98.7138 347.288 100.116 347.323 101.796C347.388 104.915 346.29 107.399 344.028 109.246C341.766 111.074 338.615 112.03 334.576 112.115ZM355.025 109.166C357.54 110.794 360.727 111.567 364.586 111.486C368.625 111.402 371.776 110.446 374.038 108.618C376.3 106.77 377.398 104.287 377.333 101.167C377.298 99.4876 376.918 98.0852 376.195 96.9601C375.47 95.8151 374.27 94.84 372.592 94.0349C370.935 93.2095 368.669 92.4668 365.794 91.8068C363.241 91.2201 361.29 90.6909 359.94 90.2191C358.61 89.7468 357.689 89.236 357.177 88.6866C356.685 88.1368 356.431 87.4719 356.415 86.6921C356.386 85.2924 357.012 84.1691 358.295 83.322C359.598 82.4745 361.299 82.0688 363.401 82.1048C365.621 82.1183 367.442 82.6103 368.863 83.5808C370.303 84.5508 371.172 85.9029 371.468 87.6371L376.906 86.5329C376.647 84.638 375.902 82.9932 374.672 81.5986C373.463 80.1837 371.88 79.1066 369.924 78.3674C367.968 77.6282 365.76 77.2843 363.301 77.3359C360.821 77.3878 358.65 77.8234 356.787 78.6426C354.943 79.4614 353.517 80.6015 352.507 82.0629C351.497 83.5044 351.012 85.1749 351.052 87.0745C351.084 88.6142 351.462 89.9166 352.184 90.9817C352.907 92.0468 354.096 92.9721 355.753 93.7575C357.41 94.543 359.676 95.2857 362.551 95.9857C365.205 96.6302 367.187 97.1888 368.498 97.6615C369.828 98.1337 370.709 98.6554 371.141 99.2265C371.573 99.7776 371.798 100.513 371.817 101.433C371.85 103.012 371.247 104.275 370.006 105.222C368.766 106.168 367.036 106.664 364.816 106.711C362.477 106.76 360.506 106.291 358.905 105.304C357.304 104.297 356.265 102.919 355.788 101.168L350.348 102.153C350.971 105.18 352.53 107.518 355.025 109.166ZM431.271 109.219L430.867 88.4933C430.817 86.0738 430.127 84.1979 428.799 82.8654C427.49 81.5125 425.806 80.8576 423.747 80.9008C422.547 80.9259 421.413 81.2297 420.345 81.8122C419.277 82.3747 418.415 83.2529 417.76 84.4469C417.104 85.6209 416.795 87.1177 416.834 88.9373L416.832 88.9367L417.235 109.513L411.926 109.625L411.526 89.1085C411.474 86.629 410.794 84.7029 409.484 83.33C408.175 81.9371 406.461 81.2629 404.341 81.3073C402.241 81.3512 400.557 82.1067 399.287 83.5736C398.018 85.0405 397.408 86.9637 397.458 89.3432L397.889 109.919L392.52 110.031L391.841 77.6382L396.61 77.5383L396.683 80.9842C397.56 79.7989 398.66 78.8268 399.982 78.0678C401.682 77.072 403.621 76.5513 405.801 76.5056C407.98 76.46 409.889 76.8801 411.528 77.766C413.167 78.6515 414.444 79.9443 415.359 81.6445C416.315 79.9573 417.618 78.6304 419.268 77.6638C420.967 76.668 422.897 76.1475 425.057 76.1023C428.436 76.0315 431.117 77.0056 433.1 79.0245C435.082 81.0234 436.109 83.7525 436.182 87.2117L436.61 109.108L431.271 109.219ZM445.764 108.496C447.422 109.341 449.46 109.739 451.88 109.688C455.019 109.622 457.665 108.897 459.816 107.511C461.394 106.504 462.706 105.165 463.753 103.493L463.858 108.537L468.597 108.438L468.178 88.4019C468.151 87.1222 468.065 85.9037 467.921 84.7465C467.776 83.5693 467.464 82.4856 466.983 81.4954C466.019 79.3952 464.466 77.8473 462.324 76.852C460.203 75.8362 457.672 75.3591 454.733 75.4206C451.074 75.4973 448.141 76.3689 445.936 78.0354C443.73 79.702 442.267 81.9631 441.547 84.8188L446.648 86.2423C447.206 84.2302 448.205 82.769 449.647 81.8586C451.107 80.9278 452.818 80.4418 454.777 80.4008C457.736 80.3388 459.83 80.9851 461.059 82.3397C462.183 83.5583 462.801 85.395 462.914 87.8499C461.78 88.0304 460.594 88.216 459.356 88.4067C457.402 88.7077 455.468 89.0382 453.555 89.3984C451.662 89.7381 449.95 90.134 448.419 90.5862C446.789 91.1004 445.394 91.7898 444.231 92.6543C443.069 93.4989 442.171 94.5579 441.537 95.8315C440.923 97.0846 440.634 98.561 440.67 100.261C440.706 102 441.15 103.591 442 105.034C442.871 106.476 444.125 107.63 445.764 108.496ZM457.554 104.078C456.168 104.787 454.516 105.162 452.596 105.202C451.056 105.234 449.801 105.01 448.831 104.531C447.881 104.05 447.167 103.415 446.691 102.625C446.234 101.834 445.997 100.999 445.978 100.119C445.957 99.0996 446.169 98.245 446.615 97.5555C447.08 96.8456 447.688 96.2627 448.438 95.8069C449.209 95.3507 450.031 94.9734 450.905 94.675C452.098 94.31 453.441 93.9918 454.936 93.7204C456.43 93.429 458.015 93.1558 459.69 92.9007C460.761 92.7376 461.843 92.5702 462.938 92.3985C462.939 92.9054 462.935 93.5003 462.928 94.1831C462.933 95.4033 462.796 96.5164 462.517 97.5225C462.286 98.8676 461.752 100.119 460.916 101.277C460.079 102.415 458.959 103.348 457.554 104.078ZM497.661 107.829L497.321 91.6023C497.289 90.0626 497.118 88.5859 496.808 87.1721C496.518 85.7578 496.022 84.4979 495.319 83.3924C494.635 82.2665 493.716 81.3855 492.563 80.7496C491.429 80.1132 490.003 79.813 488.283 79.849C486.943 79.877 485.728 80.1325 484.638 80.6155C483.568 81.078 482.652 81.7773 481.892 82.7135C481.131 83.6496 480.545 84.8221 480.135 86.231C479.745 87.6149 479.569 89.2428 479.607 91.1146L479.607 91.1331L479.965 108.199L474.566 108.312L473.888 75.9196L478.686 75.8191L478.774 79.9949C479.718 78.6671 480.875 77.5804 482.246 76.7347C484.28 75.4718 486.687 74.8113 489.466 74.7531C491.566 74.7091 493.363 75.0015 494.856 75.6304C496.35 76.2593 497.598 77.1133 498.601 78.1925C499.603 79.2518 500.398 80.4554 500.987 81.8034C501.575 83.1313 501.993 84.4929 502.242 85.888C502.511 87.2626 502.659 88.5698 502.685 89.8096L503.06 107.716L497.661 107.829ZM512.168 107.105C513.827 107.95 515.865 108.348 518.285 108.297C521.424 108.231 524.07 107.506 526.221 106.12C527.799 105.113 529.111 103.774 530.158 102.102L530.263 107.146L535.002 107.047L534.583 87.0109C534.556 85.7312 534.47 84.5127 534.326 83.3555C534.181 82.1783 533.869 81.0946 533.388 80.1044C532.423 78.0042 530.871 76.4564 528.729 75.461C526.608 74.4452 524.077 73.9681 521.138 74.0297C517.479 74.1063 514.546 74.9779 512.341 76.6445C510.135 78.311 508.672 80.5721 507.952 83.4279L513.053 84.8513C513.611 82.8392 514.61 81.378 516.052 80.4676C517.512 79.5368 519.223 79.0509 521.182 79.0098C524.141 78.9478 526.235 79.5941 527.464 80.9487C528.588 82.1673 529.206 84.0041 529.319 86.4589C528.185 86.6394 526.999 86.825 525.761 87.0157C523.807 87.3167 521.873 87.6472 519.96 88.0074C518.067 88.3471 516.355 88.743 514.824 89.1952C513.194 89.7094 511.799 90.3988 510.636 91.2634C509.474 92.1079 508.576 93.1669 507.942 94.4405C507.328 95.6936 507.039 97.17 507.075 98.8696C507.111 100.609 507.555 102.2 508.405 103.643C509.276 105.085 510.53 106.239 512.168 107.105ZM523.959 102.687C522.573 103.396 520.921 103.771 519.001 103.811C517.461 103.843 516.206 103.619 515.236 103.14C514.286 102.659 513.572 102.024 513.096 101.234C512.639 100.443 512.402 99.6082 512.383 98.7284C512.362 97.7086 512.574 96.854 513.02 96.1645C513.485 95.4546 514.093 94.8718 514.843 94.4159C515.614 93.9597 516.436 93.5824 517.31 93.284C518.503 92.919 519.846 92.6008 521.341 92.3294C522.835 92.0381 524.42 91.7648 526.095 91.5097C527.165 91.3466 528.248 91.1792 529.343 91.0075C529.344 91.5144 529.34 92.1093 529.333 92.7921C529.338 94.0123 529.201 95.1254 528.922 96.1315C528.69 97.4766 528.157 98.7281 527.321 99.8858C526.484 101.024 525.364 101.957 523.959 102.687ZM554.429 121.943C552.729 121.979 551.064 121.753 549.433 121.267C547.803 120.781 546.297 120.023 544.915 118.992C543.553 117.98 542.406 116.684 541.472 115.103L546.307 112.421C547.14 113.984 548.294 115.11 549.769 115.799C551.264 116.488 552.791 116.816 554.35 116.783C556.41 116.74 558.112 116.325 559.455 115.536C560.8 114.768 561.776 113.637 562.385 112.144C563.014 110.651 563.295 108.804 563.229 106.605L563.164 103.495C562.618 104.097 562.02 104.647 561.368 105.144C559.32 106.687 556.776 107.491 553.737 107.554C550.718 107.618 548.113 106.922 545.922 105.468C543.73 103.993 542.018 101.979 540.784 99.4238C539.57 96.8686 538.929 93.9714 538.861 90.7321C538.794 87.4928 539.313 84.5713 540.418 81.9676C541.544 79.3635 543.171 77.2989 545.3 75.774C547.428 74.2291 549.991 73.4253 552.991 73.3624C556.05 73.2983 558.635 73.9844 560.746 75.4205C561.679 76.0555 562.515 76.8001 563.253 77.6543L563.177 74.0492L567.916 73.95L568.599 106.553C568.618 107.433 568.606 108.283 568.563 109.104C568.54 109.925 568.457 110.737 568.314 111.54C567.942 113.848 567.152 115.755 565.943 117.261C564.735 118.786 563.158 119.93 561.214 120.691C559.27 121.471 557.008 121.889 554.429 121.943ZM562.629 96.5657C563.267 94.6985 563.563 92.5903 563.517 90.241L563.516 90.2157L563.516 90.1902C563.463 87.8013 563.079 85.7074 562.364 83.9084C561.665 82.0827 560.616 80.6743 559.215 79.6835C557.813 78.6726 556.053 78.1894 553.933 78.2338C551.734 78.2798 549.925 78.8578 548.508 79.9678C547.111 81.0773 546.082 82.5591 545.421 84.4134C544.779 86.2672 544.482 88.3339 544.53 90.6134C544.578 92.9129 544.972 94.9851 545.711 96.83C546.449 98.655 547.529 100.093 548.952 101.143C550.394 102.193 552.175 102.696 554.294 102.652C556.474 102.606 558.253 102.049 559.631 100.979C561.008 99.8903 562.008 98.4191 562.629 96.5657ZM580.844 104.886C583.252 106.236 586.047 106.878 589.226 106.811C592.365 106.745 595.178 105.906 597.665 104.294C600.171 102.661 602.024 100.401 603.224 97.5157L598.058 95.8535C597.197 97.712 595.987 99.1476 594.428 100.161C592.869 101.173 591.019 101.702 588.88 101.747C585.7 101.814 583.229 100.815 581.465 98.7517C579.94 96.9667 579.044 94.5249 578.778 91.4263L598.227 91.0189L600.866 90.9637L603.626 90.9059C603.705 87.0633 603.136 83.7645 601.918 81.0094C600.72 78.2539 598.956 76.1504 596.625 74.6989C594.314 73.247 591.529 72.5552 588.27 72.6234C585.13 72.6892 582.406 73.4564 580.096 74.9251C577.806 76.3734 576.038 78.4109 574.793 81.0375C573.547 83.6442 572.961 86.7171 573.036 90.2563C573.106 93.6356 573.828 96.5811 575.201 99.0929C576.574 101.585 578.454 103.516 580.844 104.886ZM598.001 86.7327C597.646 83.9287 596.836 81.7651 595.571 80.2422C593.97 78.2953 591.629 77.3541 588.55 77.4186C585.251 77.4877 582.764 78.6001 581.088 80.7556C579.831 82.3738 579.069 84.5003 578.802 87.1349L598.001 86.7327ZM646.655 104.708L646.25 83.9817C646.2 81.5622 645.51 79.6862 644.182 78.3537C642.874 77.0009 641.19 76.346 639.13 76.3891C637.93 76.4143 636.796 76.7181 635.728 77.3006C634.66 77.8631 633.798 78.7413 633.143 79.9353C632.487 81.1093 632.179 82.6061 632.217 84.4257L632.215 84.425L632.618 105.002L627.309 105.113L626.909 84.5969C626.857 82.1174 626.177 80.1912 624.868 78.8183C623.558 77.4255 621.844 76.7512 619.724 76.7956C617.625 76.8396 615.94 77.595 614.671 79.062C613.401 80.5289 612.791 82.4521 612.841 84.8315L613.272 105.407L607.903 105.519L607.225 73.1266L611.994 73.0267L612.066 76.4726C612.943 75.2873 614.043 74.3152 615.365 73.5562C617.065 72.5604 619.004 72.0396 621.184 71.994C623.364 71.9483 625.273 72.3684 626.912 73.2543C628.55 74.1398 629.827 75.4327 630.743 77.1328C631.699 75.4457 633.002 74.1188 634.651 73.1522C636.351 72.1564 638.28 71.6359 640.44 71.5906C643.819 71.5199 646.5 72.4939 648.483 74.5128C650.465 76.5118 651.492 79.2409 651.565 82.7001L651.993 104.596L646.655 104.708ZM663.417 103.156C665.826 104.506 668.62 105.148 671.799 105.081C674.938 105.015 677.751 104.176 680.238 102.564C682.745 100.931 684.598 98.6718 685.798 95.786L680.632 94.1239C679.77 95.9823 678.56 97.418 677.001 98.4308C675.442 99.4437 673.593 99.9726 671.453 100.017C668.274 100.084 665.802 99.0855 664.039 97.022C662.513 95.237 661.617 92.7953 661.352 89.6967L680.8 89.2893L683.44 89.234L686.199 89.1762C686.279 85.3337 685.71 82.0349 684.492 79.2798C683.294 76.5243 681.529 74.4208 679.198 72.9692C676.887 71.5173 674.102 70.8255 670.843 70.8938C667.704 70.9595 664.979 71.7268 662.669 73.1955C660.379 74.6437 658.611 76.6812 657.366 79.3079C656.12 81.9145 655.535 84.9875 655.609 88.5267C655.68 91.9059 656.401 94.8515 657.774 97.3633C659.147 99.8551 661.028 101.786 663.417 103.156ZM680.574 85.0031C680.219 82.199 679.409 80.0355 678.144 78.5125C676.543 76.5656 674.203 75.6244 671.123 75.689C667.824 75.7581 665.337 76.8704 663.662 79.026C662.404 80.6442 661.642 82.7706 661.375 85.4052L680.574 85.0031ZM713.571 103.306L713.232 87.0796C713.199 85.5399 713.028 84.0632 712.719 82.6494C712.429 81.2351 711.932 79.9753 711.229 78.8697C710.545 77.7438 709.627 76.8629 708.473 76.2269C707.34 75.5905 705.913 75.2903 704.193 75.3263C702.854 75.3544 701.639 75.6099 700.549 76.0928C699.478 76.5553 698.563 77.2547 697.802 78.1908C697.041 79.1269 696.456 80.2994 696.045 81.7083C695.656 83.0921 695.48 84.7196 695.517 86.5911L695.518 86.6105L695.875 103.677L690.477 103.79L689.798 71.3969L694.597 71.2964L694.684 75.4722C695.628 74.1444 696.786 73.0577 698.157 72.212C700.191 70.9492 702.598 70.2886 705.377 70.2304C707.476 70.1864 709.273 70.4789 710.766 71.1077C712.26 71.7366 713.508 72.5906 714.511 73.6699C715.513 74.7291 716.309 75.9327 716.897 77.2807C717.485 78.6087 717.904 79.9702 718.153 81.3653C718.422 82.74 718.569 84.0472 718.595 85.2869L718.97 103.193L713.571 103.306Z" fill="#FDFDFD"/>
<path d="M261.143 53.87C257.283 53.87 254.113 53.03 251.633 51.35C249.173 49.65 247.663 47.28 247.103 44.24L252.563 43.37C253.003 45.13 254.013 46.53 255.593 47.57C257.173 48.59 259.133 49.1 261.473 49.1C263.693 49.1 265.433 48.64 266.693 47.72C267.953 46.8 268.583 45.55 268.583 43.97C268.583 43.05 268.373 42.31 267.953 41.75C267.533 41.17 266.663 40.63 265.343 40.13C264.043 39.63 262.073 39.03 259.433 38.33C256.573 37.57 254.323 36.78 252.683 35.96C251.043 35.14 249.873 34.19 249.173 33.11C248.473 32.03 248.123 30.72 248.123 29.18C248.123 27.28 248.643 25.62 249.683 24.2C250.723 22.76 252.173 21.65 254.033 20.87C255.913 20.09 258.093 19.7 260.573 19.7C263.033 19.7 265.233 20.09 267.173 20.87C269.113 21.65 270.673 22.76 271.853 24.2C273.053 25.62 273.763 27.28 273.983 29.18L268.523 30.17C268.263 28.43 267.423 27.06 266.003 26.06C264.603 25.06 262.793 24.53 260.573 24.47C258.473 24.39 256.763 24.76 255.443 25.58C254.143 26.4 253.493 27.51 253.493 28.91C253.493 29.69 253.733 30.36 254.213 30.92C254.713 31.48 255.623 32.01 256.943 32.51C258.283 33.01 260.223 33.58 262.763 34.22C265.623 34.94 267.873 35.73 269.513 36.59C271.173 37.43 272.353 38.43 273.053 39.59C273.753 40.73 274.103 42.14 274.103 43.82C274.103 46.94 272.953 49.4 270.653 51.2C268.353 52.98 265.183 53.87 261.143 53.87ZM279.519 14.87V9.35H284.859V14.87H279.519ZM279.519 53V20.6H284.859V53H279.519ZM367.266 53.9C364.226 53.9 361.666 53.15 359.586 51.65C357.506 50.13 355.926 48.08 354.846 45.5C353.786 42.9 353.256 39.99 353.256 36.77C353.256 33.51 353.786 30.59 354.846 28.01C355.926 25.43 357.506 23.4 359.586 21.92C361.686 20.44 364.256 19.7 367.296 19.7C370.296 19.7 372.876 20.45 375.036 21.95C377.216 23.43 378.886 25.46 380.046 28.04C381.206 30.62 381.786 33.53 381.786 36.77C381.786 40.01 381.206 42.92 380.046 45.5C378.886 48.08 377.216 50.13 375.036 51.65C372.876 53.15 370.286 53.9 367.266 53.9ZM352.356 67.4V20.6H357.126V44.45H357.726V67.4H352.356ZM366.606 49.01C368.746 49.01 370.516 48.47 371.916 47.39C373.316 46.31 374.366 44.85 375.066 43.01C375.766 41.15 376.116 39.07 376.116 36.77C376.116 34.49 375.766 32.43 375.066 30.59C374.386 28.75 373.326 27.29 371.886 26.21C370.466 25.13 368.656 24.59 366.456 24.59C364.356 24.59 362.616 25.11 361.236 26.15C359.856 27.17 358.826 28.6 358.146 30.44C357.466 32.26 357.126 34.37 357.126 36.77C357.126 39.13 357.456 41.24 358.116 43.1C358.796 44.94 359.836 46.39 361.236 47.45C362.636 48.49 364.426 49.01 366.606 49.01ZM387.163 53V8.9H392.503V53H387.163ZM413.744 53.9C410.564 53.9 407.784 53.2 405.404 51.8C403.044 50.38 401.204 48.41 399.884 45.89C398.564 43.35 397.904 40.39 397.904 37.01C397.904 33.47 398.554 30.41 399.854 27.83C401.154 25.23 402.964 23.23 405.284 21.83C407.624 20.41 410.364 19.7 413.504 19.7C416.764 19.7 419.534 20.45 421.814 21.95C424.114 23.45 425.834 25.59 426.974 28.37C428.134 31.15 428.634 34.46 428.474 38.3H423.074V36.38C423.014 32.4 422.204 29.43 420.644 27.47C419.084 25.49 416.764 24.5 413.684 24.5C410.384 24.5 407.874 25.56 406.154 27.68C404.434 29.8 403.574 32.84 403.574 36.8C403.574 40.62 404.434 43.58 406.154 45.68C407.874 47.78 410.324 48.83 413.504 48.83C415.644 48.83 417.504 48.34 419.084 47.36C420.664 46.38 421.904 44.97 422.804 43.13L427.934 44.9C426.674 47.76 424.774 49.98 422.234 51.56C419.714 53.12 416.884 53.9 413.744 53.9ZM401.774 38.3V34.01H425.714V38.3H401.774ZM461.655 53C459.735 53.38 457.835 53.53 455.955 53.45C454.095 53.39 452.435 53.02 450.975 52.34C449.515 51.64 448.405 50.56 447.645 49.1C447.005 47.82 446.655 46.53 446.595 45.23C446.555 43.91 446.535 42.42 446.535 40.76V11.6H451.875V40.52C451.875 41.84 451.885 42.97 451.905 43.91C451.945 44.85 452.155 45.66 452.535 46.34C453.255 47.62 454.395 48.37 455.955 48.59C457.535 48.81 459.435 48.75 461.655 48.41V53ZM439.965 25.01V20.6H461.655V25.01H439.965ZM478.886 53.9C475.666 53.9 472.886 53.17 470.546 51.71C468.226 50.25 466.436 48.23 465.176 45.65C463.916 43.07 463.286 40.11 463.286 36.77C463.286 33.37 463.926 30.39 465.206 27.83C466.486 25.27 468.296 23.28 470.636 21.86C472.976 20.42 475.726 19.7 478.886 19.7C482.126 19.7 484.916 20.43 487.256 21.89C489.596 23.33 491.386 25.34 492.626 27.92C493.886 30.48 494.516 33.43 494.516 36.77C494.516 40.15 493.886 43.13 492.626 45.71C491.366 48.27 489.566 50.28 487.226 51.74C484.886 53.18 482.106 53.9 478.886 53.9ZM478.886 48.83C482.246 48.83 484.746 47.71 486.386 45.47C488.026 43.23 488.846 40.33 488.846 36.77C488.846 33.11 488.016 30.2 486.356 28.04C484.696 25.86 482.206 24.77 478.886 24.77C476.626 24.77 474.766 25.28 473.306 26.3C471.846 27.32 470.756 28.73 470.036 30.53C469.316 32.33 468.956 34.41 468.956 36.77C468.956 40.41 469.796 43.33 471.476 45.53C473.156 47.73 475.626 48.83 478.886 48.83ZM513.121 53.9C509.901 53.9 507.121 53.17 504.781 51.71C502.461 50.25 500.671 48.23 499.411 45.65C498.151 43.07 497.521 40.11 497.521 36.77C497.521 33.37 498.161 30.39 499.441 27.83C500.721 25.27 502.531 23.28 504.871 21.86C507.211 20.42 509.961 19.7 513.121 19.7C516.361 19.7 519.151 20.43 521.491 21.89C523.831 23.33 525.621 25.34 526.861 27.92C528.121 30.48 528.751 33.43 528.751 36.77C528.751 40.15 528.121 43.13 526.861 45.71C525.601 48.27 523.801 50.28 521.461 51.74C519.121 53.18 516.341 53.9 513.121 53.9ZM513.121 48.83C516.481 48.83 518.981 47.71 520.621 45.47C522.261 43.23 523.081 40.33 523.081 36.77C523.081 33.11 522.251 30.2 520.591 28.04C518.931 25.86 516.441 24.77 513.121 24.77C510.861 24.77 509.001 25.28 507.541 26.3C506.081 27.32 504.991 28.73 504.271 30.53C503.551 32.33 503.191 34.41 503.191 36.77C503.191 40.41 504.031 43.33 505.711 45.53C507.391 47.73 509.861 48.83 513.121 48.83ZM534.156 53V8.9H539.496V53H534.156ZM56.3751 113V78.83C56.3751 77.99 56.4151 77.14 56.4951 76.28C56.5751 75.4 56.7551 74.55 57.0351 73.73C57.3151 72.89 57.7751 72.12 58.4151 71.42C59.1551 70.6 59.9651 70.02 60.8451 69.68C61.7251 69.32 62.6151 69.1 63.5151 69.02C64.4351 68.94 65.3051 68.9 66.1251 68.9H70.2351V73.34H66.4251C64.8451 73.34 63.6651 73.73 62.8851 74.51C62.1051 75.27 61.7151 76.43 61.7151 77.99V113H56.3751ZM50.8851 85.01V80.6H70.2351V85.01H50.8851ZM85.8515 113.9C82.6315 113.9 79.8515 113.17 77.5115 111.71C75.1915 110.25 73.4015 108.23 72.1415 105.65C70.8815 103.07 70.2515 100.11 70.2515 96.77C70.2515 93.37 70.8915 90.39 72.1715 87.83C73.4515 85.27 75.2615 83.28 77.6015 81.86C79.9415 80.42 82.6915 79.7 85.8515 79.7C89.0915 79.7 91.8815 80.43 94.2215 81.89C96.5615 83.33 98.3515 85.34 99.5915 87.92C100.852 90.48 101.482 93.43 101.482 96.77C101.482 100.15 100.852 103.13 99.5915 105.71C98.3315 108.27 96.5315 110.28 94.1915 111.74C91.8515 113.18 89.0715 113.9 85.8515 113.9ZM85.8515 108.83C89.2115 108.83 91.7115 107.71 93.3515 105.47C94.9915 103.23 95.8115 100.33 95.8115 96.77C95.8115 93.11 94.9815 90.2 93.3215 88.04C91.6615 85.86 89.1715 84.77 85.8515 84.77C83.5915 84.77 81.7315 85.28 80.2715 86.3C78.8115 87.32 77.7215 88.73 77.0015 90.53C76.2815 92.33 75.9215 94.41 75.9215 96.77C75.9215 100.41 76.7615 103.33 78.4415 105.53C80.1215 107.73 82.5915 108.83 85.8515 108.83ZM106.287 113V80.6H111.057V88.43L110.277 87.41C110.657 86.41 111.147 85.49 111.747 84.65C112.367 83.81 113.057 83.12 113.817 82.58C114.657 81.9 115.607 81.38 116.667 81.02C117.727 80.66 118.807 80.45 119.907 80.39C121.007 80.31 122.037 80.38 122.997 80.6V85.61C121.877 85.31 120.647 85.23 119.307 85.37C117.967 85.51 116.727 86 115.587 86.84C114.547 87.58 113.737 88.48 113.157 89.54C112.597 90.6 112.207 91.75 111.987 92.99C111.767 94.21 111.657 95.46 111.657 96.74V113H106.287Z" fill="#FDFDFD"/>
<path fill-rule="evenodd" clip-rule="evenodd" d="M314.409 20.0205C307.321 19.541 303.174 27.5674 301.532 33.0491L300.229 20.5846H291L294.376 52.8864H301.578L301.578 52.8871H304.955C305.076 52.3312 305.211 51.6982 305.359 51.005C306.988 43.363 310.178 28.3971 314.409 28.6042C315.999 28.682 316.997 29.9595 317.11 32.3314V52.8871H324.651C324.651 52.8802 324.651 52.8734 324.651 52.8665H328.705C328.79 52.4728 328.886 52.0184 328.992 51.5136C330.44 44.6344 333.86 28.3938 338.159 28.6042C339.749 28.682 340.748 29.9595 340.861 32.3314V53H348.851C348.964 48.4446 349.122 38.0237 348.851 33.6867C348.847 33.6163 348.843 33.5455 348.838 33.4744C348.503 28.07 348.046 20.6894 338.159 20.0205C330.146 19.4784 325.892 29.809 324.766 35.042L324.739 35.7668C324.717 34.982 324.688 34.2787 324.651 33.6867C324.633 33.4073 324.617 33.1223 324.601 32.8328L324.601 32.8319C324.298 27.5031 323.909 20.6632 314.409 20.0205Z" fill="#FDFDFD"/>
</svg>
