<svg width="27" height="16" viewBox="0 0 27 16" fill="none" xmlns="http://www.w3.org/2000/svg">
<path fill-rule="evenodd" clip-rule="evenodd" d="M15.4292 6.848C15.9433 4.46561 17.887 -0.237463 21.5479 0.00934555C26.0648 0.31385 26.2737 3.67394 26.4267 6.13433C26.4287 6.1667 26.4307 6.19892 26.4327 6.23097C26.5561 8.20544 26.4841 12.9496 26.4327 15.0235H22.782V5.61395C22.7306 4.53416 22.2743 3.95257 21.5479 3.91714C19.5839 3.82133 18.0215 11.215 17.3597 14.3468C17.3112 14.5766 17.2675 14.7835 17.2288 14.9628H15.3744C15.3743 14.9659 15.3742 14.969 15.3741 14.9721H11.9291V5.61395C11.8777 4.53416 11.4214 3.95257 10.6951 3.91714C8.76222 3.82286 7.30483 10.6362 6.56064 14.1153L6.56062 14.1154C6.49312 14.4309 6.43149 14.7191 6.37591 14.9721H4.83335L4.83334 14.9718H1.54255L0 0.266126H4.21631L4.8117 5.9421C5.56169 3.44647 7.45636 -0.208994 10.6951 0.00934555C15.0353 0.301944 15.2129 3.41585 15.3512 5.84184L15.3513 5.842C15.3588 5.97388 15.3662 6.10372 15.3741 6.23097C15.3915 6.50927 15.405 6.84159 15.4153 7.21296L15.4292 6.848Z" fill="#13131A"/>
</svg>
