<svg width="59" height="33" viewBox="0 0 59 33" fill="none" xmlns="http://www.w3.org/2000/svg">
<path fill-rule="evenodd" clip-rule="evenodd" d="M23.9088 0.020528C16.8211 -0.458978 12.6741 7.56742 11.0318 13.0491L9.72896 0.58461H0.5L3.87645 32.8864H11.0783L11.0783 32.8871H14.4548C14.5765 32.3312 14.7114 31.6982 14.8591 31.005C16.4881 23.363 19.6781 8.39712 23.9088 8.60422C25.4986 8.68204 26.4975 9.95954 26.61 12.3314V32.8871H34.1507C34.1509 32.8802 34.1511 32.8734 34.1512 32.8665H38.2053C38.2899 32.4728 38.3856 32.0184 38.4919 31.5136C39.9405 24.6344 43.3603 8.39377 47.6593 8.60422C49.2491 8.68204 50.248 9.95954 50.3605 12.3314V33H58.3514C58.464 28.4446 58.6215 18.0237 58.3514 13.6867C58.347 13.6163 58.3427 13.5455 58.3383 13.4744C58.0034 8.07001 57.5461 0.689388 47.6593 0.020528C39.6459 -0.5216 35.3916 9.80896 34.2661 15.042L34.2387 15.7668C34.2165 14.982 34.1876 14.2787 34.1507 13.6867C34.1333 13.4073 34.1171 13.1223 34.1007 12.8328L34.1006 12.8319C33.7978 7.50311 33.409 0.663236 23.9088 0.020528Z" fill="#13131A"/>
</svg>
