<svg width="449" height="189" viewBox="0 0 449 189" fill="none" xmlns="http://www.w3.org/2000/svg">
<path fill-rule="evenodd" clip-rule="evenodd" d="M164.561 61.3967C152.965 61.6394 143.762 71.236 144.005 82.8314L144.59 110.825C144.833 122.421 154.43 131.624 166.025 131.381L375.921 126.989C387.516 126.747 396.72 117.15 396.477 105.555L395.891 77.5608C395.649 65.9653 386.052 56.7621 374.457 57.0047L164.561 61.3967ZM252.414 67.8427L252.53 73.3615L257.869 73.2497L257.753 67.7309L252.414 67.8427ZM252.65 79.0902L253.328 111.483L258.667 111.371L257.989 78.9784L252.65 79.0902ZM161.258 112.061C163.369 113.518 165.944 114.214 168.983 114.15C172.003 114.087 174.576 113.283 176.704 111.738C178.852 110.173 180.479 108.088 181.585 105.484C182.69 102.881 183.209 99.9591 183.141 96.7198C183.074 93.4805 182.433 90.5833 181.219 88.0281C180.005 85.473 178.293 83.4784 176.082 82.0444C173.892 80.59 171.296 79.8942 168.297 79.957C165.258 80.0206 162.704 80.8143 160.635 82.338C159.973 82.8302 159.365 83.3789 158.809 83.9838L158.522 70.2596L153.153 70.372L154.058 113.563L158.827 113.463L158.75 109.793C159.491 110.655 160.327 111.411 161.258 112.061ZM158.487 97.2371C158.536 99.5962 158.91 101.699 159.609 103.544C160.328 105.369 161.398 106.797 162.82 107.828C164.241 108.838 166.042 109.321 168.221 109.275C170.361 109.23 172.119 108.653 173.496 107.544C174.873 106.435 175.892 104.953 176.554 103.099C177.214 101.225 177.521 99.138 177.473 96.8385C177.425 94.559 177.032 92.5068 176.293 90.6819C175.575 88.8565 174.485 87.419 173.022 86.3694C171.58 85.3194 169.759 84.8174 167.56 84.8635C165.46 84.9075 163.731 85.4638 162.373 86.5325C161.015 87.5812 160.015 89.0324 159.374 90.8862C158.732 92.7199 158.437 94.8364 158.487 97.2356L158.487 97.2362L158.487 97.2371ZM195.182 112.551C196.696 113.18 198.492 113.472 200.572 113.428C203.351 113.37 205.748 112.72 207.762 111.477C209.155 110.613 210.322 109.509 211.264 108.167L211.352 112.362L216.121 112.263L215.442 79.8696L210.073 79.9821L210.431 97.0483L210.431 97.0614C210.469 98.9156 210.293 100.545 209.903 101.95C209.513 103.359 208.937 104.531 208.177 105.467C207.416 106.384 206.49 107.083 205.4 107.566C204.31 108.049 203.095 108.304 201.755 108.333C200.056 108.368 198.629 108.068 197.475 107.432C196.342 106.796 195.423 105.915 194.719 104.789C194.036 103.663 193.539 102.393 193.229 100.979C192.92 99.5656 192.749 98.0989 192.717 96.5792L192.377 80.3528L186.978 80.4659L187.353 98.3719C187.379 99.5917 187.516 100.899 187.766 102.294C188.035 103.689 188.464 105.05 189.051 106.378C189.639 107.706 190.435 108.91 191.438 109.989C192.44 111.068 193.689 111.922 195.182 112.551ZM234.974 112.738C231.115 112.819 227.928 112.045 225.414 110.418C222.919 108.769 221.359 106.432 220.736 103.404L226.176 102.42C226.653 104.17 227.692 105.549 229.294 106.555C230.895 107.542 232.865 108.011 235.204 107.962C237.424 107.915 239.154 107.419 240.394 106.473C241.635 105.527 242.238 104.264 242.205 102.684C242.186 101.764 241.961 101.029 241.529 100.478C241.097 99.9067 240.216 99.3851 238.886 98.9128C237.575 98.4402 235.593 97.8816 232.939 97.237C230.064 96.5371 227.798 95.7944 226.141 95.0089C224.484 94.2234 223.295 93.2981 222.572 92.233C221.85 91.1679 221.472 89.8655 221.44 88.3259C221.4 86.4263 221.885 84.7558 222.895 83.3143C223.905 81.8528 225.331 80.7127 227.175 79.8939C229.038 79.0747 231.209 78.6392 233.689 78.5872C236.148 78.5357 238.356 78.8795 240.312 79.6187C242.268 80.3579 243.851 81.435 245.061 82.85C246.29 84.2446 247.035 85.8893 247.294 87.7843L241.856 88.8884C241.56 87.1543 240.691 85.8021 239.251 84.8321C237.83 83.8616 236.009 83.3697 233.789 83.3562C231.687 83.3202 229.986 83.7259 228.683 84.5734C227.401 85.4204 226.774 86.5438 226.803 87.9435C226.82 88.7233 227.074 89.3881 227.565 89.938C228.077 90.4874 228.998 90.9982 230.328 91.4704C231.678 91.9423 233.63 92.4715 236.182 93.0582C239.057 93.7181 241.323 94.4608 242.981 95.2863C244.658 96.0913 245.858 97.0664 246.583 98.2115C247.306 99.3366 247.686 100.739 247.721 102.419C247.786 105.538 246.688 108.021 244.426 109.869C242.164 111.697 239.013 112.653 234.974 112.738ZM288.932 110.737L288.592 94.5109C288.56 92.9712 288.389 91.4945 288.079 90.0807C287.79 88.6664 287.293 87.4065 286.59 86.301C285.906 85.1751 284.987 84.2942 283.834 83.6582C282.7 83.0218 281.274 82.7216 279.554 82.7576C278.214 82.7857 276.999 83.0412 275.909 83.5241C274.839 83.9866 273.923 84.686 273.163 85.6221C272.402 86.5582 271.816 87.7307 271.406 89.1396C271.016 90.5249 270.84 92.1545 270.878 94.0286L270.878 94.0418L271.236 111.108L265.837 111.221L265.159 78.8282L269.958 78.7277L270.045 82.9036C270.989 81.5757 272.146 80.489 273.517 79.6433C275.551 78.3805 277.958 77.7199 280.738 77.6617C282.837 77.6177 284.634 77.9102 286.127 78.539C287.621 79.1679 288.869 80.0219 289.872 81.1012C290.874 82.1604 291.669 83.364 292.258 84.712C292.846 86.04 293.264 87.4015 293.514 88.7966C293.782 90.1713 293.93 91.4785 293.956 92.7182L294.331 110.624L288.932 110.737ZM305.71 109.186C308.119 110.535 310.913 111.177 314.092 111.111C317.231 111.045 320.044 110.206 322.531 108.593C325.037 106.96 326.891 104.701 328.09 101.815L322.924 100.153C322.063 102.012 320.853 103.447 319.294 104.46C317.735 105.473 315.885 106.002 313.746 106.047C310.567 106.113 308.095 105.115 306.331 103.051C304.806 101.266 303.91 98.8245 303.644 95.7259L323.093 95.3185L325.733 95.2633L328.492 95.2055C328.572 91.3629 328.002 88.0641 326.784 85.309C325.586 82.5535 323.822 80.45 321.491 78.9985C319.18 77.5466 316.395 76.8548 313.136 76.923C309.996 76.9888 307.272 77.756 304.962 79.2247C302.672 80.673 300.904 82.7105 299.659 85.3371C298.413 87.9438 297.828 91.0167 297.902 94.5559C297.972 97.9352 298.694 100.881 300.067 103.393C301.44 105.884 303.321 107.815 305.71 109.186ZM322.867 91.0323C322.512 88.2283 321.702 86.0647 320.437 84.5418C318.836 82.5949 316.496 81.6537 313.416 81.7182C310.117 81.7873 307.63 82.8997 305.954 85.0552C304.697 86.6734 303.935 88.7999 303.668 91.4345L322.867 91.0323ZM345.934 110.414C342.074 110.494 338.887 109.721 336.373 108.093C333.878 106.445 332.318 104.107 331.695 101.08L337.136 100.096C337.612 101.846 338.651 103.224 340.253 104.231C341.854 105.218 343.824 105.687 346.164 105.638C348.383 105.591 350.113 105.095 351.354 104.149C352.594 103.202 353.198 101.94 353.165 100.36C353.145 99.4401 352.92 98.7046 352.488 98.1536C352.056 97.5825 351.175 97.0608 349.845 96.5886C348.535 96.1159 346.553 95.5573 343.898 94.9127C341.023 94.2128 338.757 93.4701 337.1 92.6846C335.443 91.8991 334.254 90.9739 333.531 89.9088C332.809 88.8437 332.432 87.5413 332.399 86.0016C332.36 84.102 332.845 82.4315 333.855 80.99C334.864 79.5286 336.291 78.3884 338.134 77.5697C339.997 76.7505 342.169 76.3149 344.648 76.263C347.108 76.2114 349.315 76.5553 351.271 77.2945C353.227 78.0337 354.81 79.1108 356.02 80.5257C357.249 81.9203 357.994 83.5651 358.254 85.46L352.816 86.5642C352.519 84.83 351.651 83.4779 350.21 82.5078C348.789 81.5374 346.969 81.0454 344.748 81.0319C342.647 80.9959 340.945 81.4016 339.642 82.2491C338.36 83.0961 337.733 84.2195 337.762 85.6192C337.779 86.399 338.033 87.0639 338.524 87.6137C339.036 88.1631 339.957 88.6739 341.287 89.1462C342.637 89.618 344.589 90.1472 347.142 90.7339C350.016 91.3939 352.282 92.1366 353.94 92.962C355.617 93.7671 356.818 94.7421 357.542 95.8872C358.266 97.0123 358.645 98.4147 358.68 100.094C358.746 103.214 357.647 105.697 355.386 107.545C353.123 109.373 349.973 110.329 345.934 110.414ZM366.383 107.465C368.897 109.092 372.084 109.866 375.943 109.785C379.982 109.7 383.133 108.744 385.395 106.916C387.657 105.069 388.755 102.585 388.69 99.4657C388.655 97.7861 388.275 96.3837 387.552 95.2586C386.828 94.1135 385.627 93.1385 383.95 92.3334C382.292 91.5079 380.026 90.7652 377.151 90.1053C374.599 89.5186 372.647 88.9894 371.297 88.5175C369.967 88.0453 369.046 87.5345 368.534 86.9851C368.043 86.4352 367.789 85.7704 367.772 84.9906C367.743 83.5909 368.37 82.4675 369.652 81.6205C370.955 80.773 372.657 80.3673 374.758 80.4033C376.979 80.4168 378.799 80.9088 380.22 81.8792C381.661 82.8493 382.529 84.2014 382.825 85.9355L388.263 84.8314C388.004 82.9364 387.259 81.2917 386.03 79.8971C384.82 78.4821 383.237 77.4051 381.281 76.6659C379.325 75.9267 377.117 75.5828 374.658 75.6343C372.178 75.6863 370.007 76.1218 368.144 76.941C366.301 77.7598 364.874 78.8999 363.865 80.3614C362.854 81.8029 362.369 83.4734 362.409 85.373C362.441 86.9127 362.819 88.215 363.541 89.2801C364.264 90.3452 365.453 91.2705 367.11 92.056C368.767 92.8415 371.033 93.5842 373.908 94.2841C376.562 94.9287 378.544 95.4873 379.855 95.96C381.185 96.4322 382.066 96.9539 382.498 97.5249C382.93 98.076 383.155 98.8115 383.174 99.7313C383.207 101.311 382.604 102.574 381.363 103.52C380.123 104.466 378.393 104.963 376.173 105.009C373.834 105.058 371.864 104.589 370.263 103.603C368.661 102.596 367.622 101.217 367.145 99.4669L361.705 100.451C362.328 103.479 363.888 105.817 366.383 107.465Z" fill="#13131A"/>
<path d="M91.1427 53.87C87.2827 53.87 84.1127 53.03 81.6327 51.35C79.1727 49.65 77.6627 47.28 77.1027 44.24L82.5627 43.37C83.0027 45.13 84.0127 46.53 85.5927 47.57C87.1727 48.59 89.1327 49.1 91.4727 49.1C93.6927 49.1 95.4327 48.64 96.6927 47.72C97.9527 46.8 98.5827 45.55 98.5827 43.97C98.5827 43.05 98.3727 42.31 97.9527 41.75C97.5327 41.17 96.6627 40.63 95.3427 40.13C94.0427 39.63 92.0727 39.03 89.4327 38.33C86.5727 37.57 84.3227 36.78 82.6827 35.96C81.0427 35.14 79.8727 34.19 79.1727 33.11C78.4727 32.03 78.1227 30.72 78.1227 29.18C78.1227 27.28 78.6427 25.62 79.6827 24.2C80.7227 22.76 82.1727 21.65 84.0327 20.87C85.9127 20.09 88.0927 19.7 90.5727 19.7C93.0327 19.7 95.2327 20.09 97.1727 20.87C99.1127 21.65 100.673 22.76 101.853 24.2C103.053 25.62 103.763 27.28 103.983 29.18L98.5227 30.17C98.2627 28.43 97.4227 27.06 96.0027 26.06C94.6027 25.06 92.7927 24.53 90.5727 24.47C88.4727 24.39 86.7627 24.76 85.4427 25.58C84.1427 26.4 83.4927 27.51 83.4927 28.91C83.4927 29.69 83.7327 30.36 84.2127 30.92C84.7127 31.48 85.6227 32.01 86.9427 32.51C88.2827 33.01 90.2227 33.58 92.7627 34.22C95.6227 34.94 97.8727 35.73 99.5127 36.59C101.173 37.43 102.353 38.43 103.053 39.59C103.753 40.73 104.103 42.14 104.103 43.82C104.103 46.94 102.953 49.4 100.653 51.2C98.3527 52.98 95.1827 53.87 91.1427 53.87ZM109.519 14.87V9.35H114.859V14.87H109.519ZM109.519 53V20.6H114.859V53H109.519ZM197.266 53.9C194.226 53.9 191.666 53.15 189.586 51.65C187.506 50.13 185.926 48.08 184.846 45.5C183.786 42.9 183.256 39.99 183.256 36.77C183.256 33.51 183.786 30.59 184.846 28.01C185.926 25.43 187.506 23.4 189.586 21.92C191.686 20.44 194.256 19.7 197.296 19.7C200.296 19.7 202.876 20.45 205.036 21.95C207.216 23.43 208.886 25.46 210.046 28.04C211.206 30.62 211.786 33.53 211.786 36.77C211.786 40.01 211.206 42.92 210.046 45.5C208.886 48.08 207.216 50.13 205.036 51.65C202.876 53.15 200.286 53.9 197.266 53.9ZM182.356 67.4V20.6H187.126V44.45H187.726V67.4H182.356ZM196.606 49.01C198.746 49.01 200.516 48.47 201.916 47.39C203.316 46.31 204.366 44.85 205.066 43.01C205.766 41.15 206.116 39.07 206.116 36.77C206.116 34.49 205.766 32.43 205.066 30.59C204.386 28.75 203.326 27.29 201.886 26.21C200.466 25.13 198.656 24.59 196.456 24.59C194.356 24.59 192.616 25.11 191.236 26.15C189.856 27.17 188.826 28.6 188.146 30.44C187.466 32.26 187.126 34.37 187.126 36.77C187.126 39.13 187.456 41.24 188.116 43.1C188.796 44.94 189.836 46.39 191.236 47.45C192.636 48.49 194.426 49.01 196.606 49.01ZM217.163 53V8.9H222.503V53H217.163ZM243.744 53.9C240.564 53.9 237.784 53.2 235.404 51.8C233.044 50.38 231.204 48.41 229.884 45.89C228.564 43.35 227.904 40.39 227.904 37.01C227.904 33.47 228.554 30.41 229.854 27.83C231.154 25.23 232.964 23.23 235.284 21.83C237.624 20.41 240.364 19.7 243.504 19.7C246.764 19.7 249.534 20.45 251.814 21.95C254.114 23.45 255.834 25.59 256.974 28.37C258.134 31.15 258.634 34.46 258.474 38.3H253.074V36.38C253.014 32.4 252.204 29.43 250.644 27.47C249.084 25.49 246.764 24.5 243.684 24.5C240.384 24.5 237.874 25.56 236.154 27.68C234.434 29.8 233.574 32.84 233.574 36.8C233.574 40.62 234.434 43.58 236.154 45.68C237.874 47.78 240.324 48.83 243.504 48.83C245.644 48.83 247.504 48.34 249.084 47.36C250.664 46.38 251.904 44.97 252.804 43.13L257.934 44.9C256.674 47.76 254.774 49.98 252.234 51.56C249.714 53.12 246.884 53.9 243.744 53.9ZM231.774 38.3V34.01H255.714V38.3H231.774ZM291.655 53C289.735 53.38 287.835 53.53 285.955 53.45C284.095 53.39 282.435 53.02 280.975 52.34C279.515 51.64 278.405 50.56 277.645 49.1C277.005 47.82 276.655 46.53 276.595 45.23C276.555 43.91 276.535 42.42 276.535 40.76V11.6H281.875V40.52C281.875 41.84 281.885 42.97 281.905 43.91C281.945 44.85 282.155 45.66 282.535 46.34C283.255 47.62 284.395 48.37 285.955 48.59C287.535 48.81 289.435 48.75 291.655 48.41V53ZM269.965 25.01V20.6H291.655V25.01H269.965ZM308.886 53.9C305.666 53.9 302.886 53.17 300.546 51.71C298.226 50.25 296.436 48.23 295.176 45.65C293.916 43.07 293.286 40.11 293.286 36.77C293.286 33.37 293.926 30.39 295.206 27.83C296.486 25.27 298.296 23.28 300.636 21.86C302.976 20.42 305.726 19.7 308.886 19.7C312.126 19.7 314.916 20.43 317.256 21.89C319.596 23.33 321.386 25.34 322.626 27.92C323.886 30.48 324.516 33.43 324.516 36.77C324.516 40.15 323.886 43.13 322.626 45.71C321.366 48.27 319.566 50.28 317.226 51.74C314.886 53.18 312.106 53.9 308.886 53.9ZM308.886 48.83C312.246 48.83 314.746 47.71 316.386 45.47C318.026 43.23 318.846 40.33 318.846 36.77C318.846 33.11 318.016 30.2 316.356 28.04C314.696 25.86 312.206 24.77 308.886 24.77C306.626 24.77 304.766 25.28 303.306 26.3C301.846 27.32 300.756 28.73 300.036 30.53C299.316 32.33 298.956 34.41 298.956 36.77C298.956 40.41 299.796 43.33 301.476 45.53C303.156 47.73 305.626 48.83 308.886 48.83ZM343.121 53.9C339.901 53.9 337.121 53.17 334.781 51.71C332.461 50.25 330.671 48.23 329.411 45.65C328.151 43.07 327.521 40.11 327.521 36.77C327.521 33.37 328.161 30.39 329.441 27.83C330.721 25.27 332.531 23.28 334.871 21.86C337.211 20.42 339.961 19.7 343.121 19.7C346.361 19.7 349.151 20.43 351.491 21.89C353.831 23.33 355.621 25.34 356.861 27.92C358.121 30.48 358.751 33.43 358.751 36.77C358.751 40.15 358.121 43.13 356.861 45.71C355.601 48.27 353.801 50.28 351.461 51.74C349.121 53.18 346.341 53.9 343.121 53.9ZM343.121 48.83C346.481 48.83 348.981 47.71 350.621 45.47C352.261 43.23 353.081 40.33 353.081 36.77C353.081 33.11 352.251 30.2 350.591 28.04C348.931 25.86 346.441 24.77 343.121 24.77C340.861 24.77 339.001 25.28 337.541 26.3C336.081 27.32 334.991 28.73 334.271 30.53C333.551 32.33 333.191 34.41 333.191 36.77C333.191 40.41 334.031 43.33 335.711 45.53C337.391 47.73 339.861 48.83 343.121 48.83ZM364.156 53V8.9H369.496V53H364.156ZM70.0607 113V78.83C70.0607 77.99 70.1007 77.14 70.1807 76.28C70.2607 75.4 70.4407 74.55 70.7207 73.73C71.0007 72.89 71.4607 72.12 72.1007 71.42C72.8407 70.6 73.6507 70.02 74.5307 69.68C75.4107 69.32 76.3007 69.1 77.2007 69.02C78.1207 68.94 78.9907 68.9 79.8107 68.9H83.9207V73.34H80.1107C78.5307 73.34 77.3507 73.73 76.5707 74.51C75.7907 75.27 75.4007 76.43 75.4007 77.99V113H70.0607ZM64.5707 85.01V80.6H83.9207V85.01H64.5707ZM99.5371 113.9C96.3171 113.9 93.5371 113.17 91.1971 111.71C88.8771 110.25 87.0871 108.23 85.8271 105.65C84.5671 103.07 83.9371 100.11 83.9371 96.77C83.9371 93.37 84.5771 90.39 85.8571 87.83C87.1371 85.27 88.9471 83.28 91.2871 81.86C93.6271 80.42 96.3771 79.7 99.5371 79.7C102.777 79.7 105.567 80.43 107.907 81.89C110.247 83.33 112.037 85.34 113.277 87.92C114.537 90.48 115.167 93.43 115.167 96.77C115.167 100.15 114.537 103.13 113.277 105.71C112.017 108.27 110.217 110.28 107.877 111.74C105.537 113.18 102.757 113.9 99.5371 113.9ZM99.5371 108.83C102.897 108.83 105.397 107.71 107.037 105.47C108.677 103.23 109.497 100.33 109.497 96.77C109.497 93.11 108.667 90.2 107.007 88.04C105.347 85.86 102.857 84.77 99.5371 84.77C97.2771 84.77 95.4171 85.28 93.9571 86.3C92.4971 87.32 91.4071 88.73 90.6871 90.53C89.9671 92.33 89.6071 94.41 89.6071 96.77C89.6071 100.41 90.4471 103.33 92.1271 105.53C93.8071 107.73 96.2771 108.83 99.5371 108.83ZM119.972 113V80.6H124.742V88.43L123.962 87.41C124.342 86.41 124.832 85.49 125.432 84.65C126.052 83.81 126.742 83.12 127.502 82.58C128.342 81.9 129.292 81.38 130.352 81.02C131.412 80.66 132.492 80.45 133.592 80.39C134.692 80.31 135.722 80.38 136.682 80.6V85.61C135.562 85.31 134.332 85.23 132.992 85.37C131.652 85.51 130.412 86 129.272 86.84C128.232 87.58 127.422 88.48 126.842 89.54C126.282 90.6 125.892 91.75 125.672 92.99C125.452 94.21 125.342 95.46 125.342 96.74V113H119.972Z" fill="#13131A"/>
<path fill-rule="evenodd" clip-rule="evenodd" d="M144.409 20.0205C137.321 19.541 133.174 27.5674 131.532 33.0491L130.229 20.5846H121L124.376 52.8864H131.578L131.578 52.8871H134.955C135.076 52.3312 135.211 51.6982 135.359 51.005C136.988 43.363 140.178 28.3971 144.409 28.6042C145.999 28.682 146.997 29.9595 147.11 32.3314V52.8871H154.651C154.651 52.8802 154.651 52.8734 154.651 52.8665H158.705C158.79 52.4728 158.886 52.0184 158.992 51.5136C160.44 44.6344 163.86 28.3938 168.159 28.6042C169.749 28.682 170.748 29.9595 170.861 32.3314V53H178.851C178.964 48.4446 179.122 38.0237 178.851 33.6867C178.847 33.6163 178.843 33.5455 178.838 33.4744C178.503 28.07 178.046 20.6894 168.159 20.0205C160.146 19.4784 155.892 29.809 154.766 35.042L154.739 35.7668C154.717 34.982 154.688 34.2787 154.651 33.6867C154.633 33.4073 154.617 33.1223 154.601 32.8328L154.601 32.8319C154.298 27.5031 153.909 20.6632 144.409 20.0205Z" fill="#13131A"/>
<path d="M88.6459 169.398L88.6036 148.668C88.5951 146.248 87.9385 144.36 86.6338 143.005C85.349 141.629 83.6766 140.945 81.6166 140.952C80.4166 140.956 79.2776 141.24 78.1996 141.804C77.1214 142.348 76.2445 143.211 75.5686 144.393C74.8926 145.556 74.5578 147.047 74.5642 148.867L71.7402 147.737C71.6922 145.437 72.1552 143.425 73.1292 141.702C74.1231 139.958 75.4784 138.604 77.195 137.638C78.9116 136.672 80.85 136.185 83.0099 136.177C86.3899 136.166 89.0535 137.186 91.0007 139.24C92.9478 141.273 93.9274 144.019 93.9395 147.479L93.9859 169.379L88.6459 169.398ZM49.8862 169.533L49.7731 137.133L54.543 137.117L54.5733 145.787L55.1733 145.785L55.2561 169.514L49.8862 169.533ZM69.2961 169.465L69.2544 148.945C69.2458 146.465 68.599 144.528 67.3141 143.132C66.0292 141.717 64.3267 141.013 62.2067 141.02C60.1067 141.027 58.4092 141.753 57.1143 143.198C55.8193 144.642 55.176 146.555 55.1843 148.935L52.3585 147.264C52.3511 145.164 52.8446 143.283 53.8388 141.619C54.833 139.956 56.1884 138.651 57.9051 137.705C59.6218 136.739 61.5701 136.252 63.7501 136.245C65.9301 136.237 67.8316 136.69 69.4548 137.605C71.078 138.519 72.3326 139.835 73.2186 141.552C74.1046 143.249 74.5516 145.277 74.5599 147.637L74.606 169.447L69.2961 169.465Z" fill="#13131A"/>
<path d="M109.243 170.226C106.823 170.234 104.792 169.802 103.148 168.927C101.525 168.033 100.291 166.857 99.4461 165.4C98.621 163.943 98.2054 162.344 98.1993 160.605C98.1934 158.905 98.5083 157.433 99.1439 156.191C99.7995 154.929 100.716 153.886 101.893 153.062C103.07 152.217 104.478 151.553 106.116 151.067C107.655 150.641 109.373 150.275 111.272 149.969C113.191 149.642 115.13 149.345 117.089 149.078C119.048 148.812 120.877 148.555 122.577 148.309L120.66 149.426C120.71 146.546 120.123 144.418 118.898 143.042C117.693 141.666 115.611 140.984 112.651 140.994C110.691 141.001 108.973 141.457 107.496 142.362C106.039 143.247 105.014 144.691 104.421 146.693L99.3455 145.18C100.116 142.338 101.618 140.102 103.852 138.475C106.086 136.847 109.034 136.027 112.694 136.014C115.634 136.004 118.155 136.525 120.259 137.577C122.383 138.61 123.908 140.185 124.836 142.301C125.299 143.3 125.593 144.389 125.717 145.568C125.841 146.728 125.905 147.948 125.91 149.228L125.98 169.268L121.24 169.284L121.213 161.514L122.325 162.23C121.114 164.855 119.411 166.841 117.216 168.188C115.041 169.536 112.383 170.215 109.243 170.226ZM110.037 165.753C111.957 165.747 113.616 165.401 115.014 164.716C116.431 164.011 117.568 163.097 118.424 161.974C119.28 160.831 119.836 159.589 120.091 158.248C120.388 157.247 120.544 156.136 120.56 154.916C120.595 153.676 120.612 152.726 120.61 152.066L122.472 152.87C120.733 153.116 119.024 153.352 117.345 153.578C115.666 153.803 114.077 154.049 112.577 154.314C111.078 154.56 109.729 154.854 108.531 155.198C107.652 155.481 106.823 155.844 106.044 156.287C105.286 156.73 104.668 157.302 104.19 158.004C103.733 158.685 103.506 159.536 103.509 160.556C103.512 161.436 103.735 162.275 104.178 163.074C104.641 163.872 105.343 164.52 106.285 165.016C107.247 165.513 108.497 165.759 110.037 165.753Z" fill="#13131A"/>
<path d="M155.05 169.166L154.993 152.936C154.988 151.396 154.842 149.917 154.557 148.498C154.292 147.079 153.818 145.81 153.134 144.693C152.47 143.555 151.567 142.658 150.425 142.002C149.302 141.346 147.881 141.021 146.161 141.027C144.821 141.032 143.602 141.266 142.504 141.73C141.425 142.174 140.498 142.857 139.721 143.779C138.944 144.702 138.338 145.864 137.903 147.266C137.488 148.647 137.284 150.278 137.29 152.158L133.776 151.09C133.765 147.95 134.316 145.258 135.428 143.014C136.56 140.75 138.144 139.015 140.18 137.808C142.236 136.581 144.654 135.962 147.434 135.952C149.534 135.945 151.325 136.269 152.807 136.924C154.289 137.579 155.522 138.454 156.506 139.551C157.49 140.627 158.264 141.845 158.829 143.203C159.394 144.541 159.788 145.909 160.013 147.309C160.258 148.688 160.383 149.997 160.387 151.237L160.45 169.147L155.05 169.166ZM131.95 169.247L131.837 136.847L136.637 136.83L136.667 145.5L137.267 145.498L137.35 169.228L131.95 169.247Z" fill="#13131A"/>
<path d="M175.662 169.994C173.242 170.003 171.211 169.57 169.568 168.695C167.944 167.801 166.71 166.625 165.865 165.168C165.04 163.711 164.625 162.113 164.618 160.373C164.613 158.673 164.927 157.202 165.563 155.959C166.219 154.697 167.135 153.654 168.312 152.83C169.489 151.986 170.897 151.321 172.535 150.835C174.074 150.41 175.792 150.044 177.691 149.737C179.61 149.41 181.549 149.113 183.508 148.847C185.467 148.58 187.297 148.323 188.996 148.077L187.08 149.194C187.13 146.314 186.542 144.186 185.317 142.81C184.112 141.434 182.03 140.752 179.07 140.762C177.11 140.769 175.392 141.225 173.915 142.13C172.458 143.015 171.433 144.459 170.84 146.461L165.765 144.949C166.535 142.106 168.037 139.871 170.271 138.243C172.506 136.615 175.453 135.795 179.113 135.782C182.053 135.772 184.575 136.293 186.678 137.346C188.802 138.378 190.327 139.953 191.255 142.07C191.718 143.068 192.012 144.157 192.136 145.337C192.26 146.496 192.324 147.716 192.329 148.996L192.399 169.036L187.659 169.052L187.632 161.282L188.744 161.998C187.533 164.623 185.83 166.609 183.635 167.956C181.46 169.304 178.802 169.983 175.662 169.994ZM176.457 165.521C178.377 165.515 180.035 165.169 181.433 164.484C182.85 163.779 183.987 162.865 184.843 161.742C185.699 160.599 186.255 159.357 186.51 158.016C186.807 157.015 186.963 155.905 186.979 154.685C187.014 153.444 187.031 152.494 187.029 151.834L188.892 152.638C187.152 152.884 185.443 153.12 183.764 153.346C182.085 153.572 180.496 153.817 178.997 154.082C177.497 154.328 176.148 154.622 174.95 154.967C174.071 155.25 173.242 155.613 172.463 156.055C171.705 156.498 171.087 157.07 170.609 157.772C170.152 158.453 169.925 159.304 169.928 160.324C169.931 161.204 170.154 162.043 170.597 162.842C171.06 163.64 171.762 164.288 172.704 164.784C173.666 165.281 174.917 165.527 176.457 165.521Z" fill="#13131A"/>
<path d="M211.562 184.269C209.862 184.275 208.201 184.021 206.58 183.506C204.958 182.992 203.465 182.207 202.101 181.152C200.758 180.117 199.633 178.801 198.727 177.204L203.608 174.607C204.414 176.184 205.548 177.33 207.01 178.045C208.493 178.76 210.014 179.114 211.574 179.109C213.634 179.102 215.343 178.716 216.7 177.951C218.058 177.206 219.054 176.093 219.689 174.611C220.343 173.128 220.657 171.287 220.629 169.087L220.598 160.237L221.228 160.235L221.146 136.535L225.886 136.519L225.999 169.128C226.003 170.008 225.975 170.859 225.918 171.679C225.881 172.499 225.784 173.309 225.627 174.11C225.215 176.411 224.391 178.304 223.157 179.788C221.922 181.293 220.326 182.408 218.368 183.135C216.411 183.882 214.142 184.26 211.562 184.269ZM211.122 169.87C208.102 169.881 205.509 169.14 203.344 167.648C201.179 166.135 199.502 164.091 198.313 161.515C197.144 158.939 196.554 156.031 196.542 152.791C196.531 149.551 197.101 146.639 198.252 144.055C199.423 141.471 201.086 139.435 203.24 137.948C205.395 136.44 207.973 135.681 210.973 135.671C214.033 135.66 216.605 136.391 218.69 137.864C220.775 139.337 222.352 141.361 223.421 143.937C224.51 146.514 225.061 149.432 225.072 152.692C225.083 155.912 224.553 158.823 223.483 161.427C222.432 164.011 220.869 166.066 218.794 167.594C216.719 169.101 214.162 169.86 211.122 169.87ZM211.765 164.978C213.945 164.971 215.733 164.444 217.129 163.399C218.526 162.335 219.551 160.881 220.204 159.039C220.878 157.176 221.21 155.065 221.202 152.705C221.194 150.305 220.846 148.196 220.16 146.379C219.494 144.541 218.469 143.115 217.085 142.099C215.701 141.064 213.95 140.55 211.83 140.558C209.63 140.565 207.812 141.112 206.375 142.197C204.959 143.282 203.904 144.745 203.211 146.588C202.537 148.43 202.204 150.491 202.212 152.771C202.22 155.071 202.577 157.15 203.284 159.008C203.99 160.845 205.045 162.302 206.449 163.377C207.873 164.452 209.645 164.986 211.765 164.978Z" fill="#13131A"/>
<path d="M246.618 169.746C243.438 169.758 240.656 169.067 238.271 167.676C235.906 166.264 234.059 164.3 232.73 161.785C231.402 159.25 230.731 156.292 230.719 152.912C230.707 149.372 231.346 146.31 232.637 143.725C233.928 141.121 235.731 139.114 238.046 137.706C240.381 136.278 243.119 135.558 246.259 135.548C249.519 135.536 252.291 136.276 254.577 137.769C256.882 139.26 258.609 141.394 259.759 144.17C260.929 146.946 261.44 150.255 261.294 154.095L255.894 154.114L255.887 152.194C255.813 148.214 254.993 145.247 253.426 143.293C251.859 141.318 249.536 140.336 246.456 140.347C243.156 140.358 240.649 141.427 238.937 143.553C237.224 145.679 236.375 148.722 236.389 152.682C236.402 156.502 237.272 159.459 239 161.553C240.727 163.647 243.181 164.688 246.361 164.677C248.501 164.67 250.359 164.173 251.935 163.188C253.512 162.202 254.747 160.788 255.641 158.945L260.777 160.697C259.527 163.561 257.635 165.788 255.1 167.377C252.586 168.946 249.758 169.736 246.618 169.746ZM234.594 154.188L234.579 149.898L258.519 149.815L258.534 154.105L234.594 154.188Z" fill="#13131A"/>
<path d="M304.075 168.646L304.033 147.916C304.024 145.496 303.368 143.608 302.063 142.253C300.778 140.877 299.106 140.193 297.046 140.2C295.846 140.204 294.707 140.488 293.629 141.052C292.551 141.596 291.674 142.459 290.998 143.641C290.322 144.804 289.987 146.295 289.993 148.115L287.169 146.985C287.121 144.685 287.584 142.673 288.558 140.95C289.552 139.206 290.908 137.852 292.624 136.886C294.341 135.92 296.279 135.433 298.439 135.425C301.819 135.414 304.483 136.434 306.43 138.488C308.377 140.521 309.357 143.267 309.369 146.727L309.415 168.627L304.075 168.646ZM265.315 168.781L265.202 136.381L269.972 136.365L270.002 145.035L270.602 145.033L270.685 168.762L265.315 168.781ZM284.725 168.713L284.684 148.193C284.675 145.713 284.028 143.776 282.743 142.38C281.458 140.965 279.756 140.261 277.636 140.268C275.536 140.275 273.838 141.001 272.543 142.446C271.248 143.89 270.605 145.803 270.613 148.183L267.788 146.512C267.78 144.412 268.274 142.531 269.268 140.867C270.262 139.204 271.618 137.899 273.334 136.953C275.051 135.987 276.999 135.5 279.179 135.493C281.359 135.485 283.261 135.938 284.884 136.853C286.507 137.767 287.762 139.083 288.648 140.8C289.534 142.497 289.981 144.525 289.989 146.885L290.035 168.695L284.725 168.713Z" fill="#13131A"/>
<path d="M329.209 169.458C326.029 169.469 323.247 168.779 320.862 167.387C318.497 165.976 316.65 164.012 315.321 161.497C313.992 158.961 313.322 156.004 313.31 152.624C313.298 149.084 313.937 146.021 315.228 143.437C316.519 140.832 318.322 138.826 320.637 137.418C322.972 135.99 325.71 135.27 328.85 135.259C332.11 135.248 334.882 135.988 337.168 137.48C339.473 138.972 341.2 141.106 342.35 143.882C343.52 146.658 344.031 149.966 343.885 153.807L338.485 153.826L338.478 151.906C338.404 147.926 337.584 144.959 336.017 143.004C334.45 141.03 332.127 140.048 329.047 140.059C325.747 140.07 323.24 141.139 321.528 143.265C319.815 145.391 318.966 148.434 318.98 152.394C318.993 156.214 319.863 159.171 321.591 161.265C323.318 163.359 325.772 164.4 328.951 164.389C331.091 164.382 332.95 163.885 334.526 162.9C336.103 161.914 337.338 160.5 338.232 158.657L343.368 160.409C342.118 163.273 340.225 165.5 337.691 167.089C335.176 168.657 332.349 169.447 329.209 169.458ZM317.185 153.9L317.17 149.61L341.11 149.527L341.125 153.817L317.185 153.9Z" fill="#13131A"/>
<path d="M371.006 168.412L370.949 152.182C370.944 150.642 370.799 149.163 370.514 147.744C370.249 146.325 369.775 145.056 369.091 143.939C368.427 142.801 367.524 141.904 366.381 141.248C365.259 140.592 363.838 140.267 362.118 140.273C360.778 140.278 359.559 140.512 358.46 140.976C357.382 141.42 356.454 142.103 355.677 143.026C354.901 143.948 354.295 145.11 353.86 146.512C353.444 147.893 353.24 149.524 353.247 151.404L349.733 150.336C349.722 147.196 350.273 144.505 351.385 142.261C352.517 139.997 354.101 138.261 356.137 137.054C358.192 135.827 360.61 135.208 363.39 135.199C365.49 135.191 367.281 135.515 368.764 136.17C370.246 136.825 371.479 137.7 372.463 138.797C373.447 139.874 374.221 141.091 374.785 142.449C375.35 143.787 375.745 145.156 375.97 146.555C376.215 147.934 376.339 149.244 376.344 150.484L376.406 168.393L371.006 168.412ZM347.906 168.493L347.793 136.093L352.593 136.076L352.623 144.746L353.223 144.744L353.306 168.474L347.906 168.493Z" fill="#13131A"/>
<path d="M400.495 168.309C398.577 168.696 396.677 168.853 394.797 168.779C392.937 168.726 391.276 168.362 389.813 167.687C388.351 166.992 387.237 165.916 386.472 164.458C385.827 163.181 385.473 161.892 385.408 160.592C385.364 159.272 385.339 157.782 385.333 156.122L385.231 126.962L390.571 126.944L390.672 155.864C390.676 157.184 390.69 158.314 390.714 159.253C390.757 160.193 390.97 161.003 391.352 161.681C392.077 162.959 393.219 163.705 394.78 163.919C396.361 164.134 398.261 164.067 400.479 163.719L400.495 168.309ZM378.708 140.395L378.692 135.985L400.382 135.91L400.398 140.32L378.708 140.395Z" fill="#13131A"/>
</svg>
