<svg width="48" height="48" viewBox="0 0 48 48" fill="none" xmlns="http://www.w3.org/2000/svg">
<path fill-rule="evenodd" clip-rule="evenodd" d="M1.30792 6.55211C0 9.11905 0 12.4794 0 19.2V28.8C0 35.5206 0 38.8809 1.30792 41.4479C2.4584 43.7058 4.29417 45.5416 6.55211 46.6921C9.11905 48 12.4794 48 19.2 48H28.8C35.5206 48 38.8809 48 41.4479 46.6921C43.7058 45.5416 45.5416 43.7058 46.6921 41.4479C48 38.8809 48 35.5206 48 28.8V19.2C48 12.4794 48 9.11905 46.6921 6.55211C45.5416 4.29417 43.7058 2.4584 41.4479 1.30792C38.8809 0 35.5206 0 28.8 0H19.2C12.4794 0 9.11905 0 6.55211 1.30792C4.29417 2.4584 2.4584 4.29417 1.30792 6.55211ZM31.0773 13.4896C31.0056 13.5528 30.9572 13.6405 30.9406 13.7374C31.202 13.7199 31.4642 13.7199 31.7256 13.7374C31.709 13.6405 31.6607 13.5528 31.5889 13.4896C31.5172 13.4265 31.4266 13.3918 31.3331 13.3918C31.2396 13.3918 31.1491 13.4265 31.0773 13.4896ZM18.3165 13.3333C18.1139 13.5467 18 13.8361 18 14.1379V14.5172H28.7701C29.213 14.2164 29.6998 13.9944 30.2111 13.8599C30.2037 13.6036 30.2716 13.3511 30.4056 13.1369C30.2475 13.0471 30.0706 13.0001 29.8908 13H19.0808C18.7941 13 18.5192 13.1199 18.3165 13.3333ZM30.6551 34.6667C30.8577 34.4533 30.9716 34.1639 30.9716 33.8621V32.3448H18V33.8621C18 34.1639 18.1139 34.4533 18.3165 34.6667C18.5192 34.8801 18.7941 35 19.0808 35H29.8908C30.1775 35 30.4524 34.8801 30.6551 34.6667ZM18 31.5862H30.9716V25.1379C30.6955 25.1634 30.421 25.0728 30.2082 24.8859C29.9953 24.699 29.8614 24.4309 29.8357 24.1403H26.9177C26.6744 24.1467 26.4377 24.0568 26.2543 23.8884C26.0709 23.72 25.9541 23.4854 25.927 23.2307C25.8999 22.9761 25.9644 22.7201 26.1077 22.5131C26.2511 22.306 26.463 22.1631 26.7015 22.1126C26.7038 22.0326 26.7028 21.6466 26.7016 21.1411C26.6986 19.9588 26.694 18.1227 26.7253 18.0183C26.8263 16.9934 27.241 16.0309 27.9069 15.2759H18V31.5862ZM31.3319 24.3793H31.8074C31.8742 24.3792 31.9391 24.3557 31.9917 24.3124C32.0444 24.2691 32.0818 24.2086 32.0981 24.1403H30.5685C30.621 24.4029 30.9058 24.3905 31.1403 24.3803C31.2114 24.3772 31.2779 24.3743 31.3319 24.3793ZM26.9198 23.3817H35.746C35.8134 23.3817 35.878 23.3535 35.9256 23.3034C35.9732 23.2533 36 23.1852 36 23.1143C36 23.0434 35.9732 22.9754 35.9256 22.9252C35.878 22.8751 35.8134 22.8469 35.746 22.8469C35.4956 22.8799 35.2409 22.7631 35.2381 22.4676V18.4818C35.2892 16.0038 32.9098 14.086 30.6809 14.537C29.7835 14.6845 28.9645 15.1613 28.3686 15.883C27.7727 16.6046 27.4382 17.5248 27.4242 18.481V22.4676C27.4206 22.7631 27.1688 22.8784 26.9198 22.8469C26.8854 22.845 26.8508 22.8504 26.8184 22.863C26.786 22.8756 26.7564 22.895 26.7313 22.92C26.7063 22.945 26.6863 22.9751 26.6726 23.0085C26.659 23.042 26.652 23.0779 26.652 23.1143C26.652 23.1507 26.659 23.1867 26.6726 23.2201C26.6863 23.2535 26.7063 23.2836 26.7313 23.3086C26.7564 23.3337 26.786 23.353 26.8184 23.3656C26.8508 23.3782 26.8854 23.3837 26.9198 23.3817Z" fill="url(#paint0_linear_171_40066)"/>
<defs>
<linearGradient id="paint0_linear_171_40066" x1="-26" y1="8" x2="41.0368" y2="86.4564" gradientUnits="userSpaceOnUse">
<stop stop-color="#D57384"/>
<stop offset="1" stop-color="#4881D9"/>
</linearGradient>
</defs>
</svg>
