<svg width="48" height="48" viewBox="0 0 48 48" fill="none" xmlns="http://www.w3.org/2000/svg">
<path fill-rule="evenodd" clip-rule="evenodd" d="M0 19.2C0 12.4794 0 9.11905 1.30792 6.55211C2.4584 4.29417 4.29417 2.4584 6.55211 1.30792C9.11905 0 12.4794 0 19.2 0H28.8C35.5206 0 38.8809 0 41.4479 1.30792C43.7058 2.4584 45.5416 4.29417 46.6921 6.55211C48 9.11905 48 12.4794 48 19.2V28.8C48 35.5206 48 38.8809 46.6921 41.4479C45.5416 43.7058 43.7058 45.5416 41.4479 46.6921C38.8809 48 35.5206 48 28.8 48H19.2C12.4794 48 9.11905 48 6.55211 46.6921C4.29417 45.5416 2.4584 43.7058 1.30792 41.4479C0 38.8809 0 35.5206 0 28.8V19.2ZM26.0943 13.8375C27.1095 15.1235 27.8061 17.4725 28.1571 20.1248H34.0647C32.6769 16.8711 29.6907 14.4496 26.0943 13.8375ZM21.3289 20.1249C21.8689 16.192 23.1325 13.6846 24.2989 13.6846C25.4626 13.6846 26.7289 16.192 27.2689 20.1249H21.3289ZM14.535 20.1248H20.4426C20.7936 17.4751 21.4902 15.1235 22.5054 13.8375C18.9063 14.4496 15.9201 16.8711 14.535 20.1248ZM34.3899 21.0028C34.7193 22.0203 34.8975 23.1022 34.8975 24.2243C34.8975 25.3492 34.7193 26.431 34.3899 27.4458H28.2582C28.3662 26.3881 28.4202 25.3008 28.4202 24.2243C28.4202 23.1478 28.3662 22.0579 28.2582 21.0028H34.3899ZM27.5373 24.2243C27.5373 23.0807 27.4779 22.0042 27.3753 21.0028H21.222C21.1194 22.0015 21.06 23.0807 21.06 24.2243C21.06 25.3679 21.1194 26.4445 21.222 27.4458H27.3753C27.4779 26.4471 27.5373 25.3679 27.5373 24.2243ZM14.2076 27.4458C13.8782 26.4284 13.7 25.3465 13.7 24.2243C13.7 23.0995 13.8782 22.0176 14.2076 21.0028H20.3393C20.2313 22.0606 20.1773 23.1478 20.1773 24.2243C20.1773 25.3008 20.2313 26.3908 20.3393 27.4458H14.2076ZM34.0647 28.321H28.1571C27.8061 30.9707 27.1095 33.3224 26.0943 34.6083C27.5712 34.356 28.9428 33.8029 30.1443 33.011L29.2222 29.5919C29.1448 29.3051 29.407 29.0422 29.694 29.1187L33.1359 30.0365C33.495 29.4969 33.8082 28.9251 34.0647 28.3237V28.321ZM22.5054 34.6083C18.909 33.9962 15.9228 31.5747 14.535 28.321H20.4426C20.7936 30.9734 21.4902 33.3224 22.5054 34.6083ZM24.3016 34.7613C25.468 34.7613 26.7343 32.2539 27.2716 28.321H21.3289C21.8689 32.2539 23.1352 34.7613 24.2989 34.7613H24.3016ZM30.943 30.3587L34.6173 31.3382L33.5886 32.3583L35.3004 34.0604L34.1934 35.161L32.4816 33.4617L31.4556 34.4818L30.4713 30.8318C30.394 30.5451 30.6561 30.2822 30.943 30.3587Z" fill="url(#paint0_linear_171_40069)"/>
<defs>
<linearGradient id="paint0_linear_171_40069" x1="48" y1="48" x2="19.9424" y2="-43.0731" gradientUnits="userSpaceOnUse">
<stop stop-color="#D57384"/>
<stop offset="1" stop-color="#4881D9"/>
</linearGradient>
</defs>
</svg>
