<svg width="1120" height="528" viewBox="0 0 1120 528" fill="none" xmlns="http://www.w3.org/2000/svg">
<rect width="1120" height="528" rx="21" fill="#13131A"/>
<path fill-rule="evenodd" clip-rule="evenodd" d="M736.712 278.683C752.624 206.083 812.771 62.7637 926.062 70.2848C1065.84 79.5641 1072.3 181.958 1077.04 256.935C1077.1 257.922 1077.16 258.903 1077.22 259.88C1081.04 320.049 1078.82 464.622 1077.22 527.821H964.251V241.077C962.66 208.172 948.538 190.449 926.062 189.369C865.284 186.45 816.935 411.761 796.455 507.199C794.953 514.202 793.6 520.506 792.403 525.969H735.087C735.084 526.064 735.082 526.159 735.08 526.254H628.471V241.077C626.879 208.172 612.758 190.449 590.282 189.369C530.469 186.496 485.369 394.123 462.34 500.144L462.34 500.145C460.251 509.761 458.343 518.542 456.623 526.254H408.888L408.887 526.246H307.069L259.334 78.1114H389.811L408.231 251.034C431.449 174.984 490.077 63.6325 590.282 70.2848C724.593 79.2013 730.089 174.093 734.371 248.022L734.372 248.027C734.604 252.046 734.833 256.002 735.08 259.88C735.601 268.099 736.01 277.864 736.323 288.76L736.712 278.683Z" fill="#FDFDFD" fill-opacity="0.02"/>
</svg>
