<svg width="48" height="48" viewBox="0 0 48 48" fill="none" xmlns="http://www.w3.org/2000/svg">
<path fill-rule="evenodd" clip-rule="evenodd" d="M0 19.2C0 12.4794 0 9.11905 1.30792 6.55211C2.4584 4.29417 4.29417 2.4584 6.55211 1.30792C9.11905 0 12.4794 0 19.2 0H28.8C35.5206 0 38.8809 0 41.4479 1.30792C43.7058 2.4584 45.5416 4.29417 46.6921 6.55211C48 9.11905 48 12.4794 48 19.2V28.8C48 35.5206 48 38.8809 46.6921 41.4479C45.5416 43.7058 43.7058 45.5416 41.4479 46.6921C38.8809 48 35.5206 48 28.8 48H19.2C12.4794 48 9.11905 48 6.55211 46.6921C4.29417 45.5416 2.4584 43.7058 1.30792 41.4479C0 38.8809 0 35.5206 0 28.8V19.2ZM13.4062 16.1506V19.9387H34.5523V16.1506C34.5523 15.9814 34.4851 15.819 34.3654 15.6994C34.2457 15.5797 34.0834 15.5125 33.9141 15.5125H31.2722V17.9936H29.9958V15.5125H24.6174V17.9936H23.3411V15.5125H17.9627V17.9936H16.6864V15.5125H14.0444C13.8752 15.5125 13.7128 15.5797 13.5932 15.6994C13.4735 15.819 13.4062 15.9814 13.4062 16.1506ZM13.4062 31.8493V21.215H34.5523V29.8102L33.5193 28.6723C33.0552 28.1611 32.2647 28.1229 31.7536 28.5869C31.2424 29.051 31.2042 29.8415 31.6682 30.3526L33.6063 32.4875H14.0444C13.8752 32.4875 13.7128 32.4203 13.5932 32.3006C13.4735 32.1809 13.4062 32.0186 13.4062 31.8493ZM38.9858 27.0728C39.1572 26.8562 39.1206 26.5418 38.9041 26.3704C38.6875 26.199 38.3731 26.2356 38.2017 26.4521L34.6102 30.9898L32.964 29.1764C32.7783 28.9719 32.4621 28.9566 32.2577 29.1422C32.0532 29.3279 32.0379 29.6441 32.2235 29.8485L34.2661 32.0985L34.6624 32.5351L35.0284 32.0728L38.9858 27.0728Z" fill="url(#paint0_linear_171_40197)"/>
<defs>
<linearGradient id="paint0_linear_171_40197" x1="-19" y1="53" x2="82.8205" y2="33.1839" gradientUnits="userSpaceOnUse">
<stop stop-color="#D57384"/>
<stop offset="1" stop-color="#4881D9"/>
</linearGradient>
</defs>
</svg>
