<svg width="790" height="134" viewBox="0 0 790 134" fill="none" xmlns="http://www.w3.org/2000/svg">
<rect x="128.336" y="63.6289" width="629" height="70" rx="21" transform="rotate(-1.19873 128.336 63.6289)" fill="#13131A"/>
<path d="M261.643 53.87C257.783 53.87 254.613 53.03 252.133 51.35C249.673 49.65 248.163 47.28 247.603 44.24L253.063 43.37C253.503 45.13 254.513 46.53 256.093 47.57C257.673 48.59 259.633 49.1 261.973 49.1C264.193 49.1 265.933 48.64 267.193 47.72C268.453 46.8 269.083 45.55 269.083 43.97C269.083 43.05 268.873 42.31 268.453 41.75C268.033 41.17 267.163 40.63 265.843 40.13C264.543 39.63 262.573 39.03 259.933 38.33C257.073 37.57 254.823 36.78 253.183 35.96C251.543 35.14 250.373 34.19 249.673 33.11C248.973 32.03 248.623 30.72 248.623 29.18C248.623 27.28 249.143 25.62 250.183 24.2C251.223 22.76 252.673 21.65 254.533 20.87C256.413 20.09 258.593 19.7 261.073 19.7C263.533 19.7 265.733 20.09 267.673 20.87C269.613 21.65 271.173 22.76 272.353 24.2C273.553 25.62 274.263 27.28 274.483 29.18L269.023 30.17C268.763 28.43 267.923 27.06 266.503 26.06C265.103 25.06 263.293 24.53 261.073 24.47C258.973 24.39 257.263 24.76 255.943 25.58C254.643 26.4 253.993 27.51 253.993 28.91C253.993 29.69 254.233 30.36 254.713 30.92C255.213 31.48 256.123 32.01 257.443 32.51C258.783 33.01 260.723 33.58 263.263 34.22C266.123 34.94 268.373 35.73 270.013 36.59C271.673 37.43 272.853 38.43 273.553 39.59C274.253 40.73 274.603 42.14 274.603 43.82C274.603 46.94 273.453 49.4 271.153 51.2C268.853 52.98 265.683 53.87 261.643 53.87ZM280.019 14.87V9.35H285.359V14.87H280.019ZM280.019 53V20.6H285.359V53H280.019ZM367.766 53.9C364.726 53.9 362.166 53.15 360.086 51.65C358.006 50.13 356.426 48.08 355.346 45.5C354.286 42.9 353.756 39.99 353.756 36.77C353.756 33.51 354.286 30.59 355.346 28.01C356.426 25.43 358.006 23.4 360.086 21.92C362.186 20.44 364.756 19.7 367.796 19.7C370.796 19.7 373.376 20.45 375.536 21.95C377.716 23.43 379.386 25.46 380.546 28.04C381.706 30.62 382.286 33.53 382.286 36.77C382.286 40.01 381.706 42.92 380.546 45.5C379.386 48.08 377.716 50.13 375.536 51.65C373.376 53.15 370.786 53.9 367.766 53.9ZM352.856 67.4V20.6H357.626V44.45H358.226V67.4H352.856ZM367.106 49.01C369.246 49.01 371.016 48.47 372.416 47.39C373.816 46.31 374.866 44.85 375.566 43.01C376.266 41.15 376.616 39.07 376.616 36.77C376.616 34.49 376.266 32.43 375.566 30.59C374.886 28.75 373.826 27.29 372.386 26.21C370.966 25.13 369.156 24.59 366.956 24.59C364.856 24.59 363.116 25.11 361.736 26.15C360.356 27.17 359.326 28.6 358.646 30.44C357.966 32.26 357.626 34.37 357.626 36.77C357.626 39.13 357.956 41.24 358.616 43.1C359.296 44.94 360.336 46.39 361.736 47.45C363.136 48.49 364.926 49.01 367.106 49.01ZM387.663 53V8.9H393.003V53H387.663ZM414.244 53.9C411.064 53.9 408.284 53.2 405.904 51.8C403.544 50.38 401.704 48.41 400.384 45.89C399.064 43.35 398.404 40.39 398.404 37.01C398.404 33.47 399.054 30.41 400.354 27.83C401.654 25.23 403.464 23.23 405.784 21.83C408.124 20.41 410.864 19.7 414.004 19.7C417.264 19.7 420.034 20.45 422.314 21.95C424.614 23.45 426.334 25.59 427.474 28.37C428.634 31.15 429.134 34.46 428.974 38.3H423.574V36.38C423.514 32.4 422.704 29.43 421.144 27.47C419.584 25.49 417.264 24.5 414.184 24.5C410.884 24.5 408.374 25.56 406.654 27.68C404.934 29.8 404.074 32.84 404.074 36.8C404.074 40.62 404.934 43.58 406.654 45.68C408.374 47.78 410.824 48.83 414.004 48.83C416.144 48.83 418.004 48.34 419.584 47.36C421.164 46.38 422.404 44.97 423.304 43.13L428.434 44.9C427.174 47.76 425.274 49.98 422.734 51.56C420.214 53.12 417.384 53.9 414.244 53.9ZM402.274 38.3V34.01H426.214V38.3H402.274ZM462.155 53C460.235 53.38 458.335 53.53 456.455 53.45C454.595 53.39 452.935 53.02 451.475 52.34C450.015 51.64 448.905 50.56 448.145 49.1C447.505 47.82 447.155 46.53 447.095 45.23C447.055 43.91 447.035 42.42 447.035 40.76V11.6H452.375V40.52C452.375 41.84 452.385 42.97 452.405 43.91C452.445 44.85 452.655 45.66 453.035 46.34C453.755 47.62 454.895 48.37 456.455 48.59C458.035 48.81 459.935 48.75 462.155 48.41V53ZM440.465 25.01V20.6H462.155V25.01H440.465ZM479.386 53.9C476.166 53.9 473.386 53.17 471.046 51.71C468.726 50.25 466.936 48.23 465.676 45.65C464.416 43.07 463.786 40.11 463.786 36.77C463.786 33.37 464.426 30.39 465.706 27.83C466.986 25.27 468.796 23.28 471.136 21.86C473.476 20.42 476.226 19.7 479.386 19.7C482.626 19.7 485.416 20.43 487.756 21.89C490.096 23.33 491.886 25.34 493.126 27.92C494.386 30.48 495.016 33.43 495.016 36.77C495.016 40.15 494.386 43.13 493.126 45.71C491.866 48.27 490.066 50.28 487.726 51.74C485.386 53.18 482.606 53.9 479.386 53.9ZM479.386 48.83C482.746 48.83 485.246 47.71 486.886 45.47C488.526 43.23 489.346 40.33 489.346 36.77C489.346 33.11 488.516 30.2 486.856 28.04C485.196 25.86 482.706 24.77 479.386 24.77C477.126 24.77 475.266 25.28 473.806 26.3C472.346 27.32 471.256 28.73 470.536 30.53C469.816 32.33 469.456 34.41 469.456 36.77C469.456 40.41 470.296 43.33 471.976 45.53C473.656 47.73 476.126 48.83 479.386 48.83ZM513.621 53.9C510.401 53.9 507.621 53.17 505.281 51.71C502.961 50.25 501.171 48.23 499.911 45.65C498.651 43.07 498.021 40.11 498.021 36.77C498.021 33.37 498.661 30.39 499.941 27.83C501.221 25.27 503.031 23.28 505.371 21.86C507.711 20.42 510.461 19.7 513.621 19.7C516.861 19.7 519.651 20.43 521.991 21.89C524.331 23.33 526.121 25.34 527.361 27.92C528.621 30.48 529.251 33.43 529.251 36.77C529.251 40.15 528.621 43.13 527.361 45.71C526.101 48.27 524.301 50.28 521.961 51.74C519.621 53.18 516.841 53.9 513.621 53.9ZM513.621 48.83C516.981 48.83 519.481 47.71 521.121 45.47C522.761 43.23 523.581 40.33 523.581 36.77C523.581 33.11 522.751 30.2 521.091 28.04C519.431 25.86 516.941 24.77 513.621 24.77C511.361 24.77 509.501 25.28 508.041 26.3C506.581 27.32 505.491 28.73 504.771 30.53C504.051 32.33 503.691 34.41 503.691 36.77C503.691 40.41 504.531 43.33 506.211 45.53C507.891 47.73 510.361 48.83 513.621 48.83ZM534.656 53V8.9H539.996V53H534.656ZM56.8751 113V78.83C56.8751 77.99 56.9151 77.14 56.9951 76.28C57.0751 75.4 57.2551 74.55 57.5351 73.73C57.8151 72.89 58.2751 72.12 58.9151 71.42C59.6551 70.6 60.4651 70.02 61.3451 69.68C62.2251 69.32 63.1151 69.1 64.0151 69.02C64.9351 68.94 65.8051 68.9 66.6251 68.9H70.7351V73.34H66.9251C65.3451 73.34 64.1651 73.73 63.3851 74.51C62.6051 75.27 62.2151 76.43 62.2151 77.99V113H56.8751ZM51.3851 85.01V80.6H70.7351V85.01H51.3851ZM86.3515 113.9C83.1315 113.9 80.3515 113.17 78.0115 111.71C75.6915 110.25 73.9015 108.23 72.6415 105.65C71.3815 103.07 70.7515 100.11 70.7515 96.77C70.7515 93.37 71.3915 90.39 72.6715 87.83C73.9515 85.27 75.7615 83.28 78.1015 81.86C80.4415 80.42 83.1915 79.7 86.3515 79.7C89.5915 79.7 92.3815 80.43 94.7215 81.89C97.0615 83.33 98.8515 85.34 100.092 87.92C101.352 90.48 101.982 93.43 101.982 96.77C101.982 100.15 101.352 103.13 100.092 105.71C98.8315 108.27 97.0315 110.28 94.6915 111.74C92.3515 113.18 89.5715 113.9 86.3515 113.9ZM86.3515 108.83C89.7115 108.83 92.2115 107.71 93.8515 105.47C95.4915 103.23 96.3115 100.33 96.3115 96.77C96.3115 93.11 95.4815 90.2 93.8215 88.04C92.1615 85.86 89.6715 84.77 86.3515 84.77C84.0915 84.77 82.2315 85.28 80.7715 86.3C79.3115 87.32 78.2215 88.73 77.5015 90.53C76.7815 92.33 76.4215 94.41 76.4215 96.77C76.4215 100.41 77.2615 103.33 78.9415 105.53C80.6215 107.73 83.0915 108.83 86.3515 108.83ZM106.787 113V80.6H111.557V88.43L110.777 87.41C111.157 86.41 111.647 85.49 112.247 84.65C112.867 83.81 113.557 83.12 114.317 82.58C115.157 81.9 116.107 81.38 117.167 81.02C118.227 80.66 119.307 80.45 120.407 80.39C121.507 80.31 122.537 80.38 123.497 80.6V85.61C122.377 85.31 121.147 85.23 119.807 85.37C118.467 85.51 117.227 86 116.087 86.84C115.047 87.58 114.237 88.48 113.657 89.54C113.097 90.6 112.707 91.75 112.487 92.99C112.267 94.21 112.157 95.46 112.157 96.74V113H106.787Z" fill="#13131A"/>
<path d="M158.125 115.852C155.086 115.915 152.511 115.219 150.4 113.763C148.288 112.287 146.666 110.27 145.532 107.713C144.418 105.136 143.827 102.238 143.76 99.0187C143.691 95.7594 144.16 92.8289 145.166 90.2273C146.191 87.6253 147.729 85.5626 149.777 84.0394C151.846 82.5157 154.4 81.7221 157.439 81.6584C160.438 81.5956 163.033 82.2914 165.224 83.7458C167.435 85.1798 169.147 87.1744 170.361 89.7296C171.575 92.2847 172.215 95.1819 172.283 98.4212C172.351 101.66 171.832 104.582 170.727 107.186C169.621 109.789 167.994 111.874 165.846 113.439C163.718 114.984 161.145 115.788 158.125 115.852ZM143.2 115.264L142.295 72.0734L147.664 71.961L148.069 91.3067L147.469 91.3193L147.969 115.164L143.2 115.264ZM157.363 110.976C159.502 110.932 161.261 110.355 162.638 109.246C164.015 108.136 165.034 106.655 165.695 104.801C166.356 102.926 166.663 100.839 166.615 98.5399C166.567 96.2604 166.174 94.2082 165.435 92.3833C164.717 90.5579 163.627 89.1204 162.164 88.0708C160.722 87.0208 158.901 86.5188 156.702 86.5649C154.602 86.6089 152.873 87.1652 151.515 88.2339C150.157 89.2826 149.157 90.7338 148.516 92.5877C147.874 94.4215 147.578 96.5382 147.629 98.9376C147.678 101.297 148.052 103.4 148.751 105.246C149.469 107.071 150.54 108.499 151.961 109.529C153.383 110.54 155.183 111.022 157.363 110.976ZM189.714 115.13C187.634 115.173 185.838 114.881 184.324 114.253C182.831 113.624 181.582 112.77 180.58 111.69C179.577 110.611 178.781 109.408 178.193 108.08C177.605 106.752 177.177 105.39 176.908 103.996C176.658 102.6 176.521 101.293 176.495 100.073L176.12 82.1673L181.519 82.0542L181.859 98.2806C181.891 99.8003 182.062 101.267 182.371 102.681C182.681 104.095 183.178 105.365 183.861 106.49C184.565 107.616 185.484 108.497 186.617 109.133C187.771 109.769 189.198 110.07 190.897 110.034C192.237 110.006 193.452 109.75 194.542 109.267C195.632 108.784 196.558 108.085 197.319 107.169C198.079 106.233 198.655 105.06 199.045 103.652C199.436 102.243 199.612 100.609 199.573 98.7498L203.105 99.756C203.17 102.875 202.656 105.577 201.564 107.86C200.492 110.143 198.938 111.916 196.904 113.179C194.89 114.421 192.493 115.072 189.714 115.13ZM200.494 114.064L200.312 105.396L199.712 105.408L199.215 81.6835L204.584 81.571L205.263 113.964L200.494 114.064ZM224.116 114.439C220.257 114.52 217.07 113.747 214.556 112.119C212.06 110.471 210.501 108.133 209.878 105.105L215.318 104.121C215.795 105.872 216.834 107.25 218.435 108.257C220.037 109.244 222.007 109.712 224.346 109.663C226.566 109.617 228.296 109.121 229.536 108.174C230.777 107.228 231.38 105.965 231.347 104.386C231.328 103.466 231.103 102.73 230.671 102.179C230.239 101.608 229.358 101.087 228.028 100.614C226.717 100.142 224.735 99.583 222.081 98.9384C219.206 98.2385 216.94 97.4958 215.283 96.7103C213.626 95.9248 212.437 94.9995 211.714 93.9344C210.992 92.8693 210.614 91.567 210.582 90.0273C210.542 88.1277 211.027 86.4572 212.037 85.0157C213.047 83.5542 214.473 82.4141 216.317 81.5953C218.18 80.7761 220.351 80.3406 222.831 80.2886C225.29 80.2371 227.498 80.581 229.454 81.3202C231.41 82.0594 232.993 83.1364 234.202 84.5514C235.432 85.946 236.177 87.5907 236.436 89.4857L230.998 90.5898C230.702 88.8557 229.833 87.5036 228.393 86.5335C226.972 85.5631 225.151 85.0711 222.931 85.0576C220.829 85.0216 219.128 85.4273 217.825 86.2748C216.542 87.1218 215.916 88.2452 215.945 89.6449C215.962 90.4247 216.215 91.0895 216.707 91.6394C217.219 92.1888 218.14 92.6996 219.47 93.1718C220.82 93.6437 222.771 94.1729 225.324 94.7596C228.199 95.4195 230.465 96.1622 232.122 96.9877C233.8 97.7928 235 98.7678 235.725 99.9129C236.448 101.038 236.828 102.44 236.863 104.12C236.928 107.239 235.83 109.723 233.568 111.571C231.306 113.398 228.155 114.355 224.116 114.439ZM241.672 75.0629L241.556 69.5441L246.895 69.4323L247.011 74.9511L241.672 75.0629ZM242.47 113.185L241.792 80.7917L247.131 80.6798L247.809 113.073L242.47 113.185ZM278.074 112.439L277.734 96.2123C277.702 94.6727 277.531 93.1959 277.221 91.7821C276.931 90.3678 276.435 89.108 275.732 88.0025C275.048 86.8765 274.129 85.9956 272.976 85.3596C271.842 84.7232 270.416 84.423 268.696 84.459C267.356 84.4871 266.141 84.7426 265.051 85.2255C263.981 85.688 263.065 86.3874 262.305 87.3235C261.544 88.2596 260.958 89.4322 260.548 90.8411C260.157 92.2296 259.981 93.8636 260.02 95.7432L256.489 94.7369C256.423 91.5976 256.926 88.8965 257.999 86.6335C259.092 84.3501 260.645 82.5872 262.659 81.3448C264.693 80.0819 267.1 79.4213 269.879 79.3631C271.979 79.3191 273.776 79.6116 275.269 80.2404C276.763 80.8693 278.011 81.7233 279.014 82.8026C280.016 83.8618 280.811 85.0654 281.4 86.4134C281.988 87.7414 282.406 89.1029 282.655 90.498C282.924 91.8727 283.072 93.1799 283.098 94.4196L283.473 112.326L278.074 112.439ZM254.979 112.923L254.3 80.5296L259.099 80.4291L259.281 89.0972L259.881 89.0846L260.378 112.809L254.979 112.923ZM303.234 112.812C300.055 112.879 297.261 112.237 294.852 110.887C292.462 109.517 290.582 107.586 289.209 105.094C287.836 102.582 287.114 99.6366 287.044 96.2574C286.969 92.7181 287.555 89.6452 288.801 87.0385C290.046 84.4119 291.814 82.3744 294.104 80.9261C296.414 79.4574 299.138 78.6902 302.278 78.6245C305.537 78.5562 308.322 79.248 310.633 80.6999C312.964 82.1514 314.728 84.2549 315.926 87.0105C317.144 89.7656 317.713 93.0644 317.634 96.9069L312.235 97.02L312.195 95.1004C312.052 91.1225 311.18 88.1701 309.579 86.2432C307.978 84.2963 305.637 83.3551 302.558 83.4196C299.259 83.4887 296.772 84.6011 295.096 86.7566C293.421 88.9122 292.625 91.9695 292.708 95.9287C292.788 99.7478 293.71 102.689 295.473 104.753C297.237 106.816 299.708 107.815 302.888 107.748C305.027 107.703 306.877 107.174 308.436 106.162C309.995 105.149 311.205 103.713 312.066 101.855L317.232 103.517C316.032 106.402 314.179 108.662 311.673 110.295C309.186 111.907 306.373 112.746 303.234 112.812ZM290.94 97.466L290.85 93.177L314.785 92.6756L314.875 96.9647L290.94 97.466ZM335.075 112.115C331.216 112.196 328.029 111.422 325.515 109.795C323.02 108.147 321.46 105.809 320.837 102.781L326.277 101.797C326.754 103.547 327.793 104.926 329.395 105.933C330.996 106.919 332.966 107.388 335.305 107.339C337.525 107.293 339.255 106.796 340.495 105.85C341.736 104.904 342.34 103.641 342.306 102.061C342.287 101.141 342.062 100.406 341.63 99.855C341.198 99.2839 340.317 98.7622 338.987 98.29C337.677 97.8173 335.694 97.2587 333.04 96.6142C330.165 95.9142 327.899 95.1715 326.242 94.386C324.585 93.6006 323.396 92.6753 322.673 91.6102C321.951 90.5451 321.573 89.2427 321.541 87.703C321.501 85.8034 321.987 84.1329 322.997 82.6914C324.006 81.23 325.433 80.0899 327.276 79.2711C329.139 78.4519 331.311 78.0163 333.79 77.9644C336.249 77.9129 338.457 78.2567 340.413 78.9959C342.369 79.7351 343.952 80.8122 345.162 82.2272C346.391 83.6217 347.136 85.2665 347.396 87.1615L341.958 88.2656C341.661 86.5314 340.793 85.1793 339.352 84.2093C337.931 83.2388 336.111 82.7468 333.89 82.7333C331.789 82.6973 330.087 83.103 328.784 83.9505C327.502 84.7976 326.875 85.9209 326.904 87.3206C326.921 88.1004 327.175 88.7653 327.666 89.3151C328.178 89.8645 329.099 90.3753 330.429 90.8476C331.779 91.3194 333.731 91.8487 336.284 92.4353C339.158 93.0953 341.424 93.838 343.082 94.6634C344.759 95.4685 345.96 96.4436 346.684 97.5886C347.408 98.7137 347.787 100.116 347.822 101.796C347.887 104.915 346.789 107.399 344.527 109.246C342.265 111.074 339.115 112.03 335.075 112.115ZM365.085 111.486C361.226 111.567 358.039 110.794 355.525 109.166C353.03 107.518 351.47 105.18 350.847 102.152L356.287 101.168C356.764 102.919 357.803 104.297 359.405 105.304C361.006 106.291 362.976 106.759 365.315 106.71C367.535 106.664 369.265 106.168 370.505 105.221C371.746 104.275 372.349 103.012 372.316 101.433C372.297 100.513 372.072 99.7774 371.64 99.2264C371.208 98.6553 370.327 98.1336 368.997 97.6614C367.686 97.1887 365.704 96.6301 363.05 95.9855C360.175 95.2856 357.909 94.5429 356.252 93.7574C354.595 92.9719 353.406 92.0467 352.683 90.9816C351.961 89.9165 351.583 88.6141 351.551 87.0744C351.511 85.1748 351.996 83.5043 353.006 82.0628C354.016 80.6014 355.442 79.4612 357.286 78.6425C359.149 77.8233 361.32 77.3877 363.8 77.3358C366.259 77.2842 368.467 77.6281 370.423 78.3673C372.379 79.1065 373.962 80.1836 375.172 81.5985C376.401 82.9931 377.146 84.6379 377.405 86.5328L371.967 87.637C371.671 85.9028 370.802 84.5507 369.362 83.5806C367.941 82.6102 366.12 82.1182 363.9 82.1047C361.798 82.0687 360.097 82.4744 358.794 83.3219C357.512 84.1689 356.885 85.2923 356.914 86.692C356.931 87.4718 357.185 88.1367 357.676 88.6865C358.188 89.2359 359.109 89.7467 360.439 90.219C361.789 90.6908 363.741 91.22 366.293 91.8067C369.168 92.4667 371.434 93.2094 373.092 94.0348C374.769 94.8399 375.969 95.8149 376.694 96.96C377.417 98.0851 377.797 99.4875 377.832 101.167C377.897 104.286 376.799 106.77 374.537 108.618C372.275 110.446 369.124 111.402 365.085 111.486ZM431.771 109.219L431.366 88.4932C431.316 86.0737 430.626 84.1977 429.298 82.8653C427.989 81.5124 426.305 80.8575 424.246 80.9006C423.046 80.9258 421.912 81.2296 420.844 81.8121C419.776 82.3746 418.914 83.2528 418.259 84.4468C417.603 85.6208 417.295 87.1176 417.333 88.9372L414.489 87.8565C414.401 85.5578 414.829 83.5384 415.773 81.7983C416.736 80.0377 418.068 78.6595 419.767 77.6637C421.467 76.6679 423.396 76.1474 425.556 76.1022C428.935 76.0314 431.616 77.0054 433.599 79.0244C435.581 81.0233 436.608 83.7524 436.681 87.2116L437.109 109.107L431.771 109.219ZM393.019 110.031L392.341 77.6381L397.109 77.5382L397.291 86.2063L397.891 86.1937L398.388 109.919L393.019 110.031ZM412.425 109.625L412.025 89.1084C411.973 86.6289 411.293 84.7028 409.984 83.3299C408.674 81.937 406.96 81.2627 404.84 81.3071C402.741 81.3511 401.056 82.1066 399.786 83.5735C398.517 85.0404 397.907 86.9636 397.957 89.3431L395.102 87.7225C395.058 85.6229 395.519 83.7329 396.484 82.0523C397.449 80.3717 398.781 79.0435 400.481 78.0677C402.181 77.0719 404.12 76.5512 406.3 76.5055C408.479 76.4599 410.389 76.88 412.028 77.7658C413.666 78.6517 414.944 79.9452 415.86 81.6464C416.775 83.3276 417.257 85.348 417.307 87.7075L417.734 109.513L412.425 109.625ZM452.379 109.688C449.959 109.738 447.921 109.341 446.263 108.496C444.624 107.63 443.37 106.476 442.499 105.034C441.649 103.591 441.205 102 441.169 100.26C441.133 98.5609 441.423 97.0845 442.036 95.8313C442.67 94.5578 443.568 93.4988 444.731 92.6542C445.893 91.7897 447.289 91.1003 448.918 90.5861C450.449 90.1339 452.161 89.738 454.054 89.3982C455.967 89.0381 457.901 88.7075 459.855 88.4066C461.809 88.1056 463.633 87.8173 465.328 87.5417L463.432 88.6917C463.431 85.8111 462.807 83.6937 461.558 82.3396C460.33 80.985 458.236 80.3387 455.276 80.4007C453.317 80.4417 451.606 80.9277 450.146 81.8585C448.704 82.7688 447.705 84.2301 447.147 86.2422L442.046 84.8187C442.766 81.963 444.229 79.7019 446.435 78.0353C448.64 76.3688 451.573 75.4972 455.232 75.4205C458.171 75.359 460.702 75.8361 462.824 76.8518C464.965 77.8472 466.518 79.395 467.482 81.4953C467.963 82.4855 468.275 83.5691 468.42 84.7464C468.564 85.9036 468.65 87.1221 468.677 88.4018L469.096 108.437L464.357 108.537L464.195 100.768L465.32 101.465C464.155 104.11 462.487 106.125 460.315 107.511C458.164 108.896 455.518 109.622 452.379 109.688ZM453.095 105.202C455.015 105.162 456.667 104.787 458.053 104.078C459.458 103.348 460.578 102.414 461.415 101.277C462.251 100.119 462.785 98.8675 463.017 97.5223C463.295 96.5163 463.432 95.4032 463.427 94.183C463.441 92.9425 463.441 91.9922 463.427 91.3324L465.304 92.1033C463.569 92.3796 461.864 92.6454 460.189 92.9005C458.514 93.1557 456.929 93.4289 455.435 93.7203C453.941 93.9916 452.597 94.3098 451.404 94.6749C450.53 94.9733 449.708 95.3506 448.937 95.8068C448.187 96.2626 447.579 96.8455 447.114 97.5554C446.668 98.2449 446.456 99.0995 446.477 100.119C446.496 100.999 446.733 101.834 447.19 102.625C447.667 103.415 448.38 104.05 449.33 104.531C450.301 105.01 451.555 105.234 453.095 105.202ZM498.16 107.829L497.82 91.6022C497.788 90.0625 497.617 88.5858 497.307 87.1719C497.018 85.7577 496.521 84.4978 495.818 83.3923C495.134 82.2664 494.215 81.3854 493.062 80.7494C491.928 80.113 490.502 79.8129 488.782 79.8489C487.442 79.8769 486.227 80.1324 485.137 80.6154C484.067 81.0779 483.151 81.7772 482.391 82.7134C481.63 83.6495 481.044 84.822 480.634 86.2309C480.243 87.6194 480.067 89.2534 480.106 91.133L476.575 90.1268C476.509 86.9875 477.012 84.2863 478.085 82.0234C479.178 79.74 480.731 77.9771 482.745 76.7346C484.779 75.4717 487.186 74.8112 489.966 74.753C492.065 74.709 493.862 75.0014 495.355 75.6303C496.849 76.2592 498.097 77.1132 499.1 78.1924C500.102 79.2517 500.897 80.4553 501.486 81.8033C502.074 83.1312 502.492 84.4928 502.742 85.8879C503.01 87.2625 503.158 88.5697 503.184 89.8095L503.559 107.716L498.16 107.829ZM475.065 108.312L474.387 75.9195L479.186 75.819L479.367 84.4871L479.967 84.4745L480.464 108.199L475.065 108.312ZM518.784 108.297C516.364 108.347 514.326 107.95 512.668 107.105C511.029 106.239 509.775 105.085 508.904 103.643C508.054 102.2 507.61 100.609 507.574 98.8695C507.538 97.1699 507.828 95.6935 508.441 94.4404C509.075 93.1668 509.973 92.1078 511.136 91.2632C512.298 90.3987 513.694 89.7093 515.323 89.1951C516.854 88.7429 518.566 88.347 520.459 88.0073C522.372 87.6471 524.306 87.3166 526.26 87.0156C528.214 86.7146 530.038 86.4263 531.733 86.1508L529.837 87.3007C529.836 84.4201 529.212 82.3027 527.963 80.9486C526.735 79.594 524.641 78.9477 521.681 79.0097C519.722 79.0507 518.011 79.5367 516.551 80.4675C515.109 81.3779 514.11 82.8391 513.552 84.8512L508.451 83.4277C509.171 80.572 510.634 78.3109 512.84 76.6443C515.045 74.9778 517.978 74.1062 521.637 74.0295C524.576 73.968 527.107 74.4451 529.229 75.4609C531.37 76.4562 532.923 78.0041 533.887 80.1043C534.368 81.0945 534.68 82.1782 534.825 83.3554C534.969 84.5126 535.055 85.7311 535.082 87.0108L535.501 107.046L530.762 107.146L530.6 99.3774L531.725 100.074C530.56 102.719 528.892 104.734 526.72 106.12C524.569 107.505 521.923 108.231 518.784 108.297ZM519.5 103.811C521.42 103.771 523.072 103.396 524.458 102.687C525.863 101.957 526.983 101.023 527.82 99.8857C528.656 98.728 529.19 97.4765 529.421 96.1314C529.7 95.1253 529.837 94.0122 529.832 92.792C529.846 91.5515 529.846 90.6013 529.832 89.9414L531.708 90.7123C529.974 90.9887 528.269 91.2544 526.594 91.5096C524.919 91.7647 523.334 92.0379 521.84 92.3293C520.346 92.6007 519.002 92.9189 517.809 93.2839C516.935 93.5823 516.113 93.9596 515.342 94.4158C514.592 94.8716 513.984 95.4545 513.519 96.1644C513.073 96.8539 512.861 97.7085 512.882 98.7283C512.901 99.6081 513.138 100.443 513.595 101.234C514.072 102.024 514.785 102.659 515.735 103.14C516.705 103.619 517.96 103.843 519.5 103.811ZM554.928 121.943C553.228 121.978 551.563 121.753 549.932 121.267C548.302 120.781 546.796 120.023 545.414 118.991C544.052 117.98 542.905 116.683 541.972 115.103L546.806 112.421C547.639 113.984 548.793 115.11 550.268 115.799C551.763 116.488 553.29 116.816 554.85 116.783C556.909 116.74 558.611 116.324 559.955 115.536C561.299 114.768 562.275 113.637 562.884 112.144C563.513 110.651 563.794 108.804 563.728 106.605L563.543 97.7571L564.173 97.7439L563.677 74.0491L568.415 73.9499L569.098 106.553C569.117 107.433 569.105 108.283 569.062 109.104C569.039 109.925 568.956 110.737 568.813 111.54C568.441 113.848 567.651 115.755 566.442 117.261C565.234 118.786 563.657 119.93 561.713 120.69C559.769 121.471 557.507 121.889 554.928 121.943ZM554.236 107.554C551.217 107.617 548.612 106.922 546.421 105.467C544.229 103.993 542.517 101.978 541.283 99.4237C540.069 96.8685 539.428 93.9713 539.361 90.732C539.293 87.4927 539.812 84.5712 540.917 81.9675C542.043 79.3634 543.67 77.2988 545.799 75.7739C547.927 74.229 550.491 73.4251 553.49 73.3623C556.549 73.2982 559.134 73.9842 561.245 75.4204C563.355 76.8565 564.967 78.8531 566.081 81.4104C567.215 83.9672 567.816 86.8753 567.884 90.1345C567.952 93.3538 567.473 96.2745 566.448 98.8965C565.442 101.498 563.915 103.581 561.867 105.144C559.819 106.687 557.275 107.491 554.236 107.554ZM554.794 102.651C556.973 102.606 558.752 102.048 560.13 100.979C561.507 99.8902 562.507 98.419 563.128 96.5656C563.769 94.6917 564.065 92.5751 564.015 90.2156C563.965 87.8161 563.581 85.7137 562.863 83.9083C562.164 82.0826 561.115 80.6742 559.714 79.6834C558.312 78.6725 556.552 78.1892 554.432 78.2336C552.233 78.2797 550.424 78.8577 549.007 79.9676C547.61 81.0771 546.581 82.559 545.92 84.4133C545.278 86.2671 544.982 88.3338 545.029 90.6133C545.078 92.9128 545.471 94.985 546.21 96.8299C546.948 98.6549 548.029 100.093 549.451 101.143C550.893 102.193 552.674 102.696 554.794 102.651ZM589.725 106.811C586.546 106.877 583.752 106.236 581.343 104.886C578.954 103.516 577.073 101.585 575.7 99.0928C574.327 96.581 573.605 93.6355 573.535 90.2562C573.461 86.717 574.046 83.6441 575.292 81.0374C576.537 78.4108 578.305 76.3733 580.595 74.925C582.905 73.4563 585.629 72.6891 588.769 72.6233C592.028 72.5551 594.813 73.2469 597.124 74.6988C599.455 76.1503 601.219 78.2538 602.417 81.0093C603.635 83.7644 604.205 87.0632 604.125 90.9057L598.726 91.0188L598.686 89.0992C598.543 85.1214 597.671 82.169 596.07 80.2421C594.469 78.2952 592.129 77.354 589.049 77.4185C585.75 77.4876 583.263 78.5999 581.587 80.7555C579.912 82.9111 579.116 85.9684 579.199 89.9275C579.279 93.7467 580.201 96.688 581.964 98.7516C583.728 100.815 586.199 101.814 589.379 101.747C591.518 101.702 593.368 101.173 594.927 100.16C596.486 99.1475 597.696 97.7119 598.557 95.8534L603.723 97.5156C602.523 100.401 600.67 102.661 598.164 104.294C595.677 105.906 592.864 106.745 589.725 106.811ZM577.431 91.4649L577.341 87.1758L601.276 86.6745L601.366 90.9635L577.431 91.4649ZM647.154 104.708L646.75 83.9816C646.699 81.5621 646.01 79.6861 644.681 78.3536C643.373 77.0007 641.689 76.3459 639.629 76.389C638.429 76.4141 637.295 76.718 636.227 77.3005C635.159 77.8629 634.297 78.7412 633.642 79.9352C632.986 81.1092 632.678 82.606 632.716 84.4256L629.873 83.3449C629.784 81.0462 630.212 79.0268 631.156 77.2867C632.119 75.5261 633.451 74.1479 635.15 73.1521C636.85 72.1563 638.779 71.6358 640.939 71.5905C644.318 71.5197 646.999 72.4938 648.982 74.5127C650.964 76.5117 651.991 79.2407 652.064 82.7L652.493 104.596L647.154 104.708ZM608.402 105.519L607.724 73.1265L612.493 73.0266L612.674 81.6947L613.274 81.6821L613.771 105.407L608.402 105.519ZM627.808 105.113L627.408 84.5967C627.356 82.1173 626.676 80.1911 625.367 78.8182C624.057 77.4253 622.343 76.7511 620.223 76.7955C618.124 76.8395 616.439 77.5949 615.17 79.0618C613.9 80.5287 613.29 82.4519 613.34 84.8314L610.486 83.2108C610.442 81.1113 610.902 79.2212 611.867 77.5407C612.832 75.8601 614.165 74.5319 615.865 73.5561C617.564 72.5603 619.504 72.0395 621.683 71.9939C623.863 71.9482 625.772 72.3683 627.411 73.2542C629.05 74.1401 630.327 75.4336 631.243 77.1348C632.158 78.816 632.641 80.8363 632.69 83.1958L633.117 105.002L627.808 105.113ZM672.298 105.081C669.119 105.148 666.325 104.506 663.916 103.156C661.527 101.786 659.646 99.855 658.273 97.3632C656.901 94.8514 656.179 91.9058 656.108 88.5266C656.034 84.9873 656.62 81.9144 657.865 79.3077C659.111 76.6811 660.878 74.6436 663.168 73.1953C665.478 71.7266 668.203 70.9594 671.342 70.8937C674.601 70.8254 677.386 71.5172 679.697 72.9691C682.028 74.4206 683.793 76.5241 684.991 79.2797C686.209 82.0348 686.778 85.3336 686.698 89.1761L681.299 89.2892L681.259 87.3696C681.116 83.3917 680.244 80.4393 678.643 78.5124C677.042 76.5655 674.702 75.6243 671.623 75.6888C668.323 75.7579 665.836 76.8703 664.161 79.0258C662.486 81.1814 661.689 84.2387 661.772 88.1979C661.852 92.017 662.774 94.9584 664.538 97.0219C666.301 99.0854 668.773 100.084 671.952 100.017C674.092 99.9725 675.941 99.4436 677.5 98.4307C679.059 97.4179 680.269 95.9822 681.131 94.1238L686.297 95.7859C685.097 98.6717 683.244 100.931 680.737 102.564C678.251 104.176 675.438 105.015 672.298 105.081ZM660.004 89.7352L659.914 85.4462L683.849 84.9448L683.939 89.2339L660.004 89.7352ZM714.071 103.306L713.731 87.0795C713.698 85.5398 713.527 84.0631 713.218 82.6493C712.928 81.235 712.432 79.9751 711.728 78.8696C711.045 77.7437 710.126 76.8627 708.972 76.2268C707.839 75.5904 706.412 75.2902 704.692 75.3262C703.353 75.3543 702.138 75.6098 701.048 76.0927C699.977 76.5552 699.062 77.2545 698.301 78.1907C697.541 79.1268 696.955 80.2993 696.544 81.7082C696.153 83.0967 695.978 84.7308 696.017 86.6104L692.485 85.6041C692.419 82.4648 692.923 79.7637 693.996 77.5007C695.088 75.2173 696.642 73.4544 698.656 72.2119C700.69 70.9491 703.097 70.2885 705.876 70.2303C707.976 70.1863 709.772 70.4788 711.266 71.1076C712.759 71.7365 714.007 72.5905 715.01 73.6698C716.012 74.729 716.808 75.9326 717.396 77.2806C717.984 78.6086 718.403 79.9701 718.652 81.3652C718.921 82.7398 719.068 84.047 719.094 85.2868L719.469 103.193L714.071 103.306ZM690.976 103.79L690.297 71.3968L695.096 71.2963L695.278 79.9644L695.877 79.9518L696.374 103.677L690.976 103.79ZM743.554 102.688C741.642 103.108 739.745 103.298 737.864 103.258C736.003 103.237 734.336 102.901 732.862 102.252C731.388 101.583 730.255 100.526 729.465 99.0826C728.798 97.8163 728.421 96.5339 728.334 95.2354C728.266 93.9166 728.215 92.4273 728.181 90.7677L727.57 61.6141L732.909 61.5022L733.514 90.4159C733.542 91.7356 733.576 92.8652 733.615 93.8045C733.675 94.7435 733.902 95.5489 734.296 96.2208C735.043 97.4854 736.198 98.2114 737.762 98.3987C739.347 98.5856 741.245 98.4858 743.457 98.0994L743.554 102.688ZM721.282 75.1587L721.19 70.7497L742.875 70.2955L742.967 74.7045L721.282 75.1587Z" fill="url(#paint0_diamond_7310_17324)"/>
<path fill-rule="evenodd" clip-rule="evenodd" d="M314.909 20.0205C307.821 19.541 303.674 27.5674 302.032 33.0491L300.729 20.5846H291.5L294.876 52.8864H302.078L302.078 52.8871H305.455C305.576 52.3312 305.711 51.6982 305.859 51.005C307.488 43.363 310.678 28.3971 314.909 28.6042C316.499 28.682 317.497 29.9595 317.61 32.3314V52.8871H325.151C325.151 52.8802 325.151 52.8734 325.151 52.8665H329.205C329.29 52.4728 329.386 52.0184 329.492 51.5136C330.94 44.6344 334.36 28.3938 338.659 28.6042C340.249 28.682 341.248 29.9595 341.361 32.3314V53H349.351C349.464 48.4446 349.622 38.0237 349.351 33.6867C349.347 33.6163 349.343 33.5455 349.338 33.4744C349.003 28.07 348.546 20.6894 338.659 20.0205C330.646 19.4784 326.392 29.809 325.266 35.042L325.239 35.7668C325.217 34.982 325.188 34.2787 325.151 33.6867C325.133 33.4073 325.117 33.1223 325.101 32.8328L325.101 32.8319C324.798 27.5031 324.409 20.6632 314.909 20.0205Z" fill="#13131A"/>
<defs>
<radialGradient id="paint0_diamond_7310_17324" cx="0" cy="0" r="1" gradientUnits="userSpaceOnUse" gradientTransform="translate(636.362 50.3412) rotate(175.268) scale(751.294 272.341)">
<stop stop-color="#F3E7E9"/>
<stop offset="0.0001" stop-color="#F3E7E9"/>
<stop offset="0.921875" stop-color="#E3EEFF"/>
</radialGradient>
</defs>
</svg>
