<svg width="14" height="14" viewBox="0 0 14 14" fill="none" xmlns="http://www.w3.org/2000/svg">
<path d="M6.99987 10.0211C5.32461 10.0211 3.96654 8.66854 3.96654 7.00006C3.96654 5.33158 5.32461 3.979 6.99987 3.979C8.67513 3.979 10.0332 5.33158 10.0332 7.00006C10.0332 8.66854 8.67513 10.0211 6.99987 10.0211Z" fill="#13131A"/>
<path d="M7.00026 3.54742C6.88533 3.54742 6.77511 3.50195 6.69385 3.42101C6.61258 3.34008 6.56693 3.2303 6.56693 3.11584V0.957946C6.56693 0.843484 6.61258 0.73371 6.69385 0.652774C6.77511 0.571837 6.88533 0.526367 7.00026 0.526367C7.11519 0.526367 7.22541 0.571837 7.30667 0.652774C7.38794 0.73371 7.43359 0.843484 7.43359 0.957946V3.11584C7.43359 3.2303 7.38794 3.34008 7.30667 3.42101C7.22541 3.50195 7.11519 3.54742 7.00026 3.54742Z" fill="#13131A"/>
<path d="M10.0632 4.55743C10.0243 4.60261 9.97652 4.6393 9.92276 4.66521C9.869 4.69111 9.81044 4.70567 9.75076 4.70796C9.69108 4.71026 9.63157 4.70024 9.57596 4.67855C9.52036 4.65685 9.46985 4.62394 9.42762 4.58188C9.38539 4.53982 9.35235 4.48952 9.33056 4.43414C9.30877 4.37875 9.29872 4.31948 9.30102 4.26005C9.30333 4.20061 9.31795 4.14229 9.34396 4.08875C9.36997 4.0352 9.40681 3.98759 9.45217 3.9489L10.9818 2.42111C11.0634 2.33985 11.1741 2.29419 11.2895 2.29419C11.4049 2.29419 11.5156 2.33985 11.5972 2.42111C11.6788 2.50238 11.7246 2.6126 11.7246 2.72753C11.7246 2.84246 11.6788 2.95269 11.5972 3.03396L10.0632 4.55743Z" fill="#13131A"/>
<path d="M10.4667 6.99994C10.4667 6.88548 10.5123 6.7757 10.5936 6.69477C10.6749 6.61383 10.7851 6.56836 10.9 6.56836H13.0667C13.1816 6.56836 13.2918 6.61383 13.3731 6.69477C13.4543 6.7757 13.5 6.88548 13.5 6.99994C13.5 7.1144 13.4543 7.22417 13.3731 7.30511C13.2918 7.38605 13.1816 7.43152 13.0667 7.43152H10.9C10.7851 7.43152 10.6749 7.38605 10.5936 7.30511C10.5123 7.22417 10.4667 7.1144 10.4667 6.99994Z" fill="#13131A"/>
<path d="M10.0626 9.44281L11.5966 10.9663C11.6419 11.005 11.6788 11.0526 11.7048 11.1061C11.7308 11.1597 11.7454 11.218 11.7477 11.2774C11.75 11.3369 11.74 11.3961 11.7182 11.4515C11.6964 11.5069 11.6634 11.5572 11.6211 11.5993C11.5789 11.6413 11.5284 11.6742 11.4728 11.6959C11.4172 11.7176 11.3577 11.7276 11.298 11.7253C11.2383 11.723 11.1798 11.7085 11.126 11.6826C11.0722 11.6567 11.0244 11.62 10.9856 11.5748L9.45158 10.047C9.38059 9.96446 9.34349 9.85826 9.3477 9.74964C9.35192 9.64102 9.39713 9.53799 9.4743 9.46112C9.55147 9.38426 9.65493 9.33923 9.76399 9.33504C9.87305 9.33084 9.97968 9.36779 10.0626 9.43849V9.44281Z" fill="#13131A"/>
<path d="M7.00026 10.4526C7.11519 10.4526 7.22541 10.4981 7.30667 10.579C7.38794 10.66 7.43359 10.7698 7.43359 10.8842V13.0421C7.43359 13.1566 7.38794 13.2663 7.30667 13.3473C7.22541 13.4282 7.11519 13.4737 7.00026 13.4737C6.88533 13.4737 6.77511 13.4282 6.69385 13.3473C6.61258 13.2663 6.56693 13.1566 6.56693 13.0421V10.8842C6.56693 10.7698 6.61258 10.66 6.69385 10.579C6.77511 10.4981 6.88533 10.4526 7.00026 10.4526Z" fill="#13131A"/>
<path d="M3.93519 9.44289C4.01809 9.37218 4.12472 9.33524 4.23378 9.33943C4.34284 9.34363 4.4463 9.38866 4.52347 9.46552C4.60064 9.54238 4.64585 9.64542 4.65007 9.75403C4.65428 9.86265 4.61718 9.96885 4.54619 10.0514L3.01219 11.5792C2.92929 11.6499 2.82266 11.6869 2.7136 11.6827C2.60454 11.6785 2.50109 11.6334 2.42391 11.5566C2.34674 11.4797 2.30153 11.3767 2.29732 11.2681C2.29311 11.1594 2.3302 11.0532 2.40119 10.9707L3.93519 9.44289Z" fill="#13131A"/>
<path d="M0.933203 6.56836H3.09987C3.2148 6.56836 3.32502 6.61383 3.40628 6.69477C3.48755 6.7757 3.5332 6.88548 3.5332 6.99994C3.5332 7.1144 3.48755 7.22417 3.40628 7.30511C3.32502 7.38605 3.2148 7.43152 3.09987 7.43152H0.933203C0.818276 7.43152 0.708056 7.38605 0.62679 7.30511C0.545524 7.22417 0.49987 7.1144 0.49987 6.99994C0.49987 6.88548 0.545524 6.7757 0.62679 6.69477C0.708056 6.61383 0.818276 6.56836 0.933203 6.56836Z" fill="#13131A"/>
<path d="M4.24426 4.68678C4.18723 4.68711 4.1307 4.67622 4.0779 4.65475C4.02511 4.63327 3.97709 4.60162 3.93659 4.56163L2.40259 3.03384C2.3316 2.95127 2.29451 2.84507 2.29872 2.73645C2.30293 2.62784 2.34814 2.5248 2.42532 2.44794C2.50249 2.37108 2.60595 2.32605 2.715 2.32186C2.82406 2.31766 2.9307 2.35461 3.01359 2.42531L4.54759 3.94878C4.60871 4.00915 4.65039 4.08627 4.66732 4.17032C4.68425 4.25437 4.67566 4.34154 4.64265 4.42071C4.60965 4.49988 4.55372 4.56746 4.48199 4.61485C4.41027 4.66224 4.326 4.68728 4.23993 4.68678H4.24426Z" fill="#13131A"/>
</svg>
