<svg width="140" height="41" viewBox="0 0 140 41" fill="none" xmlns="http://www.w3.org/2000/svg">
<path d="M139.224 35.7314C139.224 37.8648 137.441 39.5929 135.237 39.5929H4.77119C2.5678 39.5929 0.779297 37.8648 0.779297 35.7314V4.93689C0.779297 2.80448 2.5678 1.07031 4.77119 1.07031H135.236C137.441 1.07031 139.223 2.80448 139.223 4.93689L139.224 35.7314Z" fill="#13131A"/>
<path d="M134.815 1.11724C137.216 1.11724 139.169 3.00256 139.169 5.31948V35.3445C139.169 37.6614 137.216 39.5467 134.815 39.5467H5.18518C2.78444 39.5467 0.830926 37.6614 0.830926 35.3445V5.31948C0.830926 3.00256 2.78444 1.11724 5.18518 1.11724H134.815ZM134.815 0.31532H5.18518C2.33463 0.31532 0 2.56845 0 5.31948V35.3445C0 38.0955 2.33463 40.3486 5.18518 40.3486H134.815C137.665 40.3486 140 38.0955 140 35.3445V5.31948C140 2.56845 137.665 0.31532 134.815 0.31532Z" fill="#FDFDFD" fill-opacity="0.1"/>
<path d="M31.2457 20.1154C31.2157 16.8897 33.9825 15.3204 34.109 15.2474C32.542 13.0425 30.1133 12.7413 29.2598 12.7173C27.22 12.5101 25.2413 13.8952 24.2022 13.8952C23.1423 13.8952 21.5422 12.7373 19.8176 12.7713C17.5983 12.8043 15.5222 14.0444 14.3835 15.97C12.0336 19.8962 13.7862 25.666 16.0376 28.8397C17.1638 30.394 18.4798 32.1294 20.2023 32.0684C21.8875 32.0013 22.517 31.0315 24.5506 31.0315C26.5656 31.0315 27.1567 32.0684 28.9135 32.0293C30.722 32.0013 31.8607 30.468 32.9475 28.8997C34.249 27.1182 34.7717 25.3638 34.7924 25.2737C34.7499 25.2597 31.28 23.9816 31.2457 20.1154Z" fill="#FDFDFD"/>
<path d="M27.9272 10.6295C28.8336 9.5356 29.4537 8.04737 29.2816 6.53711C27.9697 6.59316 26.3292 7.41284 25.3844 8.48273C24.5486 9.42551 23.8019 10.9708 23.9948 12.424C25.4684 12.5301 26.9815 11.7064 27.9272 10.6295Z" fill="#FDFDFD"/>
<path d="M55.6316 31.8455H53.2765L51.9864 27.9332H47.5022L46.2734 31.8455H43.9805L48.4231 18.5264H51.1671L55.6316 31.8455ZM51.5975 26.2918L50.4308 22.8139C50.3074 22.4586 50.0762 21.6219 49.735 20.3048H49.6935C49.5577 20.8713 49.3388 21.708 49.0381 22.8139L47.8922 26.2918H51.5975Z" fill="#FDFDFD"/>
<path d="M67.0579 26.9255C67.0579 28.5589 66.6005 29.8499 65.6859 30.7977C64.8666 31.6414 63.8493 32.0628 62.6349 32.0628C61.3241 32.0628 60.3825 31.6084 59.809 30.6996H59.7675V35.7589H57.5565V25.4032C57.5565 24.3764 57.5285 23.3225 57.4746 22.2416H59.4191L59.5425 23.7639H59.5839C60.3213 22.6169 61.4402 22.0444 62.9419 22.0444C64.1158 22.0444 65.0958 22.4918 65.8798 23.3876C66.6659 24.2843 67.0579 25.4633 67.0579 26.9255ZM64.8054 27.0036C64.8054 26.0688 64.5876 25.2981 64.15 24.6916C63.6719 24.0591 63.03 23.7428 62.2253 23.7428C61.6798 23.7428 61.1841 23.919 60.7413 24.2663C60.2974 24.6166 60.0071 25.074 59.8712 25.6404C59.8028 25.9046 59.7685 26.1208 59.7685 26.291V27.8923C59.7685 28.5909 59.9905 29.1804 60.4343 29.6618C60.8782 30.1432 61.4548 30.3834 62.1641 30.3834C62.9968 30.3834 63.645 30.0731 64.1085 29.4546C64.5731 28.8351 64.8054 28.0184 64.8054 27.0036Z" fill="#FDFDFD"/>
<path d="M78.5041 26.9255C78.5041 28.5589 78.0468 29.8499 77.1311 30.7977C76.3128 31.6414 75.2955 32.0628 74.0811 32.0628C72.7703 32.0628 71.8287 31.6084 71.2562 30.6996H71.2148V35.7589H69.0038V25.4032C69.0038 24.3764 68.9758 23.3225 68.9219 22.2416H70.8663L70.9897 23.7639H71.0312C71.7675 22.6169 72.8865 22.0444 74.3891 22.0444C75.562 22.0444 76.542 22.4918 77.3281 23.3876C78.1111 24.2843 78.5041 25.4633 78.5041 26.9255ZM76.2517 27.0036C76.2517 26.0688 76.0328 25.2981 75.5952 24.6916C75.1171 24.0591 74.4773 23.7428 73.6715 23.7428C73.125 23.7428 72.6303 23.919 72.1865 24.2663C71.7426 24.6166 71.4533 25.074 71.3174 25.6404C71.25 25.9046 71.2148 26.1208 71.2148 26.291V27.8923C71.2148 28.5909 71.4367 29.1804 71.8785 29.6618C72.3223 30.1422 72.8989 30.3834 73.6103 30.3834C74.4431 30.3834 75.0912 30.0731 75.5548 29.4546C76.0194 28.8351 76.2517 28.0184 76.2517 27.0036Z" fill="#FDFDFD"/>
<path d="M91.2981 28.1102C91.2981 29.2431 90.8906 30.1649 90.0723 30.8765C89.1732 31.6541 87.9215 32.0425 86.3131 32.0425C84.828 32.0425 83.6375 31.7662 82.7363 31.2128L83.2486 29.4343C84.2193 30.0008 85.2843 30.285 86.4448 30.285C87.2775 30.285 87.9257 30.1029 88.3913 29.7406C88.8548 29.3783 89.0861 28.8918 89.0861 28.2853C89.0861 27.7449 88.8953 27.2895 88.5126 26.9202C88.132 26.5509 87.4963 26.2076 86.6086 25.8903C84.1923 25.0206 82.9852 23.7466 82.9852 22.0712C82.9852 20.9763 83.4083 20.0785 84.2556 19.3799C85.0997 18.6803 86.226 18.3311 87.6343 18.3311C88.8901 18.3311 89.9334 18.5422 90.7661 18.9636L90.2134 20.703C89.4356 20.2947 88.5562 20.0905 87.572 20.0905C86.7943 20.0905 86.1866 20.2757 85.751 20.644C85.3829 20.9733 85.1983 21.3746 85.1983 21.85C85.1983 22.3764 85.4088 22.8118 85.8319 23.1541C86.2 23.4703 86.8689 23.8126 87.8396 24.1819C89.027 24.6433 89.8991 25.1828 90.4602 25.8013C91.0191 26.4178 91.2981 27.1894 91.2981 28.1102Z" fill="#FDFDFD"/>
<path d="M98.6112 23.842H96.1742V28.5049C96.1742 29.6908 96.6035 30.2833 97.4643 30.2833C97.8594 30.2833 98.1871 30.2503 98.4463 30.1843L98.5075 31.8046C98.072 31.9617 97.4985 32.0408 96.7881 32.0408C95.9149 32.0408 95.2326 31.7836 94.74 31.2702C94.2494 30.7557 94.0026 29.893 94.0026 28.681V23.84H92.5508V22.2386H94.0026V20.4802L96.1742 19.8477V22.2386H98.6112V23.842Z" fill="#FDFDFD"/>
<path d="M109.606 26.964C109.606 28.4402 109.169 29.6523 108.296 30.6C107.38 31.5759 106.165 32.0623 104.649 32.0623C103.189 32.0623 102.027 31.5949 101.16 30.6601C100.293 29.7253 99.8594 28.5453 99.8594 27.1231C99.8594 25.6349 100.305 24.4159 101.2 23.4681C102.093 22.5193 103.298 22.0449 104.813 22.0449C106.273 22.0449 107.448 22.5123 108.335 23.4481C109.183 24.3558 109.606 25.5278 109.606 26.964ZM107.313 27.0331C107.313 26.1473 107.117 25.3877 106.719 24.7542C106.256 23.9875 105.593 23.6052 104.734 23.6052C103.846 23.6052 103.171 23.9885 102.707 24.7542C102.31 25.3887 102.114 26.1603 102.114 27.0731C102.114 27.9588 102.31 28.7185 102.707 29.351C103.185 30.1176 103.853 30.5 104.715 30.5C105.559 30.5 106.222 30.1096 106.7 29.331C107.107 28.6854 107.313 27.9178 107.313 27.0331Z" fill="#FDFDFD"/>
<path d="M116.791 24.1182C116.572 24.0791 116.339 24.0591 116.094 24.0591C115.316 24.0591 114.715 24.3423 114.292 24.9098C113.924 25.4102 113.739 26.0428 113.739 26.8064V31.8456H111.529L111.55 25.2661C111.55 24.1592 111.522 23.1514 111.467 22.2426H113.393L113.473 24.0801H113.535C113.768 23.4486 114.136 22.9402 114.64 22.5589C115.133 22.2156 115.665 22.0444 116.238 22.0444C116.443 22.0444 116.627 22.0584 116.791 22.0835V24.1182Z" fill="#FDFDFD"/>
<path d="M126.68 26.5887C126.68 26.971 126.654 27.2933 126.599 27.5565H119.966C119.992 28.5053 120.312 29.2309 120.928 29.7313C121.487 30.1787 122.21 30.4028 123.098 30.4028C124.08 30.4028 124.976 30.2517 125.782 29.9485L126.128 31.4297C125.186 31.826 124.075 32.0232 122.792 32.0232C121.249 32.0232 120.038 31.5848 119.156 30.7091C118.277 29.8334 117.836 28.6574 117.836 27.1822C117.836 25.734 118.246 24.528 119.066 23.5662C119.925 22.5393 121.085 22.0259 122.545 22.0259C123.979 22.0259 125.065 22.5393 125.802 23.5662C126.386 24.3818 126.68 25.3907 126.68 26.5887ZM124.571 26.0352C124.586 25.4027 124.442 24.8562 124.142 24.3948C123.759 23.8014 123.171 23.5051 122.38 23.5051C121.657 23.5051 121.069 23.7944 120.62 24.3748C120.252 24.8362 120.033 25.3897 119.966 26.0342H124.571V26.0352Z" fill="#FDFDFD"/>
<path d="M50.8621 10.3321C50.8621 11.5101 50.496 12.3969 49.7649 12.9924C49.0877 13.5418 48.1254 13.817 46.8788 13.817C46.2608 13.817 45.7319 13.791 45.2891 13.739V7.30262C45.8667 7.21254 46.4889 7.1665 47.1609 7.1665C48.3483 7.1665 49.2433 7.41571 49.8468 7.91413C50.523 8.47759 50.8621 9.28327 50.8621 10.3321ZM49.7162 10.3612C49.7162 9.59753 49.5067 9.01204 49.0877 8.6037C48.6688 8.19636 48.0569 7.99219 47.2511 7.99219C46.9089 7.99219 46.6175 8.01421 46.3759 8.06025V12.9533C46.5097 12.9733 46.7544 12.9823 47.1101 12.9823C47.9418 12.9823 48.5837 12.7592 49.0359 12.3128C49.488 11.8664 49.7162 11.2159 49.7162 10.3612Z" fill="#FDFDFD"/>
<path d="M56.9364 11.3603C56.9364 12.0859 56.7218 12.6804 56.2924 13.1468C55.8424 13.6262 55.2461 13.8654 54.5015 13.8654C53.7838 13.8654 53.2124 13.6362 52.7862 13.1759C52.361 12.7165 52.1484 12.137 52.1484 11.4384C52.1484 10.7078 52.3673 10.1083 52.807 9.64292C53.2467 9.17753 53.8378 8.94434 54.5824 8.94434C55.3 8.94434 55.8766 9.17353 56.3132 9.63291C56.728 10.0793 56.9364 10.6558 56.9364 11.3603ZM55.8092 11.3944C55.8092 10.959 55.7117 10.5857 55.5178 10.2744C55.2896 9.89813 54.965 9.70997 54.543 9.70997C54.1064 9.70997 53.7745 9.89813 53.5464 10.2744C53.3514 10.5857 53.255 10.965 53.255 11.4134C53.255 11.8488 53.3524 12.2221 53.5464 12.5333C53.7818 12.9096 54.1095 13.0978 54.5326 13.0978C54.9474 13.0978 55.273 12.9066 55.5074 12.5233C55.7086 12.2061 55.8092 11.8297 55.8092 11.3944Z" fill="#FDFDFD"/>
<path d="M65.0869 9.04053L63.5572 13.7585H62.5617L61.9281 11.7097C61.7673 11.1983 61.6366 10.6899 61.535 10.1855H61.5153C61.4209 10.7039 61.2903 11.2113 61.1223 11.7097L60.4492 13.7585H59.4423L58.0039 9.04053H59.1208L59.6735 11.2834C59.8073 11.8138 59.9172 12.3193 60.0054 12.7977H60.0251C60.106 12.4033 60.2398 11.9009 60.4285 11.2934L61.1223 9.04153H62.0079L62.6726 11.2454C62.8334 11.7828 62.964 12.3002 63.0646 12.7987H63.0947C63.1683 12.3133 63.2793 11.7958 63.4266 11.2454L64.0198 9.04153H65.0869V9.04053Z" fill="#FDFDFD"/>
<path d="M70.7206 13.7584H69.6338V11.0562C69.6338 10.2235 69.3061 9.80713 68.6486 9.80713C68.3261 9.80713 68.0658 9.92122 67.8635 10.1504C67.6634 10.3796 67.5618 10.6498 67.5618 10.9591V13.7574H66.4749V10.3886C66.4749 9.97427 66.4615 9.52489 66.4355 9.03849H67.3907L67.4415 9.7761H67.4715C67.5981 9.54691 67.7868 9.35775 68.0347 9.20663C68.3292 9.03048 68.6589 8.94141 69.0198 8.94141C69.4761 8.94141 69.8557 9.08352 70.1575 9.36876C70.5329 9.71805 70.7206 10.2395 70.7206 10.9321V13.7584Z" fill="#FDFDFD"/>
<path d="M73.7166 13.7587H72.6309V6.87598H73.7166V13.7587Z" fill="#FDFDFD"/>
<path d="M80.1142 11.3603C80.1142 12.0859 79.8995 12.6804 79.4702 13.1468C79.0201 13.6262 78.4228 13.8654 77.6792 13.8654C76.9605 13.8654 76.3891 13.6362 75.9639 13.1759C75.5388 12.7165 75.3262 12.137 75.3262 11.4384C75.3262 10.7078 75.545 10.1083 75.9847 9.64292C76.4244 9.17753 77.0155 8.94434 77.7591 8.94434C78.4777 8.94434 79.0533 9.17353 79.4909 9.63291C79.9057 10.0793 80.1142 10.6558 80.1142 11.3603ZM78.9859 11.3944C78.9859 10.959 78.8884 10.5857 78.6945 10.2744C78.4674 9.89813 78.1417 9.70997 77.7207 9.70997C77.2831 9.70997 76.9512 9.89813 76.7241 10.2744C76.5291 10.5857 76.4327 10.965 76.4327 11.4134C76.4327 11.8488 76.5302 12.2221 76.7241 12.5333C76.9595 12.9096 77.2872 13.0978 77.7103 13.0978C78.1251 13.0978 78.4497 12.9066 78.6841 12.5233C78.8863 12.2061 78.9859 11.8297 78.9859 11.3944Z" fill="#FDFDFD"/>
<path d="M85.3766 13.7583H84.4008L84.3199 13.2149H84.2898C83.9559 13.6483 83.4799 13.8654 82.8618 13.8654C82.4003 13.8654 82.027 13.7223 81.746 13.4381C81.4908 13.1799 81.3633 12.8586 81.3633 12.4773C81.3633 11.9008 81.6122 11.4614 82.1131 11.1572C82.6129 10.8529 83.316 10.7038 84.2214 10.7108V10.6227C84.2214 10.0012 83.8833 9.69096 83.2061 9.69096C82.7239 9.69096 82.2987 9.80805 81.9316 10.0402L81.7107 9.35167C82.1649 9.08045 82.7259 8.94434 83.3876 8.94434C84.6652 8.94434 85.3061 9.59488 85.3061 10.896V12.6334C85.3061 13.1048 85.3299 13.4801 85.3766 13.7583ZM84.2483 12.137V11.4094C83.0495 11.3894 82.4501 11.7066 82.4501 12.3602C82.4501 12.6064 82.5185 12.7905 82.6585 12.9136C82.7985 13.0367 82.9769 13.0978 83.1895 13.0978C83.428 13.0978 83.651 13.0247 83.8542 12.8796C84.0585 12.7335 84.184 12.5483 84.2307 12.3211C84.2421 12.2701 84.2483 12.2081 84.2483 12.137Z" fill="#FDFDFD"/>
<path d="M91.5475 13.7587H90.5831L90.5323 13.0011H90.5022C90.1942 13.5776 89.6694 13.8658 88.9321 13.8658C88.3431 13.8658 87.8526 13.6426 87.4637 13.1962C87.0748 12.7499 86.8809 12.1704 86.8809 11.4588C86.8809 10.6952 87.0914 10.0766 87.5145 9.60425C87.9241 9.16388 88.426 8.9437 89.0234 8.9437C89.6798 8.9437 90.1392 9.15687 90.4006 9.58423H90.4213V6.87598H91.5091V12.4876C91.5091 12.947 91.5216 13.3704 91.5475 13.7587ZM90.4213 11.769V10.9824C90.4213 10.8463 90.4109 10.7362 90.3912 10.6521C90.33 10.3999 90.1983 10.1877 89.9982 10.0166C89.796 9.84545 89.5523 9.75938 89.2712 9.75938C88.8657 9.75938 88.5484 9.91451 88.3151 10.2258C88.0838 10.537 87.9666 10.9344 87.9666 11.4198C87.9666 11.8861 88.0776 12.2645 88.3006 12.5557C88.536 12.866 88.8533 13.0211 89.2505 13.0211C89.6072 13.0211 89.8924 12.892 90.1092 12.6328C90.3186 12.3936 90.4213 12.1053 90.4213 11.769Z" fill="#FDFDFD"/>
<path d="M100.845 11.3603C100.845 12.0859 100.63 12.6804 100.201 13.1468C99.7506 13.6262 99.1553 13.8654 98.4097 13.8654C97.6931 13.8654 97.1217 13.6362 96.6944 13.1759C96.2692 12.7165 96.0566 12.137 96.0566 11.4384C96.0566 10.7078 96.2755 10.1083 96.7152 9.64292C97.1549 9.17753 97.746 8.94434 98.4916 8.94434C99.2082 8.94434 99.7858 9.17353 100.221 9.63291C100.636 10.0793 100.845 10.6558 100.845 11.3603ZM99.7184 11.3944C99.7184 10.959 99.6209 10.5857 99.427 10.2744C99.1978 9.89813 98.8743 9.70997 98.4512 9.70997C98.0156 9.70997 97.6837 9.89813 97.4546 10.2744C97.2596 10.5857 97.1632 10.965 97.1632 11.4134C97.1632 11.8488 97.2606 12.2221 97.4546 12.5333C97.69 12.9096 98.0177 13.0978 98.4408 13.0978C98.8556 13.0978 99.1823 12.9066 99.4166 12.5233C99.6168 12.2061 99.7184 11.8297 99.7184 11.3944Z" fill="#FDFDFD"/>
<path d="M106.69 13.7584H105.604V11.0562C105.604 10.2235 105.277 9.80713 104.618 9.80713C104.296 9.80713 104.035 9.92122 103.834 10.1504C103.633 10.3796 103.532 10.6498 103.532 10.9591V13.7574H102.445V10.3886C102.445 9.97427 102.432 9.52489 102.406 9.03849H103.36L103.411 9.7761H103.441C103.569 9.54691 103.758 9.35775 104.004 9.20663C104.3 9.03048 104.629 8.94141 104.991 8.94141C105.446 8.94141 105.825 9.08352 106.127 9.36876C106.504 9.71805 106.69 10.2395 106.69 10.9321V13.7584Z" fill="#FDFDFD"/>
<path d="M114.005 9.82635H112.808V12.1183C112.808 12.7007 113.021 12.992 113.442 12.992C113.637 12.992 113.798 12.976 113.926 12.9429L113.954 13.7386C113.739 13.8167 113.457 13.8557 113.11 13.8557C112.68 13.8557 112.346 13.7296 112.105 13.4774C111.862 13.2252 111.742 12.8008 111.742 12.2053V9.82635H111.027V9.0407H111.742V8.17598L112.807 7.86572V9.0397H114.004V9.82635H114.005Z" fill="#FDFDFD"/>
<path d="M119.757 13.7587H118.67V11.0765C118.67 10.2308 118.342 9.80742 117.685 9.80742C117.181 9.80742 116.837 10.0526 116.648 10.543C116.616 10.6461 116.597 10.7722 116.597 10.9203V13.7577H115.512V6.87598H116.597V9.71934H116.618C116.96 9.20191 117.451 8.9437 118.087 8.9437C118.537 8.9437 118.909 9.08582 119.205 9.37105C119.573 9.72635 119.757 10.2548 119.757 10.9534V13.7587Z" fill="#FDFDFD"/>
<path d="M125.69 11.1769C125.69 11.3651 125.675 11.5232 125.65 11.6523H122.39C122.405 12.1187 122.56 12.474 122.862 12.7202C123.138 12.9404 123.494 13.0505 123.929 13.0505C124.411 13.0505 124.851 12.9764 125.247 12.8273L125.417 13.5559C124.954 13.75 124.408 13.8471 123.777 13.8471C123.02 13.8471 122.423 13.6319 121.992 13.2016C121.558 12.7712 121.344 12.1937 121.344 11.4691C121.344 10.7576 121.544 10.1651 121.947 9.69266C122.368 9.18824 122.938 8.93604 123.656 8.93604C124.359 8.93604 124.894 9.18824 125.254 9.69266C125.546 10.093 125.69 10.5884 125.69 11.1769ZM124.653 10.9057C124.661 10.5944 124.59 10.3262 124.442 10.1C124.254 9.80876 123.966 9.66264 123.578 9.66264C123.223 9.66264 122.934 9.80476 122.713 10.09C122.532 10.3172 122.425 10.5884 122.39 10.9057H124.653Z" fill="#FDFDFD"/>
</svg>
