<svg width="79" height="16" viewBox="0 0 79 16" fill="none" xmlns="http://www.w3.org/2000/svg">
<path fill-rule="evenodd" clip-rule="evenodd" d="M7.73308 3.94523C5.39084 3.78745 4.02089 6.42986 3.47898 8.23279L3.04836 4.13075H0L1.11525 14.7545H3.49512L3.49512 14.7547H4.61037C4.65055 14.5719 4.6951 14.3638 4.74389 14.1359L4.74393 14.1357C5.28198 11.6223 6.33566 6.70019 7.73308 6.76831C8.25819 6.7939 8.58811 7.21405 8.62528 7.99412V14.7547H11.116C11.1161 14.7524 11.1161 14.7502 11.1162 14.7479H12.4527C12.4807 14.6184 12.5123 14.469 12.5474 14.3029C13.0258 12.0404 14.1554 6.69909 15.5754 6.76831C16.1005 6.7939 16.4304 7.21405 16.4676 7.99412V14.7918H19.107C19.1442 13.2936 19.1963 9.86627 19.107 8.43987C19.1056 8.41671 19.1042 8.39344 19.1027 8.37005C18.9921 6.59261 18.841 4.16521 15.5754 3.94523C12.9285 3.76693 11.5233 7.16453 11.1516 8.88562L11.144 9.08602C11.1368 8.84318 11.1276 8.62498 11.116 8.43987C11.1103 8.34791 11.1049 8.25407 11.0995 8.15877V8.15875C10.9994 6.40616 10.871 4.15661 7.73308 3.94523Z" fill="#000000"/>
<path d="M31.3807 12.5294H31.8104V15C31.5955 15.0358 31.3091 15.0716 30.772 15.0716C29.4472 15.0716 28.7311 14.5703 28.5163 13.4604C27.7644 14.5345 26.368 15.179 24.7925 15.179C22.68 15.179 21.2836 13.9258 21.2836 12.064C21.2836 9.27114 23.8974 8.76987 25.9025 8.51923C27.1199 8.37601 28.0866 8.19698 28.0866 7.55249C28.0866 6.87219 27.3705 6.40672 26.1531 6.40672C25.0432 6.40672 24.0406 6.83638 23.2171 7.6599L21.4984 5.90544C22.7874 4.68806 24.3987 4.07937 26.3322 4.07937C29.125 4.07937 30.772 5.43997 30.772 7.69571V11.9207C30.772 12.3146 30.9869 12.5294 31.3807 12.5294ZM25.437 12.9233C26.8692 12.9233 28.015 11.9924 28.015 10.8108V9.87984C27.5853 10.1305 26.9767 10.2379 26.1889 10.3811C25.079 10.5601 24.0406 10.7392 24.0406 11.7775C24.0406 12.4936 24.5419 12.9233 25.437 12.9233ZM35.8564 10.5601C36.1428 11.9924 37.1454 12.8159 38.685 12.8159C39.974 12.8159 40.9407 12.3504 41.621 11.5985L43.3755 13.3171C42.3013 14.4629 40.7259 15.179 38.6492 15.179C34.9254 15.179 33.0278 12.8159 33.0278 9.6292C33.0278 6.33511 35.1761 4.07937 38.4702 4.07937C41.7285 4.07937 43.8052 6.2635 43.8052 9.6292C43.8052 9.84403 43.8052 10.0589 43.6977 10.5601H35.8564ZM38.4702 6.37091C37.1454 6.37091 36.2144 7.15863 35.8922 8.48343H40.9407C40.6543 7.12282 39.795 6.37091 38.4702 6.37091ZM49.6414 15.179C47.7079 15.179 45.9177 14.5703 44.7719 13.5678L46.2399 11.5269C47.0635 12.2788 48.2808 12.7801 49.7489 12.7801C50.7156 12.7801 51.5391 12.5294 51.5391 11.9565C51.5391 11.4911 51.1453 11.2404 49.3192 10.8108C46.4906 10.1305 45.2732 9.09212 45.2732 7.37346C45.2732 5.36836 47.0276 4.07937 49.7847 4.07937C51.3959 4.07937 52.7923 4.54484 54.1171 5.40417L52.6491 7.48088C51.6823 6.76477 50.7514 6.44252 49.534 6.44252C48.6031 6.44252 47.9944 6.72897 47.9944 7.26605C47.9944 7.76732 48.4241 8.01796 49.9637 8.37601C53.1146 9.12792 54.2961 10.0589 54.2961 11.8491C54.2961 13.9616 52.6133 15.179 49.6414 15.179ZM62.961 6.62155H59.8818V11.312C59.8818 12.243 60.383 12.5652 61.2424 12.5652C61.9227 12.5652 62.3881 12.5294 62.961 12.3862V14.9284C62.1733 15.1432 61.3856 15.2148 60.5979 15.2148C58.3421 15.2148 57.0173 14.1407 57.0173 11.9924V6.62155H54.869V4.2584H57.0173L57.3038 1.39397H59.8818V4.2584H62.961V6.62155ZM71.4111 4.11518C71.7333 4.11518 72.0556 4.15098 72.3778 4.22259L72.342 6.87219C71.7333 6.80058 71.1246 6.76477 70.6234 6.76477C69.0479 6.76477 68.0096 7.51668 68.0096 9.16373V15H65.1452V4.2584H67.7231L67.8664 5.86964C68.5825 4.79548 69.8715 4.11518 71.4111 4.11518ZM74.3113 2.89779V0.46303H77.3906V2.89779H74.3113ZM74.4187 15V4.2584H77.2831V15H74.4187Z" fill="#000000"/>
</svg>
