<svg width="24" height="24" viewBox="0 0 24 24" fill="none" xmlns="http://www.w3.org/2000/svg">
<path d="M9.66862 11.0802L3.73828 5.18198C3.94702 5.06423 4.18787 5 4.44478 5H19.3456C19.6025 5 19.8433 5.06423 20.0521 5.18198L14.1217 11.0802L13.4152 11.7814L12.2163 12.9749C12.1039 13.0873 11.9648 13.1087 11.8952 13.1087C11.8256 13.1087 11.6918 13.0927 11.574 12.9749L9.66862 11.0802Z" fill="#13131A"/>
<path d="M8.9678 11.7815L3.14451 17.5673C3.05352 17.38 3 17.1659 3 16.9411V6.4399C3 6.26328 3.03211 6.09736 3.09099 5.94214L8.9678 11.7815Z" fill="#13131A"/>
<path d="M14.1217 12.4827L19.9289 18.2578C19.7523 18.3381 19.5542 18.3809 19.3455 18.3809H4.44473C4.23599 18.3809 4.03795 18.3381 3.86133 18.2578L9.66856 12.4827L10.8728 13.6762C11.1565 13.9545 11.5258 14.0991 11.8951 14.0991C12.2644 14.0991 12.6337 13.9599 12.9174 13.6762L14.1217 12.4827Z" fill="#13131A"/>
<path d="M20.7906 6.43988V16.9411C20.7906 17.1659 20.7371 17.38 20.6461 17.5673L14.8281 11.7815L20.7049 5.93677C20.7585 6.09734 20.7906 6.26326 20.7906 6.43988Z" fill="#13131A"/>
</svg>
