<svg width="269" height="150" viewBox="0 0 269 150" fill="none" xmlns="http://www.w3.org/2000/svg">
<path d="M37.2446 24.375L39.8571 17.275L39.8946 19.375L33.9946 4.875H36.3321L40.9571 16.5375H40.1571L44.4946 4.875H46.7571L39.4071 24.375H37.2446Z" fill="url(#paint0_linear_171_42233)"/>
<path d="M53.5835 18.75C52.2418 18.75 51.0835 18.4458 50.1085 17.8375C49.1418 17.2292 48.396 16.3875 47.871 15.3125C47.346 14.2375 47.0835 13.0042 47.0835 11.6125C47.0835 10.1958 47.3502 8.95417 47.8835 7.8875C48.4168 6.82083 49.171 5.99167 50.146 5.4C51.121 4.8 52.2668 4.5 53.5835 4.5C54.9335 4.5 56.096 4.80417 57.071 5.4125C58.046 6.0125 58.7918 6.85 59.3085 7.925C59.8335 8.99167 60.096 10.2208 60.096 11.6125C60.096 13.0208 59.8335 14.2625 59.3085 15.3375C58.7835 16.4042 58.0335 17.2417 57.0585 17.85C56.0835 18.45 54.9252 18.75 53.5835 18.75ZM53.5835 16.6375C54.9835 16.6375 56.0252 16.1708 56.7085 15.2375C57.3918 14.3042 57.7335 13.0958 57.7335 11.6125C57.7335 10.0875 57.3877 8.875 56.696 7.975C56.0043 7.06667 54.9668 6.6125 53.5835 6.6125C52.6418 6.6125 51.8668 6.825 51.2585 7.25C50.6502 7.675 50.196 8.2625 49.896 9.0125C49.596 9.7625 49.446 10.6292 49.446 11.6125C49.446 13.1292 49.796 14.3458 50.496 15.2625C51.196 16.1792 52.2252 16.6375 53.5835 16.6375Z" fill="url(#paint1_linear_171_42233)"/>
<path d="M67.4731 18.725C66.6065 18.725 65.8606 18.5875 65.2356 18.3125C64.619 18.0375 64.1065 17.6708 63.6981 17.2125C63.2898 16.7542 62.969 16.2458 62.7356 15.6875C62.5023 15.1292 62.3356 14.5583 62.2356 13.975C62.144 13.3917 62.0981 12.8458 62.0981 12.3375V4.875H64.3481V11.6375C64.3481 12.2708 64.4065 12.8833 64.5231 13.475C64.6398 14.0667 64.8356 14.6 65.1106 15.075C65.394 15.55 65.769 15.925 66.2356 16.2C66.7106 16.475 67.3023 16.6125 68.0106 16.6125C68.569 16.6125 69.0773 16.5167 69.5356 16.325C69.994 16.1333 70.3857 15.85 70.7106 15.475C71.0356 15.0917 71.2856 14.6083 71.4606 14.025C71.6357 13.4417 71.7231 12.7625 71.7231 11.9875L73.1856 12.4375C73.1856 13.7375 72.9481 14.8583 72.4731 15.8C72.0065 16.7417 71.344 17.4667 70.4856 17.975C69.6356 18.475 68.6315 18.725 67.4731 18.725ZM71.9731 18.375V14.7625H71.7231V4.875H73.9606V18.375H71.9731Z" fill="url(#paint2_linear_171_42233)"/>
<path d="M84.3403 18.375L80.2153 4.8625L82.4278 4.875L85.4403 14.75L88.4778 4.875H90.4403L93.4653 14.75L96.4903 4.875H98.6903L94.5653 18.375H92.7153L89.4528 8.1125L86.1903 18.375H84.3403Z" fill="url(#paint3_linear_171_42233)"/>
<path d="M100.698 2.4875V0.1875H102.923V2.4875H100.698ZM100.698 18.375V4.875H102.923V18.375H100.698Z" fill="url(#paint4_linear_171_42233)"/>
<path d="M106.423 18.375V0H108.648V18.375H106.423Z" fill="url(#paint5_linear_171_42233)"/>
<path d="M112.149 18.375V0H114.374V18.375H112.149Z" fill="url(#paint6_linear_171_42233)"/>
<path d="M131.742 18.375V11.6125C131.742 10.9708 131.684 10.3542 131.567 9.7625C131.459 9.17083 131.263 8.64167 130.979 8.175C130.704 7.7 130.329 7.325 129.854 7.05C129.388 6.775 128.796 6.6375 128.079 6.6375C127.521 6.6375 127.013 6.73333 126.554 6.925C126.104 7.10833 125.717 7.39167 125.392 7.775C125.067 8.15833 124.813 8.64167 124.629 9.225C124.454 9.8 124.367 10.4792 124.367 11.2625L122.904 10.8125C122.904 9.50417 123.138 8.38333 123.604 7.45C124.079 6.50833 124.742 5.7875 125.592 5.2875C126.45 4.77917 127.459 4.525 128.617 4.525C129.492 4.525 130.238 4.6625 130.854 4.9375C131.471 5.2125 131.984 5.57917 132.392 6.0375C132.8 6.4875 133.121 6.99583 133.354 7.5625C133.588 8.12083 133.75 8.69167 133.842 9.275C133.942 9.85 133.992 10.3958 133.992 10.9125V18.375H131.742ZM122.117 18.375V4.875H124.117V8.4875H124.367V18.375H122.117Z" fill="url(#paint7_linear_171_42233)"/>
<path d="M142.37 18.75C141.028 18.75 139.87 18.4458 138.895 17.8375C137.928 17.2292 137.182 16.3875 136.657 15.3125C136.132 14.2375 135.87 13.0042 135.87 11.6125C135.87 10.1958 136.136 8.95417 136.67 7.8875C137.203 6.82083 137.957 5.99167 138.932 5.4C139.907 4.8 141.053 4.5 142.37 4.5C143.72 4.5 144.882 4.80417 145.857 5.4125C146.832 6.0125 147.578 6.85 148.095 7.925C148.62 8.99167 148.882 10.2208 148.882 11.6125C148.882 13.0208 148.62 14.2625 148.095 15.3375C147.57 16.4042 146.82 17.2417 145.845 17.85C144.87 18.45 143.711 18.75 142.37 18.75ZM142.37 16.6375C143.77 16.6375 144.811 16.1708 145.495 15.2375C146.178 14.3042 146.52 13.0958 146.52 11.6125C146.52 10.0875 146.174 8.875 145.482 7.975C144.79 7.06667 143.753 6.6125 142.37 6.6125C141.428 6.6125 140.653 6.825 140.045 7.25C139.436 7.675 138.982 8.2625 138.682 9.0125C138.382 9.7625 138.232 10.6292 138.232 11.6125C138.232 13.1292 138.582 14.3458 139.282 15.2625C139.982 16.1792 141.011 16.6375 142.37 16.6375Z" fill="url(#paint8_linear_171_42233)"/>
<path d="M158.672 18.375C157.872 18.5333 157.08 18.5958 156.297 18.5625C155.522 18.5375 154.83 18.3833 154.222 18.1C153.613 17.8083 153.151 17.3583 152.834 16.75C152.568 16.2167 152.422 15.6792 152.397 15.1375C152.38 14.5875 152.372 13.9667 152.372 13.275V1.125H154.597V13.175C154.597 13.725 154.601 14.1958 154.609 14.5875C154.626 14.9792 154.713 15.3167 154.872 15.6C155.172 16.1333 155.647 16.4458 156.297 16.5375C156.955 16.6292 157.747 16.6042 158.672 16.4625V18.375ZM149.634 6.7125V4.875H158.672V6.7125H149.634Z" fill="url(#paint9_linear_171_42233)"/>
<path d="M171.617 18.75C170.351 18.75 169.284 18.4375 168.417 17.8125C167.551 17.1792 166.892 16.325 166.442 15.25C166.001 14.1667 165.78 12.9542 165.78 11.6125C165.78 10.2542 166.001 9.0375 166.442 7.9625C166.892 6.8875 167.551 6.04167 168.417 5.425C169.292 4.80833 170.363 4.5 171.63 4.5C172.88 4.5 173.955 4.8125 174.855 5.4375C175.763 6.05417 176.459 6.9 176.942 7.975C177.426 9.05 177.667 10.2625 177.667 11.6125C177.667 12.9625 177.426 14.175 176.942 15.25C176.459 16.325 175.763 17.1792 174.855 17.8125C173.955 18.4375 172.876 18.75 171.617 18.75ZM165.405 18.375V0.375H167.642V8.4375H167.392V18.375H165.405ZM171.342 16.7125C172.234 16.7125 172.972 16.4875 173.555 16.0375C174.138 15.5875 174.576 14.9792 174.867 14.2125C175.159 13.4375 175.305 12.5708 175.305 11.6125C175.305 10.6625 175.159 9.80417 174.867 9.0375C174.584 8.27083 174.142 7.6625 173.542 7.2125C172.951 6.7625 172.197 6.5375 171.28 6.5375C170.405 6.5375 169.68 6.75417 169.105 7.1875C168.53 7.6125 168.101 8.20833 167.817 8.975C167.534 9.73333 167.392 10.6125 167.392 11.6125C167.392 12.5958 167.53 13.475 167.805 14.25C168.088 15.0167 168.522 15.6208 169.105 16.0625C169.688 16.4958 170.434 16.7125 171.342 16.7125Z" fill="url(#paint10_linear_171_42233)"/>
<path d="M185.758 18.75C184.433 18.75 183.274 18.4583 182.283 17.875C181.299 17.2833 180.533 16.4625 179.983 15.4125C179.433 14.3542 179.158 13.1208 179.158 11.7125C179.158 10.2375 179.429 8.9625 179.97 7.8875C180.512 6.80417 181.266 5.97083 182.233 5.3875C183.208 4.79583 184.349 4.5 185.658 4.5C187.016 4.5 188.17 4.8125 189.12 5.4375C190.079 6.0625 190.795 6.95417 191.27 8.1125C191.754 9.27083 191.962 10.65 191.895 12.25H189.645V11.45C189.62 9.79167 189.283 8.55417 188.633 7.7375C187.983 6.9125 187.016 6.5 185.733 6.5C184.358 6.5 183.312 6.94167 182.595 7.825C181.879 8.70833 181.52 9.975 181.52 11.625C181.52 13.2167 181.879 14.45 182.595 15.325C183.312 16.2 184.333 16.6375 185.658 16.6375C186.549 16.6375 187.324 16.4333 187.983 16.025C188.641 15.6167 189.158 15.0292 189.533 14.2625L191.67 15C191.145 16.1917 190.354 17.1167 189.295 17.775C188.245 18.425 187.066 18.75 185.758 18.75ZM180.77 12.25V10.4625H190.745V12.25H180.77Z" fill="url(#paint11_linear_171_42233)"/>
<path d="M198.933 18.375V0H201.158V18.375H198.933Z" fill="url(#paint12_linear_171_42233)"/>
<path d="M210.259 18.75C208.934 18.75 207.775 18.4583 206.784 17.875C205.8 17.2833 205.034 16.4625 204.484 15.4125C203.934 14.3542 203.659 13.1208 203.659 11.7125C203.659 10.2375 203.93 8.9625 204.471 7.8875C205.013 6.80417 205.767 5.97083 206.734 5.3875C207.709 4.79583 208.85 4.5 210.159 4.5C211.517 4.5 212.671 4.8125 213.621 5.4375C214.58 6.0625 215.296 6.95417 215.771 8.1125C216.255 9.27083 216.463 10.65 216.396 12.25H214.146V11.45C214.121 9.79167 213.784 8.55417 213.134 7.7375C212.484 6.9125 211.517 6.5 210.234 6.5C208.859 6.5 207.813 6.94167 207.096 7.825C206.38 8.70833 206.021 9.975 206.021 11.625C206.021 13.2167 206.38 14.45 207.096 15.325C207.813 16.2 208.834 16.6375 210.159 16.6375C211.05 16.6375 211.825 16.4333 212.484 16.025C213.142 15.6167 213.659 15.0292 214.034 14.2625L216.171 15C215.646 16.1917 214.855 17.1167 213.796 17.775C212.746 18.425 211.567 18.75 210.259 18.75ZM205.271 12.25V10.4625H215.246V12.25H205.271Z" fill="url(#paint13_linear_171_42233)"/>
<path d="M219.967 18.375V4.1375C219.967 3.7875 219.983 3.43333 220.017 3.075C220.05 2.70833 220.125 2.35417 220.242 2.0125C220.358 1.6625 220.55 1.34167 220.817 1.05C221.125 0.708333 221.463 0.466666 221.829 0.324999C222.196 0.175 222.567 0.0833333 222.942 0.0499994C223.325 0.0166665 223.688 0 224.029 0H225.742V1.85H224.154C223.496 1.85 223.004 2.0125 222.679 2.3375C222.354 2.65417 222.192 3.1375 222.192 3.7875V18.375H219.967ZM217.679 6.7125V4.875H225.742V6.7125H217.679Z" fill="url(#paint14_linear_171_42233)"/>
<path d="M234.774 18.375C233.974 18.5333 233.183 18.5958 232.399 18.5625C231.624 18.5375 230.933 18.3833 230.324 18.1C229.716 17.8083 229.253 17.3583 228.937 16.75C228.67 16.2167 228.524 15.6792 228.499 15.1375C228.483 14.5875 228.474 13.9667 228.474 13.275V1.125H230.699V13.175C230.699 13.725 230.703 14.1958 230.712 14.5875C230.728 14.9792 230.816 15.3167 230.974 15.6C231.274 16.1333 231.749 16.4458 232.399 16.5375C233.058 16.6292 233.849 16.6042 234.774 16.4625V18.375ZM225.737 6.7125V4.875H234.774V6.7125H225.737Z" fill="url(#paint15_linear_171_42233)"/>
<path d="M4.125 43.375L0 29.8625L2.2125 29.875L5.225 39.75L8.2625 29.875H10.225L13.25 39.75L16.275 29.875H18.475L14.35 43.375H12.5L9.2375 33.1125L5.975 43.375H4.125Z" fill="url(#paint16_linear_171_42233)"/>
<path d="M20.4824 27.4875V25.1875H22.7074V27.4875H20.4824ZM20.4824 43.375V29.875H22.7074V43.375H20.4824Z" fill="url(#paint17_linear_171_42233)"/>
<path d="M33.4955 43.375C32.6955 43.5333 31.9038 43.5958 31.1205 43.5625C30.3455 43.5375 29.6538 43.3833 29.0455 43.1C28.4372 42.8083 27.9747 42.3583 27.658 41.75C27.3913 41.2167 27.2455 40.6792 27.2205 40.1375C27.2038 39.5875 27.1955 38.9667 27.1955 38.275V26.125H29.4205V38.175C29.4205 38.725 29.4247 39.1958 29.433 39.5875C29.4497 39.9792 29.5372 40.3167 29.6955 40.6C29.9955 41.1333 30.4705 41.4458 31.1205 41.5375C31.7788 41.6292 32.5705 41.6042 33.4955 41.4625V43.375ZM24.458 31.7125V29.875H33.4955V31.7125H24.458Z" fill="url(#paint18_linear_171_42233)"/>
<path d="M45.3488 43.375V36.6125C45.3488 35.9708 45.2905 35.3542 45.1738 34.7625C45.0655 34.1708 44.8697 33.6417 44.5863 33.175C44.3113 32.7 43.9363 32.325 43.4613 32.05C42.9947 31.775 42.403 31.6375 41.6863 31.6375C41.128 31.6375 40.6197 31.7333 40.1613 31.925C39.7113 32.1083 39.3238 32.3917 38.9988 32.775C38.6738 33.1583 38.4197 33.6417 38.2363 34.225C38.0613 34.8 37.9738 35.4792 37.9738 36.2625L36.5113 35.8125C36.5113 34.5042 36.7447 33.3833 37.2113 32.45C37.6863 31.5083 38.3488 30.7875 39.1988 30.2875C40.0572 29.7792 41.0655 29.525 42.2238 29.525C43.0988 29.525 43.8447 29.6625 44.4613 29.9375C45.078 30.2125 45.5905 30.5792 45.9988 31.0375C46.4072 31.4875 46.728 31.9958 46.9613 32.5625C47.1947 33.1208 47.3572 33.6917 47.4488 34.275C47.5488 34.85 47.5988 35.3958 47.5988 35.9125V43.375H45.3488ZM35.7238 43.375V25.375H37.7238V35.3125H37.9738V43.375H35.7238Z" fill="url(#paint19_linear_171_42233)"/>
<path d="M56.0986 43.75C54.757 43.75 53.5986 43.4458 52.6236 42.8375C51.657 42.2292 50.9111 41.3875 50.3861 40.3125C49.8611 39.2375 49.5986 38.0042 49.5986 36.6125C49.5986 35.1958 49.8653 33.9542 50.3986 32.8875C50.932 31.8208 51.6861 30.9917 52.6611 30.4C53.6361 29.8 54.782 29.5 56.0986 29.5C57.4486 29.5 58.6111 29.8042 59.5861 30.4125C60.5611 31.0125 61.307 31.85 61.8236 32.925C62.3486 33.9917 62.6111 35.2208 62.6111 36.6125C62.6111 38.0208 62.3486 39.2625 61.8236 40.3375C61.2986 41.4042 60.5486 42.2417 59.5736 42.85C58.5986 43.45 57.4403 43.75 56.0986 43.75ZM56.0986 41.6375C57.4986 41.6375 58.5403 41.1708 59.2236 40.2375C59.907 39.3042 60.2486 38.0958 60.2486 36.6125C60.2486 35.0875 59.9028 33.875 59.2111 32.975C58.5195 32.0667 57.482 31.6125 56.0986 31.6125C55.157 31.6125 54.382 31.825 53.7736 32.25C53.1653 32.675 52.7111 33.2625 52.4111 34.0125C52.1111 34.7625 51.9611 35.6292 51.9611 36.6125C51.9611 38.1292 52.3111 39.3458 53.0111 40.2625C53.7111 41.1792 54.7403 41.6375 56.0986 41.6375Z" fill="url(#paint20_linear_171_42233)"/>
<path d="M69.9883 43.725C69.1216 43.725 68.3758 43.5875 67.7508 43.3125C67.1341 43.0375 66.6216 42.6708 66.2133 42.2125C65.8049 41.7542 65.4841 41.2458 65.2508 40.6875C65.0174 40.1292 64.8508 39.5583 64.7508 38.975C64.6591 38.3917 64.6133 37.8458 64.6133 37.3375V29.875H66.8633V36.6375C66.8633 37.2708 66.9216 37.8833 67.0383 38.475C67.155 39.0667 67.3508 39.6 67.6258 40.075C67.9091 40.55 68.2841 40.925 68.7508 41.2C69.2258 41.475 69.8174 41.6125 70.5258 41.6125C71.0841 41.6125 71.5924 41.5167 72.0508 41.325C72.5091 41.1333 72.9008 40.85 73.2258 40.475C73.5508 40.0917 73.8008 39.6083 73.9758 39.025C74.1508 38.4417 74.2383 37.7625 74.2383 36.9875L75.7008 37.4375C75.7008 38.7375 75.4633 39.8583 74.9883 40.8C74.5216 41.7417 73.8591 42.4667 73.0008 42.975C72.1508 43.475 71.1466 43.725 69.9883 43.725ZM74.4883 43.375V39.7625H74.2383V29.875H76.4758V43.375H74.4883Z" fill="url(#paint21_linear_171_42233)"/>
<path d="M87.0131 43.375C86.2131 43.5333 85.4214 43.5958 84.6381 43.5625C83.8631 43.5375 83.1714 43.3833 82.5631 43.1C81.9548 42.8083 81.4922 42.3583 81.1756 41.75C80.9089 41.2167 80.7631 40.6792 80.7381 40.1375C80.7214 39.5875 80.7131 38.9667 80.7131 38.275V26.125H82.9381V38.175C82.9381 38.725 82.9423 39.1958 82.9506 39.5875C82.9673 39.9792 83.0548 40.3167 83.2131 40.6C83.5131 41.1333 83.9881 41.4458 84.6381 41.5375C85.2964 41.6292 86.0881 41.6042 87.0131 41.4625V43.375ZM77.9756 31.7125V29.875H87.0131V31.7125H77.9756Z" fill="url(#paint22_linear_171_42233)"/>
<path d="M103.371 43.375V36.6125C103.371 35.9708 103.313 35.3542 103.196 34.7625C103.088 34.1708 102.892 33.6417 102.609 33.175C102.334 32.7 101.959 32.325 101.484 32.05C101.017 31.775 100.425 31.6375 99.7088 31.6375C99.1505 31.6375 98.6421 31.7333 98.1838 31.925C97.7338 32.1083 97.3463 32.3917 97.0213 32.775C96.6963 33.1583 96.4421 33.6417 96.2588 34.225C96.0838 34.8 95.9963 35.4792 95.9963 36.2625L94.5338 35.8125C94.5338 34.5042 94.7671 33.3833 95.2338 32.45C95.7088 31.5083 96.3713 30.7875 97.2213 30.2875C98.0796 29.7792 99.088 29.525 100.246 29.525C101.121 29.525 101.867 29.6625 102.484 29.9375C103.1 30.2125 103.613 30.5792 104.021 31.0375C104.43 31.4875 104.75 31.9958 104.984 32.5625C105.217 33.1208 105.38 33.6917 105.471 34.275C105.571 34.85 105.621 35.3958 105.621 35.9125V43.375H103.371ZM93.7463 43.375V25.375H95.7463V35.3125H95.9963V43.375H93.7463Z" fill="url(#paint23_linear_171_42233)"/>
<path d="M114.221 43.75C112.896 43.75 111.738 43.4583 110.746 42.875C109.763 42.2833 108.996 41.4625 108.446 40.4125C107.896 39.3542 107.621 38.1208 107.621 36.7125C107.621 35.2375 107.892 33.9625 108.434 32.8875C108.975 31.8042 109.729 30.9708 110.696 30.3875C111.671 29.7958 112.813 29.5 114.121 29.5C115.479 29.5 116.634 29.8125 117.584 30.4375C118.542 31.0625 119.259 31.9542 119.734 33.1125C120.217 34.2708 120.425 35.65 120.359 37.25H118.109V36.45C118.084 34.7917 117.746 33.5542 117.096 32.7375C116.446 31.9125 115.479 31.5 114.196 31.5C112.821 31.5 111.775 31.9417 111.059 32.825C110.342 33.7083 109.984 34.975 109.984 36.625C109.984 38.2167 110.342 39.45 111.059 40.325C111.775 41.2 112.796 41.6375 114.121 41.6375C115.013 41.6375 115.788 41.4333 116.446 41.025C117.104 40.6167 117.621 40.0292 117.996 39.2625L120.134 40C119.609 41.1917 118.817 42.1167 117.759 42.775C116.709 43.425 115.529 43.75 114.221 43.75ZM109.234 37.25V35.4625H119.209V37.25H109.234Z" fill="url(#paint24_linear_171_42233)"/>
<path d="M122.892 43.375V25H125.117V43.375H122.892Z" fill="url(#paint25_linear_171_42233)"/>
<path d="M134.567 43.75C133.301 43.75 132.234 43.4375 131.367 42.8125C130.501 42.1792 129.842 41.325 129.392 40.25C128.951 39.1667 128.73 37.9542 128.73 36.6125C128.73 35.2542 128.951 34.0375 129.392 32.9625C129.842 31.8875 130.501 31.0417 131.367 30.425C132.242 29.8083 133.313 29.5 134.58 29.5C135.83 29.5 136.905 29.8125 137.805 30.4375C138.713 31.0542 139.409 31.9 139.892 32.975C140.376 34.05 140.617 35.2625 140.617 36.6125C140.617 37.9625 140.376 39.175 139.892 40.25C139.409 41.325 138.713 42.1792 137.805 42.8125C136.905 43.4375 135.826 43.75 134.567 43.75ZM128.355 49.375V29.875H130.342V39.8125H130.592V49.375H128.355ZM134.292 41.7125C135.184 41.7125 135.921 41.4875 136.505 41.0375C137.088 40.5875 137.526 39.9792 137.817 39.2125C138.109 38.4375 138.255 37.5708 138.255 36.6125C138.255 35.6625 138.109 34.8042 137.817 34.0375C137.534 33.2708 137.092 32.6625 136.492 32.2125C135.901 31.7625 135.146 31.5375 134.23 31.5375C133.355 31.5375 132.63 31.7542 132.055 32.1875C131.48 32.6125 131.051 33.2083 130.767 33.975C130.484 34.7333 130.342 35.6125 130.342 36.6125C130.342 37.5958 130.48 38.475 130.755 39.25C131.038 40.0167 131.471 40.6208 132.055 41.0625C132.638 41.4958 133.384 41.7125 134.292 41.7125Z" fill="url(#paint26_linear_171_42233)"/>
<path d="M151.2 43.75C150.191 43.75 149.346 43.5667 148.662 43.2C147.987 42.825 147.475 42.3333 147.125 41.725C146.783 41.1167 146.612 40.45 146.612 39.725C146.612 39.0167 146.746 38.4042 147.012 37.8875C147.287 37.3625 147.671 36.9292 148.162 36.5875C148.654 36.2375 149.241 35.9625 149.925 35.7625C150.566 35.5875 151.283 35.4375 152.075 35.3125C152.875 35.1792 153.683 35.0583 154.5 34.95C155.316 34.8417 156.079 34.7375 156.787 34.6375L155.987 35.1C156.012 33.9 155.771 33.0125 155.262 32.4375C154.762 31.8625 153.896 31.575 152.662 31.575C151.846 31.575 151.129 31.7625 150.512 32.1375C149.904 32.5042 149.475 33.1042 149.225 33.9375L147.112 33.3C147.437 32.1167 148.066 31.1875 149 30.5125C149.933 29.8375 151.162 29.5 152.687 29.5C153.912 29.5 154.962 29.7208 155.837 30.1625C156.721 30.5958 157.354 31.2542 157.737 32.1375C157.929 32.5542 158.05 33.0083 158.1 33.5C158.15 33.9833 158.175 34.4917 158.175 35.025V43.375H156.2V40.1375L156.662 40.4375C156.154 41.5292 155.441 42.3542 154.525 42.9125C153.616 43.4708 152.508 43.75 151.2 43.75ZM151.537 41.8875C152.337 41.8875 153.029 41.7458 153.612 41.4625C154.204 41.1708 154.679 40.7917 155.037 40.325C155.396 39.85 155.629 39.3333 155.737 38.775C155.862 38.3583 155.929 37.8958 155.937 37.3875C155.954 36.8708 155.962 36.475 155.962 36.2L156.737 36.5375C156.012 36.6375 155.3 36.7333 154.6 36.825C153.9 36.9167 153.237 37.0167 152.612 37.125C151.987 37.225 151.425 37.3458 150.925 37.4875C150.558 37.6042 150.212 37.7542 149.887 37.9375C149.571 38.1208 149.312 38.3583 149.112 38.65C148.921 38.9333 148.825 39.2875 148.825 39.7125C148.825 40.0792 148.916 40.4292 149.1 40.7625C149.291 41.0958 149.583 41.3667 149.975 41.575C150.375 41.7833 150.896 41.8875 151.537 41.8875Z" fill="url(#paint27_linear_171_42233)"/>
<path d="M168.462 43.375C167.662 43.5333 166.871 43.5958 166.087 43.5625C165.312 43.5375 164.621 43.3833 164.012 43.1C163.404 42.8083 162.941 42.3583 162.625 41.75C162.358 41.2167 162.212 40.6792 162.187 40.1375C162.171 39.5875 162.162 38.9667 162.162 38.275V26.125H164.387V38.175C164.387 38.725 164.391 39.1958 164.4 39.5875C164.416 39.9792 164.504 40.3167 164.662 40.6C164.962 41.1333 165.437 41.4458 166.087 41.5375C166.746 41.6292 167.537 41.6042 168.462 41.4625V43.375ZM159.425 31.7125V29.875H168.462V31.7125H159.425Z" fill="url(#paint28_linear_171_42233)"/>
<path d="M179.046 43.75C178.037 43.75 177.191 43.5667 176.508 43.2C175.833 42.825 175.321 42.3333 174.971 41.725C174.629 41.1167 174.458 40.45 174.458 39.725C174.458 39.0167 174.591 38.4042 174.858 37.8875C175.133 37.3625 175.516 36.9292 176.008 36.5875C176.5 36.2375 177.087 35.9625 177.771 35.7625C178.412 35.5875 179.129 35.4375 179.921 35.3125C180.721 35.1792 181.529 35.0583 182.346 34.95C183.162 34.8417 183.925 34.7375 184.633 34.6375L183.833 35.1C183.858 33.9 183.616 33.0125 183.108 32.4375C182.608 31.8625 181.741 31.575 180.508 31.575C179.691 31.575 178.975 31.7625 178.358 32.1375C177.75 32.5042 177.321 33.1042 177.071 33.9375L174.958 33.3C175.283 32.1167 175.912 31.1875 176.846 30.5125C177.779 29.8375 179.008 29.5 180.533 29.5C181.758 29.5 182.808 29.7208 183.683 30.1625C184.566 30.5958 185.2 31.2542 185.583 32.1375C185.775 32.5542 185.896 33.0083 185.946 33.5C185.996 33.9833 186.021 34.4917 186.021 35.025V43.375H184.046V40.1375L184.508 40.4375C184 41.5292 183.287 42.3542 182.371 42.9125C181.462 43.4708 180.354 43.75 179.046 43.75ZM179.383 41.8875C180.183 41.8875 180.875 41.7458 181.458 41.4625C182.05 41.1708 182.525 40.7917 182.883 40.325C183.241 39.85 183.475 39.3333 183.583 38.775C183.708 38.3583 183.775 37.8958 183.783 37.3875C183.8 36.8708 183.808 36.475 183.808 36.2L184.583 36.5375C183.858 36.6375 183.146 36.7333 182.446 36.825C181.746 36.9167 181.083 37.0167 180.458 37.125C179.833 37.225 179.271 37.3458 178.771 37.4875C178.404 37.6042 178.058 37.7542 177.733 37.9375C177.416 38.1208 177.158 38.3583 176.958 38.65C176.766 38.9333 176.671 39.2875 176.671 39.7125C176.671 40.0792 176.762 40.4292 176.946 40.7625C177.137 41.0958 177.429 41.3667 177.821 41.575C178.221 41.7833 178.741 41.8875 179.383 41.8875Z" fill="url(#paint29_linear_171_42233)"/>
<path d="M198.383 43.375V36.6125C198.383 35.9708 198.325 35.3542 198.208 34.7625C198.1 34.1708 197.904 33.6417 197.621 33.175C197.346 32.7 196.971 32.325 196.496 32.05C196.029 31.775 195.437 31.6375 194.721 31.6375C194.162 31.6375 193.654 31.7333 193.196 31.925C192.746 32.1083 192.358 32.3917 192.033 32.775C191.708 33.1583 191.454 33.6417 191.271 34.225C191.096 34.8 191.008 35.4792 191.008 36.2625L189.546 35.8125C189.546 34.5042 189.779 33.3833 190.246 32.45C190.721 31.5083 191.383 30.7875 192.233 30.2875C193.091 29.7792 194.1 29.525 195.258 29.525C196.133 29.525 196.879 29.6625 197.496 29.9375C198.112 30.2125 198.625 30.5792 199.033 31.0375C199.441 31.4875 199.762 31.9958 199.996 32.5625C200.229 33.1208 200.391 33.6917 200.483 34.275C200.583 34.85 200.633 35.3958 200.633 35.9125V43.375H198.383ZM188.758 43.375V29.875H190.758V33.4875H191.008V43.375H188.758Z" fill="url(#paint30_linear_171_42233)"/>
<path d="M204.77 49.375L207.382 42.275L207.42 44.375L201.52 29.875H203.857L208.482 41.5375H207.682L212.02 29.875H214.282L206.932 49.375H204.77Z" fill="url(#paint31_linear_171_42233)"/>
<path d="M227.889 43.375C227.089 43.5333 226.297 43.5958 225.514 43.5625C224.739 43.5375 224.047 43.3833 223.439 43.1C222.831 42.8083 222.368 42.3583 222.052 41.75C221.785 41.2167 221.639 40.6792 221.614 40.1375C221.597 39.5875 221.589 38.9667 221.589 38.275V26.125H223.814V38.175C223.814 38.725 223.818 39.1958 223.827 39.5875C223.843 39.9792 223.931 40.3167 224.089 40.6C224.389 41.1333 224.864 41.4458 225.514 41.5375C226.172 41.6292 226.964 41.6042 227.889 41.4625V43.375ZM218.852 31.7125V29.875H227.889V31.7125H218.852Z" fill="url(#paint32_linear_171_42233)"/>
<path d="M230.38 27.4875V25.1875H232.605V27.4875H230.38ZM230.38 43.375V29.875H232.605V43.375H230.38Z" fill="url(#paint33_linear_171_42233)"/>
<path d="M251.993 43.375L252.005 34.7375C252.005 33.7292 251.735 32.9417 251.193 32.375C250.66 31.8 249.964 31.5125 249.105 31.5125C248.605 31.5125 248.13 31.6292 247.68 31.8625C247.23 32.0875 246.864 32.4458 246.58 32.9375C246.297 33.4208 246.155 34.0417 246.155 34.8L244.98 34.325C244.964 33.3667 245.16 32.5292 245.568 31.8125C245.985 31.0875 246.551 30.525 247.268 30.125C247.985 29.725 248.793 29.525 249.693 29.525C251.101 29.525 252.21 29.9542 253.018 30.8125C253.826 31.6625 254.23 32.8083 254.23 34.25L254.218 43.375H251.993ZM235.843 43.375V29.875H237.83V33.4875H238.08V43.375H235.843ZM243.93 43.375L243.943 34.825C243.943 33.7917 243.676 32.9833 243.143 32.4C242.61 31.8083 241.901 31.5125 241.018 31.5125C240.143 31.5125 239.435 31.8125 238.893 32.4125C238.351 33.0125 238.08 33.8083 238.08 34.8L236.905 34.1C236.905 33.225 237.114 32.4417 237.53 31.75C237.947 31.0583 238.514 30.5167 239.23 30.125C239.947 29.725 240.76 29.525 241.668 29.525C242.576 29.525 243.368 29.7167 244.043 30.1C244.718 30.4833 245.239 31.0333 245.605 31.75C245.972 32.4583 246.155 33.3042 246.155 34.2875L246.143 43.375H243.93Z" fill="url(#paint34_linear_171_42233)"/>
<path d="M262.714 43.75C261.389 43.75 260.231 43.4583 259.239 42.875C258.256 42.2833 257.489 41.4625 256.939 40.4125C256.389 39.3542 256.114 38.1208 256.114 36.7125C256.114 35.2375 256.385 33.9625 256.927 32.8875C257.468 31.8042 258.223 30.9708 259.189 30.3875C260.164 29.7958 261.306 29.5 262.614 29.5C263.973 29.5 265.127 29.8125 266.077 30.4375C267.035 31.0625 267.752 31.9542 268.227 33.1125C268.71 34.2708 268.918 35.65 268.852 37.25H266.602V36.45C266.577 34.7917 266.239 33.5542 265.589 32.7375C264.939 31.9125 263.973 31.5 262.689 31.5C261.314 31.5 260.268 31.9417 259.552 32.825C258.835 33.7083 258.477 34.975 258.477 36.625C258.477 38.2167 258.835 39.45 259.552 40.325C260.268 41.2 261.289 41.6375 262.614 41.6375C263.506 41.6375 264.281 41.4333 264.939 41.025C265.598 40.6167 266.114 40.0292 266.489 39.2625L268.627 40C268.102 41.1917 267.31 42.1167 266.252 42.775C265.202 43.425 264.023 43.75 262.714 43.75ZM257.727 37.25V35.4625H267.702V37.25H257.727Z" fill="url(#paint35_linear_171_42233)"/>
<path d="M84.0664 68.75C82.7247 68.75 81.5664 68.4458 80.5914 67.8375C79.6247 67.2292 78.8789 66.3875 78.3539 65.3125C77.8289 64.2375 77.5664 63.0042 77.5664 61.6125C77.5664 60.1958 77.8331 58.9542 78.3664 57.8875C78.8997 56.8208 79.6539 55.9917 80.6289 55.4C81.6039 54.8 82.7497 54.5 84.0664 54.5C85.4164 54.5 86.5789 54.8042 87.5539 55.4125C88.5289 56.0125 89.2747 56.85 89.7914 57.925C90.3164 58.9917 90.5789 60.2208 90.5789 61.6125C90.5789 63.0208 90.3164 64.2625 89.7914 65.3375C89.2664 66.4042 88.5164 67.2417 87.5414 67.85C86.5664 68.45 85.4081 68.75 84.0664 68.75ZM84.0664 66.6375C85.4664 66.6375 86.5081 66.1708 87.1914 65.2375C87.8747 64.3042 88.2164 63.0958 88.2164 61.6125C88.2164 60.0875 87.8706 58.875 87.1789 57.975C86.4872 57.0667 85.4497 56.6125 84.0664 56.6125C83.1247 56.6125 82.3497 56.825 81.7414 57.25C81.1331 57.675 80.6789 58.2625 80.3789 59.0125C80.0789 59.7625 79.9289 60.6292 79.9289 61.6125C79.9289 63.1292 80.2789 64.3458 80.9789 65.2625C81.6789 66.1792 82.7081 66.6375 84.0664 66.6375Z" fill="url(#paint36_linear_171_42233)"/>
<path d="M94.1186 68.375V54.1375C94.1186 53.7875 94.1352 53.4333 94.1686 53.075C94.2019 52.7083 94.2769 52.3542 94.3936 52.0125C94.5102 51.6625 94.7019 51.3417 94.9686 51.05C95.2769 50.7083 95.6144 50.4667 95.9811 50.325C96.3477 50.175 96.7186 50.0833 97.0936 50.05C97.4769 50.0167 97.8394 50 98.1811 50H99.8936V51.85H98.3061C97.6477 51.85 97.1561 52.0125 96.8311 52.3375C96.5061 52.6542 96.3436 53.1375 96.3436 53.7875V68.375H94.1186ZM91.8311 56.7125V54.875H99.8936V56.7125H91.8311Z" fill="url(#paint37_linear_171_42233)"/>
<path d="M113.431 68.375C112.631 68.5333 111.839 68.5958 111.056 68.5625C110.281 68.5375 109.589 68.3833 108.981 68.1C108.373 67.8083 107.91 67.3583 107.594 66.75C107.327 66.2167 107.181 65.6792 107.156 65.1375C107.139 64.5875 107.131 63.9667 107.131 63.275V51.125H109.356V63.175C109.356 63.725 109.36 64.1958 109.369 64.5875C109.385 64.9792 109.473 65.3167 109.631 65.6C109.931 66.1333 110.406 66.4458 111.056 66.5375C111.714 66.6292 112.506 66.6042 113.431 66.4625V68.375ZM104.394 56.7125V54.875H113.431V56.7125H104.394Z" fill="url(#paint38_linear_171_42233)"/>
<path d="M125.284 68.375V61.6125C125.284 60.9708 125.226 60.3542 125.109 59.7625C125.001 59.1708 124.805 58.6417 124.522 58.175C124.247 57.7 123.872 57.325 123.397 57.05C122.93 56.775 122.339 56.6375 121.622 56.6375C121.064 56.6375 120.555 56.7333 120.097 56.925C119.647 57.1083 119.259 57.3917 118.934 57.775C118.609 58.1583 118.355 58.6417 118.172 59.225C117.997 59.8 117.909 60.4792 117.909 61.2625L116.447 60.8125C116.447 59.5042 116.68 58.3833 117.147 57.45C117.622 56.5083 118.284 55.7875 119.134 55.2875C119.993 54.7792 121.001 54.525 122.159 54.525C123.034 54.525 123.78 54.6625 124.397 54.9375C125.014 55.2125 125.526 55.5792 125.934 56.0375C126.343 56.4875 126.664 56.9958 126.897 57.5625C127.13 58.1208 127.293 58.6917 127.384 59.275C127.484 59.85 127.534 60.3958 127.534 60.9125V68.375H125.284ZM115.659 68.375V50.375H117.659V60.3125H117.909V68.375H115.659Z" fill="url(#paint39_linear_171_42233)"/>
<path d="M136.134 68.75C134.809 68.75 133.651 68.4583 132.659 67.875C131.676 67.2833 130.909 66.4625 130.359 65.4125C129.809 64.3542 129.534 63.1208 129.534 61.7125C129.534 60.2375 129.805 58.9625 130.347 57.8875C130.888 56.8042 131.643 55.9708 132.609 55.3875C133.584 54.7958 134.726 54.5 136.034 54.5C137.393 54.5 138.547 54.8125 139.497 55.4375C140.455 56.0625 141.172 56.9542 141.647 58.1125C142.13 59.2708 142.338 60.65 142.272 62.25H140.022V61.45C139.997 59.7917 139.659 58.5542 139.009 57.7375C138.359 56.9125 137.393 56.5 136.109 56.5C134.734 56.5 133.688 56.9417 132.972 57.825C132.255 58.7083 131.897 59.975 131.897 61.625C131.897 63.2167 132.255 64.45 132.972 65.325C133.688 66.2 134.709 66.6375 136.034 66.6375C136.926 66.6375 137.701 66.4333 138.359 66.025C139.018 65.6167 139.534 65.0292 139.909 64.2625L142.047 65C141.522 66.1917 140.73 67.1167 139.672 67.775C138.622 68.425 137.443 68.75 136.134 68.75ZM131.147 62.25V60.4625H141.122V62.25H131.147Z" fill="url(#paint40_linear_171_42233)"/>
<path d="M154.36 68.75C153.101 68.75 152.022 68.4375 151.122 67.8125C150.222 67.1792 149.526 66.325 149.035 65.25C148.551 64.175 148.31 62.9625 148.31 61.6125C148.31 60.2625 148.551 59.05 149.035 57.975C149.526 56.9 150.222 56.0542 151.122 55.4375C152.022 54.8125 153.097 54.5 154.347 54.5C155.622 54.5 156.693 54.8083 157.56 55.425C158.426 56.0417 159.08 56.8875 159.522 57.9625C159.972 59.0375 160.197 60.2542 160.197 61.6125C160.197 62.9542 159.972 64.1667 159.522 65.25C159.08 66.325 158.426 67.1792 157.56 67.8125C156.693 68.4375 155.626 68.75 154.36 68.75ZM154.635 66.7125C155.543 66.7125 156.289 66.4958 156.872 66.0625C157.455 65.6208 157.885 65.0167 158.16 64.25C158.443 63.475 158.585 62.5958 158.585 61.6125C158.585 60.6125 158.443 59.7333 158.16 58.975C157.885 58.2083 157.46 57.6125 156.885 57.1875C156.31 56.7542 155.58 56.5375 154.697 56.5375C153.78 56.5375 153.022 56.7625 152.422 57.2125C151.83 57.6625 151.389 58.2708 151.097 59.0375C150.814 59.8042 150.672 60.6625 150.672 61.6125C150.672 62.5708 150.818 63.4375 151.11 64.2125C151.401 64.9792 151.839 65.5875 152.422 66.0375C153.014 66.4875 153.751 66.7125 154.635 66.7125ZM158.585 68.375V58.4375H158.335V50.375H160.572V68.375H158.585Z" fill="url(#paint41_linear_171_42233)"/>
<path d="M167.412 68.75C166.403 68.75 165.558 68.5667 164.874 68.2C164.199 67.825 163.687 67.3333 163.337 66.725C162.995 66.1167 162.824 65.45 162.824 64.725C162.824 64.0167 162.958 63.4042 163.224 62.8875C163.499 62.3625 163.883 61.9292 164.374 61.5875C164.866 61.2375 165.453 60.9625 166.137 60.7625C166.778 60.5875 167.495 60.4375 168.287 60.3125C169.087 60.1792 169.895 60.0583 170.712 59.95C171.528 59.8417 172.291 59.7375 172.999 59.6375L172.199 60.1C172.224 58.9 171.983 58.0125 171.474 57.4375C170.974 56.8625 170.108 56.575 168.874 56.575C168.058 56.575 167.341 56.7625 166.724 57.1375C166.116 57.5042 165.687 58.1042 165.437 58.9375L163.324 58.3C163.649 57.1167 164.278 56.1875 165.212 55.5125C166.145 54.8375 167.374 54.5 168.899 54.5C170.124 54.5 171.174 54.7208 172.049 55.1625C172.933 55.5958 173.566 56.2542 173.949 57.1375C174.141 57.5542 174.262 58.0083 174.312 58.5C174.362 58.9833 174.387 59.4917 174.387 60.025V68.375H172.412V65.1375L172.874 65.4375C172.366 66.5292 171.653 67.3542 170.737 67.9125C169.828 68.4708 168.72 68.75 167.412 68.75ZM167.749 66.8875C168.549 66.8875 169.241 66.7458 169.824 66.4625C170.416 66.1708 170.891 65.7917 171.249 65.325C171.608 64.85 171.841 64.3333 171.949 63.775C172.074 63.3583 172.141 62.8958 172.149 62.3875C172.166 61.8708 172.174 61.475 172.174 61.2L172.949 61.5375C172.224 61.6375 171.512 61.7333 170.812 61.825C170.112 61.9167 169.449 62.0167 168.824 62.125C168.199 62.225 167.637 62.3458 167.137 62.4875C166.77 62.6042 166.424 62.7542 166.099 62.9375C165.783 63.1208 165.524 63.3583 165.324 63.65C165.133 63.9333 165.037 64.2875 165.037 64.7125C165.037 65.0792 165.128 65.4292 165.312 65.7625C165.503 66.0958 165.795 66.3667 166.187 66.575C166.587 66.7833 167.108 66.8875 167.749 66.8875Z" fill="url(#paint42_linear_171_42233)"/>
<path d="M178.255 74.375L180.867 67.275L180.905 69.375L175.005 54.875H177.342L181.967 66.5375H181.167L185.505 54.875H187.767L180.417 74.375H178.255Z" fill="url(#paint43_linear_171_42233)"/>
<path d="M187.73 68.375V65.925H190.18V68.375H187.73Z" fill="url(#paint44_linear_171_42233)"/>
<path d="M43.6841 93.375V79.875H45.6716V83.1375L45.3466 82.7125C45.5049 82.2958 45.7091 81.9125 45.9591 81.5625C46.2174 81.2125 46.5049 80.925 46.8216 80.7C47.1716 80.4167 47.5674 80.2 48.0091 80.05C48.4507 79.9 48.9007 79.8125 49.3591 79.7875C49.8174 79.7542 50.2466 79.7833 50.6466 79.875V81.9625C50.1799 81.8375 49.6674 81.8042 49.1091 81.8625C48.5507 81.9208 48.0341 82.125 47.5591 82.475C47.1257 82.7833 46.7882 83.1583 46.5466 83.6C46.3132 84.0417 46.1507 84.5208 46.0591 85.0375C45.9674 85.5458 45.9216 86.0667 45.9216 86.6V93.375H43.6841Z" fill="url(#paint45_linear_171_42233)"/>
<path d="M58.0161 93.75C56.6744 93.75 55.5161 93.4458 54.5411 92.8375C53.5744 92.2292 52.8286 91.3875 52.3036 90.3125C51.7786 89.2375 51.5161 88.0042 51.5161 86.6125C51.5161 85.1958 51.7828 83.9542 52.3161 82.8875C52.8494 81.8208 53.6036 80.9917 54.5786 80.4C55.5536 79.8 56.6994 79.5 58.0161 79.5C59.3661 79.5 60.5286 79.8042 61.5036 80.4125C62.4786 81.0125 63.2244 81.85 63.7411 82.925C64.2661 83.9917 64.5286 85.2208 64.5286 86.6125C64.5286 88.0208 64.2661 89.2625 63.7411 90.3375C63.2161 91.4042 62.4661 92.2417 61.4911 92.85C60.5161 93.45 59.3578 93.75 58.0161 93.75ZM58.0161 91.6375C59.4161 91.6375 60.4578 91.1708 61.1411 90.2375C61.8244 89.3042 62.1661 88.0958 62.1661 86.6125C62.1661 85.0875 61.8203 83.875 61.1286 82.975C60.4369 82.0667 59.3994 81.6125 58.0161 81.6125C57.0744 81.6125 56.2994 81.825 55.6911 82.25C55.0828 82.675 54.6286 83.2625 54.3286 84.0125C54.0286 84.7625 53.8786 85.6292 53.8786 86.6125C53.8786 88.1292 54.2286 89.3458 54.9286 90.2625C55.6286 91.1792 56.6578 91.6375 58.0161 91.6375Z" fill="url(#paint46_linear_171_42233)"/>
<path d="M71.9058 93.725C71.0391 93.725 70.2933 93.5875 69.6683 93.3125C69.0516 93.0375 68.5391 92.6708 68.1308 92.2125C67.7224 91.7542 67.4016 91.2458 67.1683 90.6875C66.9349 90.1292 66.7683 89.5583 66.6683 88.975C66.5766 88.3917 66.5308 87.8458 66.5308 87.3375V79.875H68.7808V86.6375C68.7808 87.2708 68.8391 87.8833 68.9558 88.475C69.0724 89.0667 69.2683 89.6 69.5433 90.075C69.8266 90.55 70.2016 90.925 70.6683 91.2C71.1433 91.475 71.7349 91.6125 72.4433 91.6125C73.0016 91.6125 73.5099 91.5167 73.9683 91.325C74.4266 91.1333 74.8183 90.85 75.1433 90.475C75.4683 90.0917 75.7183 89.6083 75.8933 89.025C76.0683 88.4417 76.1558 87.7625 76.1558 86.9875L77.6183 87.4375C77.6183 88.7375 77.3808 89.8583 76.9058 90.8C76.4391 91.7417 75.7766 92.4667 74.9183 92.975C74.0683 93.475 73.0641 93.725 71.9058 93.725ZM76.4058 93.375V89.7625H76.1558V79.875H78.3933V93.375H76.4058Z" fill="url(#paint47_linear_171_42233)"/>
<path d="M91.0056 93.375V86.6125C91.0056 85.9708 90.9472 85.3542 90.8306 84.7625C90.7222 84.1708 90.5264 83.6417 90.2431 83.175C89.9681 82.7 89.5931 82.325 89.1181 82.05C88.6514 81.775 88.0597 81.6375 87.3431 81.6375C86.7847 81.6375 86.2764 81.7333 85.8181 81.925C85.3681 82.1083 84.9806 82.3917 84.6556 82.775C84.3306 83.1583 84.0764 83.6417 83.8931 84.225C83.7181 84.8 83.6306 85.4792 83.6306 86.2625L82.1681 85.8125C82.1681 84.5042 82.4014 83.3833 82.8681 82.45C83.3431 81.5083 84.0056 80.7875 84.8556 80.2875C85.7139 79.7792 86.7222 79.525 87.8806 79.525C88.7556 79.525 89.5014 79.6625 90.1181 79.9375C90.7347 80.2125 91.2472 80.5792 91.6556 81.0375C92.0639 81.4875 92.3847 81.9958 92.6181 82.5625C92.8514 83.1208 93.0139 83.6917 93.1056 84.275C93.2056 84.85 93.2556 85.3958 93.2556 85.9125V93.375H91.0056ZM81.3806 93.375V79.875H83.3806V83.4875H83.6306V93.375H81.3806Z" fill="url(#paint48_linear_171_42233)"/>
<path d="M101.183 93.75C99.925 93.75 98.8458 93.4375 97.9458 92.8125C97.0458 92.1792 96.35 91.325 95.8583 90.25C95.375 89.175 95.1333 87.9625 95.1333 86.6125C95.1333 85.2625 95.375 84.05 95.8583 82.975C96.35 81.9 97.0458 81.0542 97.9458 80.4375C98.8458 79.8125 99.9208 79.5 101.171 79.5C102.446 79.5 103.517 79.8083 104.383 80.425C105.25 81.0417 105.904 81.8875 106.346 82.9625C106.796 84.0375 107.021 85.2542 107.021 86.6125C107.021 87.9542 106.796 89.1667 106.346 90.25C105.904 91.325 105.25 92.1792 104.383 92.8125C103.517 93.4375 102.45 93.75 101.183 93.75ZM101.458 91.7125C102.367 91.7125 103.112 91.4958 103.696 91.0625C104.279 90.6208 104.708 90.0167 104.983 89.25C105.267 88.475 105.408 87.5958 105.408 86.6125C105.408 85.6125 105.267 84.7333 104.983 83.975C104.708 83.2083 104.283 82.6125 103.708 82.1875C103.133 81.7542 102.404 81.5375 101.521 81.5375C100.604 81.5375 99.8458 81.7625 99.2458 82.2125C98.6541 82.6625 98.2125 83.2708 97.9208 84.0375C97.6375 84.8042 97.4958 85.6625 97.4958 86.6125C97.4958 87.5708 97.6416 88.4375 97.9333 89.2125C98.225 89.9792 98.6625 90.5875 99.2458 91.0375C99.8375 91.4875 100.575 91.7125 101.458 91.7125ZM105.408 93.375V83.4375H105.158V75.375H107.396V93.375H105.408Z" fill="url(#paint49_linear_171_42233)"/>
<path d="M110.148 86.4125V84.575H117.648V86.4125H110.148Z" fill="url(#paint50_linear_171_42233)"/>
<path d="M127.933 93.375C127.133 93.5333 126.342 93.5958 125.558 93.5625C124.783 93.5375 124.092 93.3833 123.483 93.1C122.875 92.8083 122.413 92.3583 122.096 91.75C121.829 91.2167 121.683 90.6792 121.658 90.1375C121.642 89.5875 121.633 88.9667 121.633 88.275V76.125H123.858V88.175C123.858 88.725 123.863 89.1958 123.871 89.5875C123.888 89.9792 123.975 90.3167 124.133 90.6C124.434 91.1333 124.908 91.4458 125.558 91.5375C126.217 91.6292 127.008 91.6042 127.933 91.4625V93.375ZM118.896 81.7125V79.875H127.933V81.7125H118.896Z" fill="url(#paint51_linear_171_42233)"/>
<path d="M139.787 93.375V86.6125C139.787 85.9708 139.728 85.3542 139.612 84.7625C139.503 84.1708 139.308 83.6417 139.024 83.175C138.749 82.7 138.374 82.325 137.899 82.05C137.433 81.775 136.841 81.6375 136.124 81.6375C135.566 81.6375 135.058 81.7333 134.599 81.925C134.149 82.1083 133.762 82.3917 133.437 82.775C133.112 83.1583 132.858 83.6417 132.674 84.225C132.499 84.8 132.412 85.4792 132.412 86.2625L130.949 85.8125C130.949 84.5042 131.183 83.3833 131.649 82.45C132.124 81.5083 132.787 80.7875 133.637 80.2875C134.495 79.7792 135.503 79.525 136.662 79.525C137.537 79.525 138.283 79.6625 138.899 79.9375C139.516 80.2125 140.028 80.5792 140.437 81.0375C140.845 81.4875 141.166 81.9958 141.399 82.5625C141.633 83.1208 141.795 83.6917 141.887 84.275C141.987 84.85 142.037 85.3958 142.037 85.9125V93.375H139.787ZM130.162 93.375V75.375H132.162V85.3125H132.412V93.375H130.162Z" fill="url(#paint52_linear_171_42233)"/>
<path d="M150.637 93.75C149.312 93.75 148.153 93.4583 147.162 92.875C146.178 92.2833 145.412 91.4625 144.862 90.4125C144.312 89.3542 144.037 88.1208 144.037 86.7125C144.037 85.2375 144.307 83.9625 144.849 82.8875C145.391 81.8042 146.145 80.9708 147.112 80.3875C148.087 79.7958 149.228 79.5 150.537 79.5C151.895 79.5 153.049 79.8125 153.999 80.4375C154.957 81.0625 155.674 81.9542 156.149 83.1125C156.632 84.2708 156.841 85.65 156.774 87.25H154.524V86.45C154.499 84.7917 154.162 83.5542 153.512 82.7375C152.862 81.9125 151.895 81.5 150.612 81.5C149.237 81.5 148.191 81.9417 147.474 82.825C146.757 83.7083 146.399 84.975 146.399 86.625C146.399 88.2167 146.757 89.45 147.474 90.325C148.191 91.2 149.212 91.6375 150.537 91.6375C151.428 91.6375 152.203 91.4333 152.862 91.025C153.52 90.6167 154.037 90.0292 154.412 89.2625L156.549 90C156.024 91.1917 155.232 92.1167 154.174 92.775C153.124 93.425 151.945 93.75 150.637 93.75ZM145.649 87.25V85.4625H155.624V87.25H145.649Z" fill="url(#paint53_linear_171_42233)"/>
<path d="M158.807 86.4125V84.575H166.307V86.4125H158.807Z" fill="url(#paint54_linear_171_42233)"/>
<path d="M174.743 93.75C173.376 93.75 172.214 93.4458 171.255 92.8375C170.305 92.2208 169.58 91.375 169.08 90.3C168.58 89.225 168.322 88 168.305 86.625C168.322 85.2167 168.584 83.9792 169.093 82.9125C169.609 81.8375 170.347 81 171.305 80.4C172.264 79.8 173.418 79.5 174.768 79.5C176.193 79.5 177.418 79.85 178.443 80.55C179.476 81.25 180.168 82.2083 180.518 83.425L178.318 84.0875C178.034 83.3042 177.572 82.6958 176.93 82.2625C176.297 81.8292 175.568 81.6125 174.743 81.6125C173.818 81.6125 173.055 81.8292 172.455 82.2625C171.855 82.6875 171.409 83.2792 171.118 84.0375C170.826 84.7875 170.676 85.65 170.668 86.625C170.684 88.125 171.03 89.3375 171.705 90.2625C172.389 91.1792 173.401 91.6375 174.743 91.6375C175.626 91.6375 176.359 91.4375 176.943 91.0375C177.526 90.6292 177.968 90.0417 178.268 89.275L180.518 89.8625C180.051 91.1208 179.322 92.0833 178.33 92.75C177.339 93.4167 176.143 93.75 174.743 93.75Z" fill="url(#paint55_linear_171_42233)"/>
<path d="M182.453 93.375V75H184.678V93.375H182.453Z" fill="url(#paint56_linear_171_42233)"/>
<path d="M193.678 93.75C192.337 93.75 191.178 93.4458 190.203 92.8375C189.237 92.2292 188.491 91.3875 187.966 90.3125C187.441 89.2375 187.178 88.0042 187.178 86.6125C187.178 85.1958 187.445 83.9542 187.978 82.8875C188.512 81.8208 189.266 80.9917 190.241 80.4C191.216 79.8 192.362 79.5 193.678 79.5C195.028 79.5 196.191 79.8042 197.166 80.4125C198.141 81.0125 198.887 81.85 199.403 82.925C199.928 83.9917 200.191 85.2208 200.191 86.6125C200.191 88.0208 199.928 89.2625 199.403 90.3375C198.878 91.4042 198.128 92.2417 197.153 92.85C196.178 93.45 195.02 93.75 193.678 93.75ZM193.678 91.6375C195.078 91.6375 196.12 91.1708 196.803 90.2375C197.487 89.3042 197.828 88.0958 197.828 86.6125C197.828 85.0875 197.482 83.875 196.791 82.975C196.099 82.0667 195.062 81.6125 193.678 81.6125C192.737 81.6125 191.962 81.825 191.353 82.25C190.745 82.675 190.291 83.2625 189.991 84.0125C189.691 84.7625 189.541 85.6292 189.541 86.6125C189.541 88.1292 189.891 89.3458 190.591 90.2625C191.291 91.1792 192.32 91.6375 193.678 91.6375Z" fill="url(#paint57_linear_171_42233)"/>
<path d="M208.13 93.75C206.764 93.75 205.601 93.4458 204.643 92.8375C203.693 92.2208 202.968 91.375 202.468 90.3C201.968 89.225 201.71 88 201.693 86.625C201.71 85.2167 201.972 83.9792 202.48 82.9125C202.997 81.8375 203.735 81 204.693 80.4C205.651 79.8 206.805 79.5 208.155 79.5C209.58 79.5 210.805 79.85 211.83 80.55C212.864 81.25 213.555 82.2083 213.905 83.425L211.705 84.0875C211.422 83.3042 210.96 82.6958 210.318 82.2625C209.685 81.8292 208.955 81.6125 208.13 81.6125C207.205 81.6125 206.443 81.8292 205.843 82.2625C205.243 82.6875 204.797 83.2792 204.505 84.0375C204.214 84.7875 204.064 85.65 204.055 86.625C204.072 88.125 204.418 89.3375 205.093 90.2625C205.776 91.1792 206.789 91.6375 208.13 91.6375C209.014 91.6375 209.747 91.4375 210.33 91.0375C210.914 90.6292 211.355 90.0417 211.655 89.275L213.905 89.8625C213.439 91.1208 212.71 92.0833 211.718 92.75C210.726 93.4167 209.53 93.75 208.13 93.75Z" fill="url(#paint58_linear_171_42233)"/>
<path d="M215.944 93.375L215.957 75.375H218.207V86.375L223.869 79.875H226.757L220.794 86.625L227.457 93.375H224.344L218.207 86.875V93.375H215.944Z" fill="url(#paint59_linear_171_42233)"/>
<path d="M178.509 118.75C177.242 118.75 176.175 118.438 175.309 117.812C174.442 117.179 173.784 116.325 173.334 115.25C172.892 114.167 172.671 112.954 172.671 111.613C172.671 110.254 172.892 109.037 173.334 107.963C173.784 106.888 174.442 106.042 175.309 105.425C176.184 104.808 177.254 104.5 178.521 104.5C179.771 104.5 180.846 104.812 181.746 105.438C182.654 106.054 183.35 106.9 183.834 107.975C184.317 109.05 184.559 110.263 184.559 111.613C184.559 112.963 184.317 114.175 183.834 115.25C183.35 116.325 182.654 117.179 181.746 117.812C180.846 118.438 179.767 118.75 178.509 118.75ZM172.296 118.375V100.375H174.534V108.438H174.284V118.375H172.296ZM178.234 116.713C179.125 116.713 179.863 116.487 180.446 116.037C181.029 115.588 181.467 114.979 181.759 114.213C182.05 113.438 182.196 112.571 182.196 111.613C182.196 110.663 182.05 109.804 181.759 109.037C181.475 108.271 181.034 107.662 180.434 107.213C179.842 106.763 179.088 106.537 178.171 106.537C177.296 106.537 176.571 106.754 175.996 107.188C175.421 107.613 174.992 108.208 174.709 108.975C174.425 109.733 174.284 110.613 174.284 111.613C174.284 112.596 174.421 113.475 174.696 114.25C174.979 115.017 175.413 115.621 175.996 116.062C176.579 116.496 177.325 116.713 178.234 116.713Z" fill="url(#paint60_linear_171_42233)"/>
<path d="M187.941 124.375L190.554 117.275L190.591 119.375L184.691 104.875H187.029L191.654 116.537H190.854L195.191 104.875H197.454L190.104 124.375H187.941Z" fill="url(#paint61_linear_171_42233)"/>
<path d="M219.661 118.375L219.673 109.738C219.673 108.729 219.403 107.942 218.861 107.375C218.328 106.8 217.632 106.512 216.773 106.512C216.273 106.512 215.798 106.629 215.348 106.863C214.898 107.088 214.532 107.446 214.248 107.938C213.965 108.421 213.823 109.042 213.823 109.8L212.648 109.325C212.632 108.367 212.828 107.529 213.236 106.812C213.653 106.088 214.219 105.525 214.936 105.125C215.653 104.725 216.461 104.525 217.361 104.525C218.769 104.525 219.878 104.954 220.686 105.812C221.494 106.662 221.898 107.808 221.898 109.25L221.886 118.375H219.661ZM203.511 118.375V104.875H205.498V108.488H205.748V118.375H203.511ZM211.598 118.375L211.611 109.825C211.611 108.792 211.344 107.983 210.811 107.4C210.278 106.808 209.569 106.512 208.686 106.512C207.811 106.512 207.103 106.812 206.561 107.412C206.019 108.012 205.748 108.808 205.748 109.8L204.573 109.1C204.573 108.225 204.782 107.442 205.198 106.75C205.615 106.058 206.182 105.517 206.898 105.125C207.615 104.725 208.428 104.525 209.336 104.525C210.244 104.525 211.036 104.717 211.711 105.1C212.386 105.483 212.907 106.033 213.273 106.75C213.64 107.458 213.823 108.304 213.823 109.287L213.811 118.375H211.598Z" fill="url(#paint62_linear_171_42233)"/>
<path d="M228.492 118.75C227.483 118.75 226.638 118.567 225.954 118.2C225.279 117.825 224.767 117.333 224.417 116.725C224.075 116.117 223.904 115.45 223.904 114.725C223.904 114.017 224.038 113.404 224.304 112.887C224.579 112.362 224.963 111.929 225.454 111.588C225.946 111.238 226.533 110.962 227.217 110.762C227.858 110.587 228.575 110.438 229.367 110.312C230.167 110.179 230.975 110.058 231.792 109.95C232.608 109.842 233.371 109.737 234.079 109.637L233.279 110.1C233.304 108.9 233.063 108.012 232.554 107.438C232.054 106.863 231.188 106.575 229.954 106.575C229.138 106.575 228.421 106.762 227.804 107.137C227.196 107.504 226.767 108.104 226.517 108.938L224.404 108.3C224.729 107.117 225.358 106.188 226.292 105.512C227.225 104.837 228.454 104.5 229.979 104.5C231.204 104.5 232.254 104.721 233.129 105.162C234.013 105.596 234.646 106.254 235.029 107.137C235.221 107.554 235.342 108.008 235.392 108.5C235.442 108.983 235.467 109.492 235.467 110.025V118.375H233.492V115.137L233.954 115.438C233.446 116.529 232.733 117.354 231.817 117.912C230.908 118.471 229.8 118.75 228.492 118.75ZM228.829 116.887C229.629 116.887 230.321 116.746 230.904 116.463C231.496 116.171 231.971 115.792 232.329 115.325C232.688 114.85 232.921 114.333 233.029 113.775C233.154 113.358 233.221 112.896 233.229 112.387C233.246 111.871 233.254 111.475 233.254 111.2L234.029 111.537C233.304 111.637 232.592 111.733 231.892 111.825C231.192 111.917 230.529 112.017 229.904 112.125C229.279 112.225 228.717 112.346 228.217 112.488C227.85 112.604 227.504 112.754 227.179 112.938C226.863 113.121 226.604 113.358 226.404 113.65C226.213 113.933 226.117 114.287 226.117 114.713C226.117 115.079 226.208 115.429 226.392 115.762C226.583 116.096 226.875 116.367 227.267 116.575C227.667 116.783 228.188 116.887 228.829 116.887Z" fill="url(#paint63_linear_171_42233)"/>
<path d="M238.467 102.488V100.188H240.692V102.488H238.467ZM238.467 118.375V104.875H240.692V118.375H238.467Z" fill="url(#paint64_linear_171_42233)"/>
<path d="M244.192 118.375V100H246.417V118.375H244.192Z" fill="url(#paint65_linear_171_42233)"/>
<path d="M46.6612 143.75C45.6529 143.75 44.8071 143.567 44.1237 143.2C43.4487 142.825 42.9362 142.333 42.5862 141.725C42.2446 141.117 42.0737 140.45 42.0737 139.725C42.0737 139.017 42.2071 138.404 42.4737 137.887C42.7487 137.363 43.1321 136.929 43.6237 136.587C44.1154 136.237 44.7029 135.962 45.3862 135.762C46.0279 135.587 46.7446 135.438 47.5362 135.312C48.3362 135.179 49.1446 135.058 49.9612 134.95C50.7779 134.842 51.5404 134.738 52.2487 134.637L51.4487 135.1C51.4737 133.9 51.2321 133.012 50.7237 132.438C50.2237 131.863 49.3571 131.575 48.1237 131.575C47.3071 131.575 46.5904 131.762 45.9737 132.137C45.3654 132.504 44.9362 133.104 44.6862 133.938L42.5737 133.3C42.8987 132.117 43.5279 131.188 44.4612 130.512C45.3946 129.837 46.6237 129.5 48.1487 129.5C49.3737 129.5 50.4237 129.721 51.2987 130.163C52.1821 130.596 52.8154 131.254 53.1987 132.137C53.3904 132.554 53.5112 133.008 53.5612 133.5C53.6112 133.983 53.6362 134.492 53.6362 135.025V143.375H51.6612V140.137L52.1237 140.438C51.6154 141.529 50.9029 142.354 49.9862 142.913C49.0779 143.471 47.9696 143.75 46.6612 143.75ZM46.9987 141.887C47.7987 141.887 48.4904 141.746 49.0737 141.462C49.6654 141.171 50.1404 140.792 50.4987 140.325C50.8571 139.85 51.0904 139.333 51.1987 138.775C51.3237 138.358 51.3904 137.896 51.3987 137.387C51.4154 136.871 51.4237 136.475 51.4237 136.2L52.1987 136.538C51.4737 136.638 50.7612 136.733 50.0612 136.825C49.3612 136.917 48.6987 137.017 48.0737 137.125C47.4487 137.225 46.8862 137.346 46.3862 137.488C46.0196 137.604 45.6737 137.754 45.3487 137.938C45.0321 138.121 44.7737 138.358 44.5737 138.65C44.3821 138.933 44.2862 139.287 44.2862 139.712C44.2862 140.079 44.3779 140.429 44.5612 140.762C44.7529 141.096 45.0446 141.367 45.4362 141.575C45.8362 141.783 46.3571 141.887 46.9987 141.887Z" fill="url(#paint66_linear_171_42233)"/>
<path d="M65.9987 143.375V136.613C65.9987 135.971 65.9404 135.354 65.8237 134.762C65.7154 134.171 65.5196 133.642 65.2362 133.175C64.9612 132.7 64.5862 132.325 64.1112 132.05C63.6446 131.775 63.0529 131.637 62.3362 131.637C61.7779 131.637 61.2696 131.733 60.8112 131.925C60.3612 132.108 59.9737 132.392 59.6487 132.775C59.3237 133.158 59.0696 133.642 58.8862 134.225C58.7112 134.8 58.6237 135.479 58.6237 136.262L57.1612 135.812C57.1612 134.504 57.3946 133.383 57.8612 132.45C58.3362 131.508 58.9987 130.788 59.8487 130.288C60.7071 129.779 61.7154 129.525 62.8737 129.525C63.7487 129.525 64.4946 129.663 65.1112 129.938C65.7279 130.212 66.2404 130.579 66.6487 131.038C67.0571 131.488 67.3779 131.996 67.6112 132.562C67.8446 133.121 68.0071 133.692 68.0987 134.275C68.1987 134.85 68.2487 135.396 68.2487 135.913V143.375H65.9987ZM56.3737 143.375V129.875H58.3737V133.488H58.6237V143.375H56.3737Z" fill="url(#paint67_linear_171_42233)"/>
<path d="M76.1765 143.75C74.9181 143.75 73.839 143.438 72.939 142.812C72.039 142.179 71.3431 141.325 70.8515 140.25C70.3681 139.175 70.1265 137.963 70.1265 136.613C70.1265 135.262 70.3681 134.05 70.8515 132.975C71.3431 131.9 72.039 131.054 72.939 130.438C73.839 129.812 74.914 129.5 76.164 129.5C77.439 129.5 78.5098 129.808 79.3765 130.425C80.2431 131.042 80.8973 131.887 81.339 132.962C81.789 134.037 82.014 135.254 82.014 136.613C82.014 137.954 81.789 139.167 81.339 140.25C80.8973 141.325 80.2431 142.179 79.3765 142.812C78.5098 143.438 77.4431 143.75 76.1765 143.75ZM76.4515 141.712C77.3598 141.712 78.1056 141.496 78.689 141.062C79.2723 140.621 79.7015 140.017 79.9765 139.25C80.2598 138.475 80.4015 137.596 80.4015 136.613C80.4015 135.613 80.2598 134.733 79.9765 133.975C79.7015 133.208 79.2765 132.613 78.7015 132.188C78.1265 131.754 77.3973 131.538 76.514 131.538C75.5973 131.538 74.839 131.762 74.239 132.212C73.6473 132.662 73.2056 133.271 72.914 134.038C72.6306 134.804 72.489 135.663 72.489 136.613C72.489 137.571 72.6348 138.438 72.9265 139.212C73.2181 139.979 73.6556 140.588 74.239 141.038C74.8306 141.488 75.5681 141.712 76.4515 141.712ZM80.4015 143.375V133.438H80.1515V125.375H82.389V143.375H80.4015Z" fill="url(#paint68_linear_171_42233)"/>
<path d="M106.034 143.375L106.046 134.738C106.046 133.729 105.775 132.942 105.233 132.375C104.7 131.8 104.004 131.512 103.146 131.512C102.646 131.512 102.171 131.629 101.721 131.863C101.271 132.088 100.904 132.446 100.621 132.938C100.338 133.421 100.196 134.042 100.196 134.8L99.021 134.325C99.0043 133.367 99.2002 132.529 99.6085 131.812C100.025 131.087 100.592 130.525 101.308 130.125C102.025 129.725 102.833 129.525 103.733 129.525C105.142 129.525 106.25 129.954 107.058 130.812C107.867 131.663 108.271 132.808 108.271 134.25L108.258 143.375H106.034ZM89.8835 143.375V129.875H91.871V133.488H92.121V143.375H89.8835ZM97.971 143.375L97.9835 134.825C97.9835 133.792 97.7168 132.983 97.1835 132.4C96.6502 131.808 95.9418 131.512 95.0585 131.512C94.1835 131.512 93.4752 131.812 92.9335 132.413C92.3918 133.013 92.121 133.808 92.121 134.8L90.946 134.1C90.946 133.225 91.1543 132.442 91.571 131.75C91.9877 131.058 92.5543 130.517 93.271 130.125C93.9877 129.725 94.8002 129.525 95.7085 129.525C96.6168 129.525 97.4085 129.717 98.0835 130.1C98.7585 130.483 99.2793 131.033 99.646 131.75C100.013 132.458 100.196 133.304 100.196 134.288L100.183 143.375H97.971Z" fill="url(#paint69_linear_171_42233)"/>
<path d="M116.755 143.75C115.43 143.75 114.271 143.458 113.28 142.875C112.296 142.283 111.53 141.463 110.98 140.413C110.43 139.354 110.155 138.121 110.155 136.712C110.155 135.237 110.426 133.962 110.967 132.887C111.509 131.804 112.263 130.971 113.23 130.387C114.205 129.796 115.346 129.5 116.655 129.5C118.013 129.5 119.167 129.812 120.117 130.438C121.076 131.062 121.792 131.954 122.267 133.113C122.751 134.271 122.959 135.65 122.892 137.25H120.642V136.45C120.617 134.792 120.28 133.554 119.63 132.738C118.98 131.913 118.013 131.5 116.73 131.5C115.355 131.5 114.309 131.942 113.592 132.825C112.876 133.708 112.517 134.975 112.517 136.625C112.517 138.217 112.876 139.45 113.592 140.325C114.309 141.2 115.33 141.637 116.655 141.637C117.546 141.637 118.321 141.433 118.98 141.025C119.638 140.617 120.155 140.029 120.53 139.262L122.667 140C122.142 141.192 121.351 142.117 120.292 142.775C119.242 143.425 118.063 143.75 116.755 143.75ZM111.767 137.25V135.462H121.742V137.25H111.767Z" fill="url(#paint70_linear_171_42233)"/>
<path d="M130.275 143.738C128.667 143.738 127.346 143.387 126.313 142.688C125.288 141.979 124.659 140.992 124.425 139.725L126.7 139.363C126.884 140.096 127.304 140.679 127.963 141.113C128.621 141.538 129.438 141.75 130.413 141.75C131.338 141.75 132.063 141.558 132.588 141.175C133.113 140.792 133.375 140.271 133.375 139.613C133.375 139.229 133.288 138.921 133.113 138.688C132.938 138.446 132.575 138.221 132.025 138.012C131.484 137.804 130.663 137.554 129.563 137.262C128.371 136.946 127.434 136.617 126.75 136.275C126.067 135.933 125.579 135.537 125.288 135.087C124.996 134.637 124.85 134.092 124.85 133.45C124.85 132.658 125.067 131.967 125.5 131.375C125.934 130.775 126.538 130.312 127.313 129.988C128.096 129.663 129.004 129.5 130.038 129.5C131.063 129.5 131.979 129.663 132.788 129.988C133.596 130.312 134.246 130.775 134.738 131.375C135.238 131.967 135.534 132.658 135.625 133.45L133.35 133.863C133.242 133.137 132.892 132.567 132.3 132.15C131.717 131.733 130.963 131.512 130.038 131.488C129.163 131.454 128.45 131.608 127.9 131.95C127.359 132.292 127.088 132.754 127.088 133.337C127.088 133.662 127.188 133.942 127.388 134.175C127.596 134.408 127.975 134.629 128.525 134.837C129.084 135.046 129.892 135.283 130.95 135.55C132.142 135.85 133.079 136.179 133.763 136.538C134.454 136.888 134.946 137.304 135.238 137.788C135.529 138.263 135.675 138.85 135.675 139.55C135.675 140.85 135.196 141.875 134.238 142.625C133.279 143.367 131.959 143.738 130.275 143.738Z" fill="url(#paint71_linear_171_42233)"/>
<path d="M143.032 143.738C141.424 143.738 140.103 143.387 139.07 142.688C138.045 141.979 137.415 140.992 137.182 139.725L139.457 139.363C139.64 140.096 140.061 140.679 140.72 141.113C141.378 141.538 142.195 141.75 143.17 141.75C144.095 141.75 144.82 141.558 145.345 141.175C145.87 140.792 146.132 140.271 146.132 139.613C146.132 139.229 146.045 138.921 145.87 138.688C145.695 138.446 145.332 138.221 144.782 138.012C144.24 137.804 143.42 137.554 142.32 137.262C141.128 136.946 140.19 136.617 139.507 136.275C138.824 135.933 138.336 135.537 138.045 135.087C137.753 134.637 137.607 134.092 137.607 133.45C137.607 132.658 137.824 131.967 138.257 131.375C138.69 130.775 139.295 130.312 140.07 129.988C140.853 129.663 141.761 129.5 142.795 129.5C143.82 129.5 144.736 129.663 145.545 129.988C146.353 130.312 147.003 130.775 147.495 131.375C147.995 131.967 148.29 132.658 148.382 133.45L146.107 133.863C145.999 133.137 145.649 132.567 145.057 132.15C144.474 131.733 143.72 131.512 142.795 131.488C141.92 131.454 141.207 131.608 140.657 131.95C140.115 132.292 139.845 132.754 139.845 133.337C139.845 133.662 139.945 133.942 140.145 134.175C140.353 134.408 140.732 134.629 141.282 134.837C141.84 135.046 142.649 135.283 143.707 135.55C144.899 135.85 145.836 136.179 146.52 136.538C147.211 136.888 147.703 137.304 147.995 137.788C148.286 138.263 148.432 138.85 148.432 139.55C148.432 140.85 147.953 141.875 146.995 142.625C146.036 143.367 144.715 143.738 143.032 143.738Z" fill="url(#paint72_linear_171_42233)"/>
<path d="M156.539 143.75C155.214 143.75 154.056 143.458 153.064 142.875C152.081 142.283 151.314 141.463 150.764 140.413C150.214 139.354 149.939 138.121 149.939 136.712C149.939 135.237 150.21 133.962 150.751 132.887C151.293 131.804 152.047 130.971 153.014 130.387C153.989 129.796 155.131 129.5 156.439 129.5C157.797 129.5 158.951 129.812 159.901 130.438C160.86 131.062 161.576 131.954 162.051 133.113C162.535 134.271 162.743 135.65 162.676 137.25H160.426V136.45C160.401 134.792 160.064 133.554 159.414 132.738C158.764 131.913 157.797 131.5 156.514 131.5C155.139 131.5 154.093 131.942 153.376 132.825C152.66 133.708 152.301 134.975 152.301 136.625C152.301 138.217 152.66 139.45 153.376 140.325C154.093 141.2 155.114 141.637 156.439 141.637C157.331 141.637 158.106 141.433 158.764 141.025C159.422 140.617 159.939 140.029 160.314 139.262L162.451 140C161.926 141.192 161.135 142.117 160.076 142.775C159.026 143.425 157.847 143.75 156.539 143.75ZM151.551 137.25V135.462H161.526V137.25H151.551Z" fill="url(#paint73_linear_171_42233)"/>
<path d="M174.206 143.375V136.613C174.206 135.971 174.147 135.354 174.031 134.762C173.922 134.171 173.727 133.642 173.443 133.175C173.168 132.7 172.793 132.325 172.318 132.05C171.852 131.775 171.26 131.637 170.543 131.637C169.985 131.637 169.477 131.733 169.018 131.925C168.568 132.108 168.181 132.392 167.856 132.775C167.531 133.158 167.277 133.642 167.093 134.225C166.918 134.8 166.831 135.479 166.831 136.262L165.368 135.812C165.368 134.504 165.602 133.383 166.068 132.45C166.543 131.508 167.206 130.788 168.056 130.288C168.914 129.779 169.922 129.525 171.081 129.525C171.956 129.525 172.702 129.663 173.318 129.938C173.935 130.212 174.447 130.579 174.856 131.038C175.264 131.488 175.585 131.996 175.818 132.562C176.052 133.121 176.214 133.692 176.306 134.275C176.406 134.85 176.456 135.396 176.456 135.913V143.375H174.206ZM164.581 143.375V129.875H166.581V133.488H166.831V143.375H164.581Z" fill="url(#paint74_linear_171_42233)"/>
<path d="M184.668 149.75C183.96 149.75 183.268 149.642 182.593 149.425C181.918 149.208 181.297 148.879 180.731 148.438C180.172 148.004 179.706 147.454 179.331 146.788L181.368 145.712C181.701 146.371 182.172 146.85 182.781 147.15C183.397 147.45 184.031 147.6 184.681 147.6C185.539 147.6 186.251 147.442 186.818 147.125C187.385 146.817 187.801 146.354 188.068 145.738C188.343 145.121 188.476 144.354 188.468 143.438V139.75H188.731V129.875H190.706V143.462C190.706 143.829 190.693 144.183 190.668 144.525C190.651 144.867 190.61 145.204 190.543 145.538C190.368 146.496 190.022 147.283 189.506 147.9C188.989 148.525 188.322 148.988 187.506 149.288C186.689 149.596 185.743 149.75 184.668 149.75ZM184.506 143.75C183.247 143.75 182.168 143.438 181.268 142.812C180.368 142.179 179.672 141.325 179.181 140.25C178.697 139.175 178.456 137.963 178.456 136.613C178.456 135.262 178.697 134.05 179.181 132.975C179.672 131.9 180.368 131.054 181.268 130.438C182.168 129.812 183.243 129.5 184.493 129.5C185.768 129.5 186.839 129.808 187.706 130.425C188.572 131.042 189.226 131.887 189.668 132.962C190.118 134.037 190.343 135.254 190.343 136.613C190.343 137.954 190.118 139.167 189.668 140.25C189.226 141.325 188.572 142.179 187.706 142.812C186.839 143.438 185.772 143.75 184.506 143.75ZM184.781 141.712C185.689 141.712 186.435 141.496 187.018 141.062C187.601 140.621 188.031 140.017 188.306 139.25C188.589 138.475 188.731 137.596 188.731 136.613C188.731 135.613 188.589 134.733 188.306 133.975C188.031 133.208 187.606 132.613 187.031 132.188C186.456 131.754 185.726 131.538 184.843 131.538C183.926 131.538 183.168 131.762 182.568 132.212C181.976 132.662 181.535 133.271 181.243 134.038C180.96 134.804 180.818 135.663 180.818 136.613C180.818 137.571 180.964 138.438 181.256 139.212C181.547 139.979 181.985 140.588 182.568 141.038C183.16 141.488 183.897 141.712 184.781 141.712Z" fill="url(#paint75_linear_171_42233)"/>
<path d="M199.546 143.75C198.221 143.75 197.062 143.458 196.071 142.875C195.087 142.283 194.321 141.463 193.771 140.413C193.221 139.354 192.946 138.121 192.946 136.712C192.946 135.237 193.217 133.962 193.758 132.887C194.3 131.804 195.054 130.971 196.021 130.387C196.996 129.796 198.137 129.5 199.446 129.5C200.804 129.5 201.958 129.812 202.908 130.438C203.867 131.062 204.583 131.954 205.058 133.113C205.542 134.271 205.75 135.65 205.683 137.25H203.433V136.45C203.408 134.792 203.071 133.554 202.421 132.738C201.771 131.913 200.804 131.5 199.521 131.5C198.146 131.5 197.1 131.942 196.383 132.825C195.667 133.708 195.308 134.975 195.308 136.625C195.308 138.217 195.667 139.45 196.383 140.325C197.1 141.2 198.121 141.637 199.446 141.637C200.337 141.637 201.112 141.433 201.771 141.025C202.429 140.617 202.946 140.029 203.321 139.262L205.458 140C204.933 141.192 204.142 142.117 203.083 142.775C202.033 143.425 200.854 143.75 199.546 143.75ZM194.558 137.25V135.462H204.533V137.25H194.558Z" fill="url(#paint76_linear_171_42233)"/>
<path d="M207.966 143.375V129.875H209.954V133.137L209.629 132.712C209.787 132.296 209.991 131.913 210.241 131.562C210.5 131.212 210.787 130.925 211.104 130.7C211.454 130.417 211.85 130.2 212.291 130.05C212.733 129.9 213.183 129.812 213.641 129.788C214.1 129.754 214.529 129.783 214.929 129.875V131.962C214.462 131.837 213.95 131.804 213.391 131.863C212.833 131.921 212.316 132.125 211.841 132.475C211.408 132.783 211.07 133.158 210.829 133.6C210.595 134.042 210.433 134.521 210.341 135.038C210.25 135.546 210.204 136.067 210.204 136.6V143.375H207.966Z" fill="url(#paint77_linear_171_42233)"/>
<path d="M221.404 143.738C219.796 143.738 218.475 143.387 217.442 142.688C216.417 141.979 215.788 140.992 215.554 139.725L217.829 139.363C218.013 140.096 218.433 140.679 219.092 141.113C219.75 141.538 220.567 141.75 221.542 141.75C222.467 141.75 223.192 141.558 223.717 141.175C224.242 140.792 224.504 140.271 224.504 139.613C224.504 139.229 224.417 138.921 224.242 138.688C224.067 138.446 223.704 138.221 223.154 138.012C222.613 137.804 221.792 137.554 220.692 137.262C219.5 136.946 218.563 136.617 217.879 136.275C217.196 135.933 216.708 135.537 216.417 135.087C216.125 134.637 215.979 134.092 215.979 133.45C215.979 132.658 216.196 131.967 216.629 131.375C217.063 130.775 217.667 130.312 218.442 129.988C219.225 129.663 220.133 129.5 221.167 129.5C222.192 129.5 223.108 129.663 223.917 129.988C224.725 130.312 225.375 130.775 225.867 131.375C226.367 131.967 226.663 132.658 226.754 133.45L224.479 133.863C224.371 133.137 224.021 132.567 223.429 132.15C222.846 131.733 222.092 131.512 221.167 131.488C220.292 131.454 219.579 131.608 219.029 131.95C218.488 132.292 218.217 132.754 218.217 133.337C218.217 133.662 218.317 133.942 218.517 134.175C218.725 134.408 219.104 134.629 219.654 134.837C220.213 135.046 221.021 135.283 222.079 135.55C223.271 135.85 224.208 136.179 224.892 136.538C225.583 136.888 226.075 137.304 226.367 137.788C226.658 138.263 226.804 138.85 226.804 139.55C226.804 140.85 226.325 141.875 225.367 142.625C224.408 143.367 223.088 143.738 221.404 143.738Z" fill="url(#paint78_linear_171_42233)"/>
<path fill-rule="evenodd" clip-rule="evenodd" d="M22.0994 99.4279C16.5778 99.5434 12.1953 104.113 12.3108 109.635L12.52 119.633C12.6356 125.154 17.2054 129.537 22.727 129.421L159.697 126.555C165.219 126.44 169.601 121.87 169.486 116.348L169.276 106.35C169.161 100.829 164.591 96.4463 159.069 96.5618L22.0994 99.4279ZM160.797 118.866C161.581 118.883 162.371 118.804 163.167 118.629L163.127 116.717C162.206 116.878 161.415 116.919 160.754 116.841C160.103 116.763 159.621 116.461 159.31 115.934C159.146 115.654 159.051 115.318 159.026 114.927C159.01 114.536 158.996 114.065 158.984 113.515L158.849 107.054L162.923 106.969L162.885 105.132L158.811 105.217L158.732 101.468L156.508 101.514L156.586 105.264L153.849 105.321L153.888 107.158L156.625 107.101L156.762 113.662C156.776 114.353 156.798 114.974 156.826 115.523C156.862 116.064 157.019 116.599 157.297 117.126C157.626 117.728 158.098 118.168 158.713 118.447C159.327 118.718 160.021 118.857 160.797 118.866ZM66.456 120.655L66.3144 113.894C66.301 113.252 66.2297 112.637 66.1007 112.048C65.98 111.458 65.7731 110.933 65.4801 110.473C65.1952 110.004 64.8124 109.637 64.3318 109.372C63.8594 109.106 63.265 108.981 62.5485 108.996C61.9903 109.008 61.4841 109.115 61.0299 109.316C60.5838 109.508 60.2023 109.8 59.8854 110.19C59.5685 110.58 59.3245 111.068 59.1535 111.656C58.9905 112.234 58.9173 112.915 58.9337 113.698L59.0826 120.809L56.8331 120.856L56.4562 102.86L58.4557 102.818L58.5864 109.057C58.9797 108.504 59.462 108.051 60.0333 107.699C60.8808 107.173 61.8836 106.897 63.0417 106.873C63.9165 106.855 64.665 106.977 65.2873 107.239C65.9096 107.501 66.4297 107.856 66.8475 108.306C67.2652 108.748 67.5966 109.249 67.8417 109.811C68.0867 110.364 68.2611 110.931 68.365 111.513C68.477 112.085 68.5384 112.63 68.5492 113.147L68.7055 120.607L66.456 120.655ZM27.3886 121.473C26.5921 121.648 25.8019 121.727 25.0181 121.71C24.2427 121.701 23.548 121.562 22.9338 121.291C22.3195 121.012 21.8477 120.572 21.5184 119.971C21.2406 119.443 21.0835 118.909 21.0472 118.368C21.019 117.818 20.9977 117.197 20.9832 116.506L20.8458 109.945L18.1089 110.002L18.0704 108.165L20.8073 108.108L20.7287 104.359L22.9533 104.312L23.0318 108.061L27.1059 107.976L27.1444 109.813L23.0703 109.898L23.2056 116.359C23.2171 116.909 23.2312 117.38 23.2477 117.771C23.2726 118.163 23.3671 118.498 23.5313 118.778C23.8424 119.305 24.3239 119.608 24.9757 119.686C25.6358 119.763 26.4267 119.722 27.3486 119.561L27.3886 121.473ZM34.9241 121.69C33.5994 121.718 32.4352 121.451 31.4316 120.888C30.436 120.317 29.6524 119.513 29.0805 118.474C28.5084 117.428 28.2077 116.2 28.1782 114.792C28.1473 113.318 28.3914 112.037 28.9104 110.951C29.4293 109.857 30.1658 109.008 31.12 108.404C32.0824 107.792 33.2177 107.473 34.5257 107.445C35.8837 107.417 37.0442 107.705 38.0071 108.31C38.9783 108.915 39.7135 109.791 40.2126 110.94C40.7201 112.088 40.9573 113.462 40.9241 115.063L39.7744 115.087L38.6746 115.11L30.571 115.28C30.6818 116.571 31.0549 117.588 31.6906 118.332C32.4254 119.192 33.4552 119.608 34.7799 119.58C35.6714 119.562 36.4419 119.341 37.0916 118.919C37.7412 118.497 38.2454 117.899 38.6043 117.125L40.7568 117.817C40.2569 119.02 39.4847 119.961 38.4404 120.641C37.4043 121.313 36.2322 121.663 34.9241 121.69ZM37.5679 110.62C38.095 111.254 38.4325 112.156 38.5803 113.324L30.5808 113.492C30.6919 112.394 31.0095 111.508 31.5335 110.834C32.2315 109.936 33.2679 109.472 34.6426 109.443C35.9256 109.416 36.9007 109.809 37.5679 110.62ZM45.5232 120.555C46.494 121.144 47.6627 121.423 49.029 121.395C50.4287 121.365 51.6173 121.007 52.5948 120.32C53.5723 119.633 54.2811 118.655 54.7213 117.387L52.4595 116.847C52.1757 117.62 51.7464 118.216 51.1717 118.637C50.5969 119.049 49.8679 119.264 48.9848 119.283C47.6434 119.311 46.6215 118.874 45.9192 117.972C45.2249 117.061 44.8538 115.856 44.8057 114.357C44.7936 113.382 44.9255 112.516 45.2014 111.76C45.4771 110.996 45.9105 110.395 46.5015 109.958C47.0922 109.512 47.85 109.279 48.7748 109.26C49.5997 109.243 50.3332 109.444 50.9755 109.864C51.6261 110.284 52.1012 110.882 52.4009 111.659L54.5865 110.951C54.2111 109.742 53.4995 108.798 52.4518 108.12C51.4123 107.442 50.1803 107.117 48.7556 107.147C47.4059 107.176 46.2583 107.5 45.3127 108.12C44.3671 108.74 43.6473 109.592 43.1533 110.678C42.6674 111.755 42.4309 112.998 42.4437 114.406C42.4892 115.78 42.7731 117 43.2955 118.064C43.8179 119.128 44.5605 119.959 45.5232 120.555ZM77.0815 119.744C78.1292 120.423 79.4571 120.745 81.0651 120.711C82.7481 120.676 84.0608 120.277 85.0034 119.516C85.9458 118.746 86.4034 117.711 86.3762 116.411C86.3616 115.712 86.2035 115.127 85.9019 114.659C85.6002 114.181 85.0999 113.775 84.401 113.44C83.7104 113.096 82.7662 112.786 81.5685 112.511C80.5048 112.267 79.6917 112.046 79.1291 111.85C78.5749 111.653 78.1911 111.44 77.978 111.211C77.7731 110.982 77.6673 110.705 77.6605 110.38C77.6483 109.797 77.9094 109.329 78.4438 108.976C78.9865 108.623 79.6956 108.454 80.5711 108.469C81.4964 108.474 82.2551 108.679 82.847 109.084C83.4472 109.488 83.8091 110.051 83.9326 110.774L86.1985 110.314C86.0903 109.524 85.78 108.839 85.2677 108.258C84.7636 107.668 84.104 107.22 83.2891 106.912C82.4741 106.604 81.5543 106.46 80.5295 106.482C79.4964 106.503 78.5916 106.685 77.8153 107.026C77.0473 107.367 76.4529 107.842 76.0322 108.451C75.6114 109.052 75.4093 109.748 75.4258 110.54C75.4393 111.181 75.5965 111.724 75.8975 112.167C76.1986 112.611 76.6943 112.997 77.3846 113.324C78.0749 113.651 79.0191 113.961 80.2171 114.252C81.323 114.521 82.1489 114.754 82.6948 114.951C83.2491 115.148 83.6162 115.365 83.7962 115.603C83.9761 115.832 84.07 116.139 84.078 116.522C84.0918 117.18 83.8403 117.707 83.3234 118.101C82.8066 118.495 82.0857 118.702 81.1609 118.721C80.1862 118.742 79.3652 118.546 78.6981 118.135C78.0309 117.716 77.5979 117.141 77.3993 116.412L75.1323 116.822C75.3922 118.084 76.0419 119.058 77.0815 119.744ZM93.8439 120.431C92.9774 120.449 92.2288 120.327 91.5982 120.065C90.9759 119.803 90.4559 119.448 90.038 118.998C89.6202 118.548 89.2888 118.047 89.0438 117.493C88.7988 116.94 88.6202 116.373 88.508 115.792C88.4042 115.21 88.3469 114.666 88.3363 114.157L88.18 106.697L90.4295 106.649L90.5711 113.41C90.5844 114.044 90.6555 114.655 90.7846 115.244C90.9136 115.833 91.1206 116.362 91.4054 116.831C91.6987 117.3 92.0814 117.667 92.5538 117.932C93.0344 118.197 93.6288 118.323 94.337 118.308C94.8952 118.296 95.4014 118.19 95.8557 117.988C96.3099 117.787 96.6955 117.496 97.0126 117.114C97.3295 116.724 97.5693 116.235 97.7321 115.648C97.8943 115.063 97.9676 114.385 97.952 113.613L97.9518 113.606L97.8029 106.495L100.04 106.448L100.323 119.945L98.3355 119.987L98.2989 118.239C97.9065 118.798 97.4202 119.258 96.84 119.618C96.0007 120.136 95.0019 120.407 93.8439 120.431ZM106.309 119.257C107.189 119.864 108.262 120.154 109.528 120.127C110.786 120.101 111.859 119.766 112.745 119.122C113.64 118.47 114.318 117.602 114.779 116.517C115.24 115.432 115.456 114.214 115.427 112.865C115.399 111.515 115.132 110.308 114.626 109.243C114.121 108.179 113.407 107.348 112.486 106.75C111.573 106.144 110.492 105.854 109.242 105.88C107.976 105.907 106.912 106.238 106.05 106.872C105.673 107.152 105.339 107.476 105.045 107.843L105.014 106.344L103.027 106.386L103.435 125.881L105.672 125.834L105.52 118.59C105.762 118.836 106.025 119.058 106.309 119.257ZM105.155 113.085C105.176 114.066 105.332 114.94 105.622 115.708C105.922 116.469 106.368 117.064 106.96 117.493C107.552 117.914 108.303 118.115 109.211 118.096C110.102 118.077 110.835 117.837 111.409 117.375C111.982 116.913 112.407 116.295 112.683 115.523C112.958 114.742 113.086 113.872 113.065 112.914C113.046 111.964 112.882 111.109 112.574 110.349C112.275 109.588 111.82 108.989 111.211 108.552C110.61 108.115 109.852 107.905 108.935 107.925C108.06 107.943 107.34 108.175 106.774 108.62C106.208 109.057 105.792 109.662 105.524 110.434C105.257 111.197 105.134 112.077 105.155 113.075L105.155 113.08L105.155 113.085ZM124.015 119.824C122.749 119.85 121.676 119.56 120.796 118.954C120.512 118.755 120.249 118.533 120.007 118.287L120.159 125.531L117.922 125.578L117.514 106.082L119.501 106.04L119.532 107.54C119.826 107.172 120.161 106.849 120.537 106.569C121.399 105.934 122.463 105.603 123.729 105.577C124.979 105.551 126.06 105.841 126.973 106.447C127.894 107.044 128.608 107.875 129.113 108.94C129.619 110.004 129.886 111.212 129.915 112.561C129.943 113.911 129.727 115.128 129.266 116.213C128.805 117.298 128.127 118.167 127.232 118.819C126.346 119.463 125.273 119.798 124.015 119.824ZM120.011 110.131C119.744 110.895 119.621 111.777 119.642 112.777C119.662 113.76 119.818 114.636 120.109 115.405C120.409 116.165 120.855 116.76 121.447 117.19C122.039 117.611 122.79 117.812 123.698 117.793C124.589 117.774 125.322 117.534 125.896 117.071C126.469 116.609 126.894 115.992 127.17 115.219C127.445 114.438 127.573 113.569 127.553 112.611C127.533 111.661 127.369 110.806 127.061 110.046C126.762 109.285 126.308 108.686 125.698 108.249C125.097 107.811 124.339 107.602 123.422 107.621C122.547 107.64 121.827 107.871 121.261 108.317C120.695 108.754 120.279 109.358 120.011 110.131ZM134.559 118.69C135.547 119.278 136.711 119.558 138.052 119.53C139.394 119.502 140.546 119.178 141.508 118.557C142.47 117.929 143.202 117.076 143.705 115.998C144.207 114.913 144.444 113.666 144.414 112.258C144.385 110.866 144.097 109.643 143.55 108.587C143.01 107.523 142.247 106.702 141.26 106.122C140.272 105.535 139.104 105.255 137.754 105.283C136.438 105.311 135.298 105.635 134.336 106.255C133.374 106.867 132.637 107.712 132.126 108.789C131.615 109.867 131.375 111.114 131.404 112.53C131.434 113.921 131.722 115.149 132.269 116.213C132.817 117.277 133.58 118.102 134.559 118.69ZM141.103 115.953C140.44 116.9 139.408 117.389 138.008 117.418C136.65 117.446 135.612 117.01 134.893 116.108C134.174 115.206 133.798 113.997 133.766 112.481C133.746 111.498 133.878 110.628 134.162 109.872C134.446 109.116 134.888 108.519 135.487 108.081C136.086 107.643 136.857 107.415 137.798 107.395C139.181 107.366 140.228 107.798 140.939 108.692C141.649 109.577 142.02 110.782 142.052 112.307C142.083 113.79 141.767 115.005 141.103 115.953ZM146.807 118.971L146.525 105.474L148.512 105.433L148.557 107.573C148.641 107.414 148.734 107.261 148.834 107.114C149.085 106.759 149.367 106.465 149.679 106.234C150.023 105.943 150.414 105.718 150.852 105.559C151.291 105.4 151.739 105.303 152.197 105.268C152.654 105.225 153.084 105.245 153.486 105.329L153.529 107.416C153.06 107.3 152.547 107.278 151.99 107.348C151.433 107.418 150.921 107.633 150.453 107.993C150.026 108.31 149.697 108.692 149.464 109.139C149.24 109.585 149.088 110.068 149.007 110.586C148.926 111.096 148.891 111.618 148.902 112.151L149.044 118.925L146.807 118.971Z" fill="url(#paint79_linear_171_42233)"/>
<defs>
<linearGradient id="paint0_linear_171_42233" x1="569.608" y1="-123.284" x2="279.295" y2="-367.599" gradientUnits="userSpaceOnUse">
<stop stop-color="#D57384"/>
<stop offset="0.0001" stop-color="#9D3E4D"/>
<stop offset="1" stop-color="#4881D9"/>
</linearGradient>
<linearGradient id="paint1_linear_171_42233" x1="569.608" y1="-123.284" x2="279.295" y2="-367.599" gradientUnits="userSpaceOnUse">
<stop stop-color="#D57384"/>
<stop offset="0.0001" stop-color="#9D3E4D"/>
<stop offset="1" stop-color="#4881D9"/>
</linearGradient>
<linearGradient id="paint2_linear_171_42233" x1="569.608" y1="-123.284" x2="279.295" y2="-367.599" gradientUnits="userSpaceOnUse">
<stop stop-color="#D57384"/>
<stop offset="0.0001" stop-color="#9D3E4D"/>
<stop offset="1" stop-color="#4881D9"/>
</linearGradient>
<linearGradient id="paint3_linear_171_42233" x1="569.608" y1="-123.284" x2="279.295" y2="-367.599" gradientUnits="userSpaceOnUse">
<stop stop-color="#D57384"/>
<stop offset="0.0001" stop-color="#9D3E4D"/>
<stop offset="1" stop-color="#4881D9"/>
</linearGradient>
<linearGradient id="paint4_linear_171_42233" x1="569.608" y1="-123.284" x2="279.295" y2="-367.599" gradientUnits="userSpaceOnUse">
<stop stop-color="#D57384"/>
<stop offset="0.0001" stop-color="#9D3E4D"/>
<stop offset="1" stop-color="#4881D9"/>
</linearGradient>
<linearGradient id="paint5_linear_171_42233" x1="569.608" y1="-123.284" x2="279.295" y2="-367.599" gradientUnits="userSpaceOnUse">
<stop stop-color="#D57384"/>
<stop offset="0.0001" stop-color="#9D3E4D"/>
<stop offset="1" stop-color="#4881D9"/>
</linearGradient>
<linearGradient id="paint6_linear_171_42233" x1="569.608" y1="-123.284" x2="279.295" y2="-367.599" gradientUnits="userSpaceOnUse">
<stop stop-color="#D57384"/>
<stop offset="0.0001" stop-color="#9D3E4D"/>
<stop offset="1" stop-color="#4881D9"/>
</linearGradient>
<linearGradient id="paint7_linear_171_42233" x1="569.608" y1="-123.284" x2="279.295" y2="-367.599" gradientUnits="userSpaceOnUse">
<stop stop-color="#D57384"/>
<stop offset="0.0001" stop-color="#9D3E4D"/>
<stop offset="1" stop-color="#4881D9"/>
</linearGradient>
<linearGradient id="paint8_linear_171_42233" x1="569.608" y1="-123.284" x2="279.295" y2="-367.599" gradientUnits="userSpaceOnUse">
<stop stop-color="#D57384"/>
<stop offset="0.0001" stop-color="#9D3E4D"/>
<stop offset="1" stop-color="#4881D9"/>
</linearGradient>
<linearGradient id="paint9_linear_171_42233" x1="569.608" y1="-123.284" x2="279.295" y2="-367.599" gradientUnits="userSpaceOnUse">
<stop stop-color="#D57384"/>
<stop offset="0.0001" stop-color="#9D3E4D"/>
<stop offset="1" stop-color="#4881D9"/>
</linearGradient>
<linearGradient id="paint10_linear_171_42233" x1="569.608" y1="-123.284" x2="279.295" y2="-367.599" gradientUnits="userSpaceOnUse">
<stop stop-color="#D57384"/>
<stop offset="0.0001" stop-color="#9D3E4D"/>
<stop offset="1" stop-color="#4881D9"/>
</linearGradient>
<linearGradient id="paint11_linear_171_42233" x1="569.608" y1="-123.284" x2="279.295" y2="-367.599" gradientUnits="userSpaceOnUse">
<stop stop-color="#D57384"/>
<stop offset="0.0001" stop-color="#9D3E4D"/>
<stop offset="1" stop-color="#4881D9"/>
</linearGradient>
<linearGradient id="paint12_linear_171_42233" x1="569.608" y1="-123.284" x2="279.295" y2="-367.599" gradientUnits="userSpaceOnUse">
<stop stop-color="#D57384"/>
<stop offset="0.0001" stop-color="#9D3E4D"/>
<stop offset="1" stop-color="#4881D9"/>
</linearGradient>
<linearGradient id="paint13_linear_171_42233" x1="569.608" y1="-123.284" x2="279.295" y2="-367.599" gradientUnits="userSpaceOnUse">
<stop stop-color="#D57384"/>
<stop offset="0.0001" stop-color="#9D3E4D"/>
<stop offset="1" stop-color="#4881D9"/>
</linearGradient>
<linearGradient id="paint14_linear_171_42233" x1="569.608" y1="-123.284" x2="279.295" y2="-367.599" gradientUnits="userSpaceOnUse">
<stop stop-color="#D57384"/>
<stop offset="0.0001" stop-color="#9D3E4D"/>
<stop offset="1" stop-color="#4881D9"/>
</linearGradient>
<linearGradient id="paint15_linear_171_42233" x1="569.608" y1="-123.284" x2="279.295" y2="-367.599" gradientUnits="userSpaceOnUse">
<stop stop-color="#D57384"/>
<stop offset="0.0001" stop-color="#9D3E4D"/>
<stop offset="1" stop-color="#4881D9"/>
</linearGradient>
<linearGradient id="paint16_linear_171_42233" x1="569.608" y1="-123.284" x2="279.295" y2="-367.599" gradientUnits="userSpaceOnUse">
<stop stop-color="#D57384"/>
<stop offset="0.0001" stop-color="#9D3E4D"/>
<stop offset="1" stop-color="#4881D9"/>
</linearGradient>
<linearGradient id="paint17_linear_171_42233" x1="569.608" y1="-123.284" x2="279.295" y2="-367.599" gradientUnits="userSpaceOnUse">
<stop stop-color="#D57384"/>
<stop offset="0.0001" stop-color="#9D3E4D"/>
<stop offset="1" stop-color="#4881D9"/>
</linearGradient>
<linearGradient id="paint18_linear_171_42233" x1="569.608" y1="-123.284" x2="279.295" y2="-367.599" gradientUnits="userSpaceOnUse">
<stop stop-color="#D57384"/>
<stop offset="0.0001" stop-color="#9D3E4D"/>
<stop offset="1" stop-color="#4881D9"/>
</linearGradient>
<linearGradient id="paint19_linear_171_42233" x1="569.608" y1="-123.284" x2="279.295" y2="-367.599" gradientUnits="userSpaceOnUse">
<stop stop-color="#D57384"/>
<stop offset="0.0001" stop-color="#9D3E4D"/>
<stop offset="1" stop-color="#4881D9"/>
</linearGradient>
<linearGradient id="paint20_linear_171_42233" x1="569.608" y1="-123.284" x2="279.295" y2="-367.599" gradientUnits="userSpaceOnUse">
<stop stop-color="#D57384"/>
<stop offset="0.0001" stop-color="#9D3E4D"/>
<stop offset="1" stop-color="#4881D9"/>
</linearGradient>
<linearGradient id="paint21_linear_171_42233" x1="569.608" y1="-123.284" x2="279.295" y2="-367.599" gradientUnits="userSpaceOnUse">
<stop stop-color="#D57384"/>
<stop offset="0.0001" stop-color="#9D3E4D"/>
<stop offset="1" stop-color="#4881D9"/>
</linearGradient>
<linearGradient id="paint22_linear_171_42233" x1="569.608" y1="-123.284" x2="279.295" y2="-367.599" gradientUnits="userSpaceOnUse">
<stop stop-color="#D57384"/>
<stop offset="0.0001" stop-color="#9D3E4D"/>
<stop offset="1" stop-color="#4881D9"/>
</linearGradient>
<linearGradient id="paint23_linear_171_42233" x1="569.608" y1="-123.284" x2="279.295" y2="-367.599" gradientUnits="userSpaceOnUse">
<stop stop-color="#D57384"/>
<stop offset="0.0001" stop-color="#9D3E4D"/>
<stop offset="1" stop-color="#4881D9"/>
</linearGradient>
<linearGradient id="paint24_linear_171_42233" x1="569.608" y1="-123.284" x2="279.295" y2="-367.599" gradientUnits="userSpaceOnUse">
<stop stop-color="#D57384"/>
<stop offset="0.0001" stop-color="#9D3E4D"/>
<stop offset="1" stop-color="#4881D9"/>
</linearGradient>
<linearGradient id="paint25_linear_171_42233" x1="569.608" y1="-123.284" x2="279.295" y2="-367.599" gradientUnits="userSpaceOnUse">
<stop stop-color="#D57384"/>
<stop offset="0.0001" stop-color="#9D3E4D"/>
<stop offset="1" stop-color="#4881D9"/>
</linearGradient>
<linearGradient id="paint26_linear_171_42233" x1="569.608" y1="-123.284" x2="279.295" y2="-367.599" gradientUnits="userSpaceOnUse">
<stop stop-color="#D57384"/>
<stop offset="0.0001" stop-color="#9D3E4D"/>
<stop offset="1" stop-color="#4881D9"/>
</linearGradient>
<linearGradient id="paint27_linear_171_42233" x1="569.608" y1="-123.284" x2="279.295" y2="-367.599" gradientUnits="userSpaceOnUse">
<stop stop-color="#D57384"/>
<stop offset="0.0001" stop-color="#9D3E4D"/>
<stop offset="1" stop-color="#4881D9"/>
</linearGradient>
<linearGradient id="paint28_linear_171_42233" x1="569.608" y1="-123.284" x2="279.295" y2="-367.599" gradientUnits="userSpaceOnUse">
<stop stop-color="#D57384"/>
<stop offset="0.0001" stop-color="#9D3E4D"/>
<stop offset="1" stop-color="#4881D9"/>
</linearGradient>
<linearGradient id="paint29_linear_171_42233" x1="569.608" y1="-123.284" x2="279.295" y2="-367.599" gradientUnits="userSpaceOnUse">
<stop stop-color="#D57384"/>
<stop offset="0.0001" stop-color="#9D3E4D"/>
<stop offset="1" stop-color="#4881D9"/>
</linearGradient>
<linearGradient id="paint30_linear_171_42233" x1="569.608" y1="-123.284" x2="279.295" y2="-367.599" gradientUnits="userSpaceOnUse">
<stop stop-color="#D57384"/>
<stop offset="0.0001" stop-color="#9D3E4D"/>
<stop offset="1" stop-color="#4881D9"/>
</linearGradient>
<linearGradient id="paint31_linear_171_42233" x1="569.608" y1="-123.284" x2="279.295" y2="-367.599" gradientUnits="userSpaceOnUse">
<stop stop-color="#D57384"/>
<stop offset="0.0001" stop-color="#9D3E4D"/>
<stop offset="1" stop-color="#4881D9"/>
</linearGradient>
<linearGradient id="paint32_linear_171_42233" x1="569.608" y1="-123.284" x2="279.295" y2="-367.599" gradientUnits="userSpaceOnUse">
<stop stop-color="#D57384"/>
<stop offset="0.0001" stop-color="#9D3E4D"/>
<stop offset="1" stop-color="#4881D9"/>
</linearGradient>
<linearGradient id="paint33_linear_171_42233" x1="569.608" y1="-123.284" x2="279.295" y2="-367.599" gradientUnits="userSpaceOnUse">
<stop stop-color="#D57384"/>
<stop offset="0.0001" stop-color="#9D3E4D"/>
<stop offset="1" stop-color="#4881D9"/>
</linearGradient>
<linearGradient id="paint34_linear_171_42233" x1="569.608" y1="-123.284" x2="279.295" y2="-367.599" gradientUnits="userSpaceOnUse">
<stop stop-color="#D57384"/>
<stop offset="0.0001" stop-color="#9D3E4D"/>
<stop offset="1" stop-color="#4881D9"/>
</linearGradient>
<linearGradient id="paint35_linear_171_42233" x1="569.608" y1="-123.284" x2="279.295" y2="-367.599" gradientUnits="userSpaceOnUse">
<stop stop-color="#D57384"/>
<stop offset="0.0001" stop-color="#9D3E4D"/>
<stop offset="1" stop-color="#4881D9"/>
</linearGradient>
<linearGradient id="paint36_linear_171_42233" x1="569.608" y1="-123.284" x2="279.295" y2="-367.599" gradientUnits="userSpaceOnUse">
<stop stop-color="#D57384"/>
<stop offset="0.0001" stop-color="#9D3E4D"/>
<stop offset="1" stop-color="#4881D9"/>
</linearGradient>
<linearGradient id="paint37_linear_171_42233" x1="569.608" y1="-123.284" x2="279.295" y2="-367.599" gradientUnits="userSpaceOnUse">
<stop stop-color="#D57384"/>
<stop offset="0.0001" stop-color="#9D3E4D"/>
<stop offset="1" stop-color="#4881D9"/>
</linearGradient>
<linearGradient id="paint38_linear_171_42233" x1="569.608" y1="-123.284" x2="279.295" y2="-367.599" gradientUnits="userSpaceOnUse">
<stop stop-color="#D57384"/>
<stop offset="0.0001" stop-color="#9D3E4D"/>
<stop offset="1" stop-color="#4881D9"/>
</linearGradient>
<linearGradient id="paint39_linear_171_42233" x1="569.608" y1="-123.284" x2="279.295" y2="-367.599" gradientUnits="userSpaceOnUse">
<stop stop-color="#D57384"/>
<stop offset="0.0001" stop-color="#9D3E4D"/>
<stop offset="1" stop-color="#4881D9"/>
</linearGradient>
<linearGradient id="paint40_linear_171_42233" x1="569.608" y1="-123.284" x2="279.295" y2="-367.599" gradientUnits="userSpaceOnUse">
<stop stop-color="#D57384"/>
<stop offset="0.0001" stop-color="#9D3E4D"/>
<stop offset="1" stop-color="#4881D9"/>
</linearGradient>
<linearGradient id="paint41_linear_171_42233" x1="569.608" y1="-123.284" x2="279.295" y2="-367.599" gradientUnits="userSpaceOnUse">
<stop stop-color="#D57384"/>
<stop offset="0.0001" stop-color="#9D3E4D"/>
<stop offset="1" stop-color="#4881D9"/>
</linearGradient>
<linearGradient id="paint42_linear_171_42233" x1="569.608" y1="-123.284" x2="279.295" y2="-367.599" gradientUnits="userSpaceOnUse">
<stop stop-color="#D57384"/>
<stop offset="0.0001" stop-color="#9D3E4D"/>
<stop offset="1" stop-color="#4881D9"/>
</linearGradient>
<linearGradient id="paint43_linear_171_42233" x1="569.608" y1="-123.284" x2="279.295" y2="-367.599" gradientUnits="userSpaceOnUse">
<stop stop-color="#D57384"/>
<stop offset="0.0001" stop-color="#9D3E4D"/>
<stop offset="1" stop-color="#4881D9"/>
</linearGradient>
<linearGradient id="paint44_linear_171_42233" x1="569.608" y1="-123.284" x2="279.295" y2="-367.599" gradientUnits="userSpaceOnUse">
<stop stop-color="#D57384"/>
<stop offset="0.0001" stop-color="#9D3E4D"/>
<stop offset="1" stop-color="#4881D9"/>
</linearGradient>
<linearGradient id="paint45_linear_171_42233" x1="569.608" y1="-123.284" x2="279.295" y2="-367.599" gradientUnits="userSpaceOnUse">
<stop stop-color="#D57384"/>
<stop offset="0.0001" stop-color="#9D3E4D"/>
<stop offset="1" stop-color="#4881D9"/>
</linearGradient>
<linearGradient id="paint46_linear_171_42233" x1="569.608" y1="-123.284" x2="279.295" y2="-367.599" gradientUnits="userSpaceOnUse">
<stop stop-color="#D57384"/>
<stop offset="0.0001" stop-color="#9D3E4D"/>
<stop offset="1" stop-color="#4881D9"/>
</linearGradient>
<linearGradient id="paint47_linear_171_42233" x1="569.608" y1="-123.284" x2="279.295" y2="-367.599" gradientUnits="userSpaceOnUse">
<stop stop-color="#D57384"/>
<stop offset="0.0001" stop-color="#9D3E4D"/>
<stop offset="1" stop-color="#4881D9"/>
</linearGradient>
<linearGradient id="paint48_linear_171_42233" x1="569.608" y1="-123.284" x2="279.295" y2="-367.599" gradientUnits="userSpaceOnUse">
<stop stop-color="#D57384"/>
<stop offset="0.0001" stop-color="#9D3E4D"/>
<stop offset="1" stop-color="#4881D9"/>
</linearGradient>
<linearGradient id="paint49_linear_171_42233" x1="569.608" y1="-123.284" x2="279.295" y2="-367.599" gradientUnits="userSpaceOnUse">
<stop stop-color="#D57384"/>
<stop offset="0.0001" stop-color="#9D3E4D"/>
<stop offset="1" stop-color="#4881D9"/>
</linearGradient>
<linearGradient id="paint50_linear_171_42233" x1="569.608" y1="-123.284" x2="279.295" y2="-367.599" gradientUnits="userSpaceOnUse">
<stop stop-color="#D57384"/>
<stop offset="0.0001" stop-color="#9D3E4D"/>
<stop offset="1" stop-color="#4881D9"/>
</linearGradient>
<linearGradient id="paint51_linear_171_42233" x1="569.608" y1="-123.284" x2="279.295" y2="-367.599" gradientUnits="userSpaceOnUse">
<stop stop-color="#D57384"/>
<stop offset="0.0001" stop-color="#9D3E4D"/>
<stop offset="1" stop-color="#4881D9"/>
</linearGradient>
<linearGradient id="paint52_linear_171_42233" x1="569.608" y1="-123.284" x2="279.295" y2="-367.599" gradientUnits="userSpaceOnUse">
<stop stop-color="#D57384"/>
<stop offset="0.0001" stop-color="#9D3E4D"/>
<stop offset="1" stop-color="#4881D9"/>
</linearGradient>
<linearGradient id="paint53_linear_171_42233" x1="569.608" y1="-123.284" x2="279.295" y2="-367.599" gradientUnits="userSpaceOnUse">
<stop stop-color="#D57384"/>
<stop offset="0.0001" stop-color="#9D3E4D"/>
<stop offset="1" stop-color="#4881D9"/>
</linearGradient>
<linearGradient id="paint54_linear_171_42233" x1="569.608" y1="-123.284" x2="279.295" y2="-367.599" gradientUnits="userSpaceOnUse">
<stop stop-color="#D57384"/>
<stop offset="0.0001" stop-color="#9D3E4D"/>
<stop offset="1" stop-color="#4881D9"/>
</linearGradient>
<linearGradient id="paint55_linear_171_42233" x1="569.608" y1="-123.284" x2="279.295" y2="-367.599" gradientUnits="userSpaceOnUse">
<stop stop-color="#D57384"/>
<stop offset="0.0001" stop-color="#9D3E4D"/>
<stop offset="1" stop-color="#4881D9"/>
</linearGradient>
<linearGradient id="paint56_linear_171_42233" x1="569.608" y1="-123.284" x2="279.295" y2="-367.599" gradientUnits="userSpaceOnUse">
<stop stop-color="#D57384"/>
<stop offset="0.0001" stop-color="#9D3E4D"/>
<stop offset="1" stop-color="#4881D9"/>
</linearGradient>
<linearGradient id="paint57_linear_171_42233" x1="569.608" y1="-123.284" x2="279.295" y2="-367.599" gradientUnits="userSpaceOnUse">
<stop stop-color="#D57384"/>
<stop offset="0.0001" stop-color="#9D3E4D"/>
<stop offset="1" stop-color="#4881D9"/>
</linearGradient>
<linearGradient id="paint58_linear_171_42233" x1="569.608" y1="-123.284" x2="279.295" y2="-367.599" gradientUnits="userSpaceOnUse">
<stop stop-color="#D57384"/>
<stop offset="0.0001" stop-color="#9D3E4D"/>
<stop offset="1" stop-color="#4881D9"/>
</linearGradient>
<linearGradient id="paint59_linear_171_42233" x1="569.608" y1="-123.284" x2="279.295" y2="-367.599" gradientUnits="userSpaceOnUse">
<stop stop-color="#D57384"/>
<stop offset="0.0001" stop-color="#9D3E4D"/>
<stop offset="1" stop-color="#4881D9"/>
</linearGradient>
<linearGradient id="paint60_linear_171_42233" x1="569.608" y1="-123.284" x2="279.295" y2="-367.599" gradientUnits="userSpaceOnUse">
<stop stop-color="#D57384"/>
<stop offset="0.0001" stop-color="#9D3E4D"/>
<stop offset="1" stop-color="#4881D9"/>
</linearGradient>
<linearGradient id="paint61_linear_171_42233" x1="569.608" y1="-123.284" x2="279.295" y2="-367.599" gradientUnits="userSpaceOnUse">
<stop stop-color="#D57384"/>
<stop offset="0.0001" stop-color="#9D3E4D"/>
<stop offset="1" stop-color="#4881D9"/>
</linearGradient>
<linearGradient id="paint62_linear_171_42233" x1="569.608" y1="-123.284" x2="279.295" y2="-367.599" gradientUnits="userSpaceOnUse">
<stop stop-color="#D57384"/>
<stop offset="0.0001" stop-color="#9D3E4D"/>
<stop offset="1" stop-color="#4881D9"/>
</linearGradient>
<linearGradient id="paint63_linear_171_42233" x1="569.608" y1="-123.284" x2="279.295" y2="-367.599" gradientUnits="userSpaceOnUse">
<stop stop-color="#D57384"/>
<stop offset="0.0001" stop-color="#9D3E4D"/>
<stop offset="1" stop-color="#4881D9"/>
</linearGradient>
<linearGradient id="paint64_linear_171_42233" x1="569.608" y1="-123.284" x2="279.295" y2="-367.599" gradientUnits="userSpaceOnUse">
<stop stop-color="#D57384"/>
<stop offset="0.0001" stop-color="#9D3E4D"/>
<stop offset="1" stop-color="#4881D9"/>
</linearGradient>
<linearGradient id="paint65_linear_171_42233" x1="569.608" y1="-123.284" x2="279.295" y2="-367.599" gradientUnits="userSpaceOnUse">
<stop stop-color="#D57384"/>
<stop offset="0.0001" stop-color="#9D3E4D"/>
<stop offset="1" stop-color="#4881D9"/>
</linearGradient>
<linearGradient id="paint66_linear_171_42233" x1="569.608" y1="-123.284" x2="279.295" y2="-367.599" gradientUnits="userSpaceOnUse">
<stop stop-color="#D57384"/>
<stop offset="0.0001" stop-color="#9D3E4D"/>
<stop offset="1" stop-color="#4881D9"/>
</linearGradient>
<linearGradient id="paint67_linear_171_42233" x1="569.608" y1="-123.284" x2="279.295" y2="-367.599" gradientUnits="userSpaceOnUse">
<stop stop-color="#D57384"/>
<stop offset="0.0001" stop-color="#9D3E4D"/>
<stop offset="1" stop-color="#4881D9"/>
</linearGradient>
<linearGradient id="paint68_linear_171_42233" x1="569.608" y1="-123.284" x2="279.295" y2="-367.599" gradientUnits="userSpaceOnUse">
<stop stop-color="#D57384"/>
<stop offset="0.0001" stop-color="#9D3E4D"/>
<stop offset="1" stop-color="#4881D9"/>
</linearGradient>
<linearGradient id="paint69_linear_171_42233" x1="569.608" y1="-123.284" x2="279.295" y2="-367.599" gradientUnits="userSpaceOnUse">
<stop stop-color="#D57384"/>
<stop offset="0.0001" stop-color="#9D3E4D"/>
<stop offset="1" stop-color="#4881D9"/>
</linearGradient>
<linearGradient id="paint70_linear_171_42233" x1="569.608" y1="-123.284" x2="279.295" y2="-367.599" gradientUnits="userSpaceOnUse">
<stop stop-color="#D57384"/>
<stop offset="0.0001" stop-color="#9D3E4D"/>
<stop offset="1" stop-color="#4881D9"/>
</linearGradient>
<linearGradient id="paint71_linear_171_42233" x1="569.608" y1="-123.284" x2="279.295" y2="-367.599" gradientUnits="userSpaceOnUse">
<stop stop-color="#D57384"/>
<stop offset="0.0001" stop-color="#9D3E4D"/>
<stop offset="1" stop-color="#4881D9"/>
</linearGradient>
<linearGradient id="paint72_linear_171_42233" x1="569.608" y1="-123.284" x2="279.295" y2="-367.599" gradientUnits="userSpaceOnUse">
<stop stop-color="#D57384"/>
<stop offset="0.0001" stop-color="#9D3E4D"/>
<stop offset="1" stop-color="#4881D9"/>
</linearGradient>
<linearGradient id="paint73_linear_171_42233" x1="569.608" y1="-123.284" x2="279.295" y2="-367.599" gradientUnits="userSpaceOnUse">
<stop stop-color="#D57384"/>
<stop offset="0.0001" stop-color="#9D3E4D"/>
<stop offset="1" stop-color="#4881D9"/>
</linearGradient>
<linearGradient id="paint74_linear_171_42233" x1="569.608" y1="-123.284" x2="279.295" y2="-367.599" gradientUnits="userSpaceOnUse">
<stop stop-color="#D57384"/>
<stop offset="0.0001" stop-color="#9D3E4D"/>
<stop offset="1" stop-color="#4881D9"/>
</linearGradient>
<linearGradient id="paint75_linear_171_42233" x1="569.608" y1="-123.284" x2="279.295" y2="-367.599" gradientUnits="userSpaceOnUse">
<stop stop-color="#D57384"/>
<stop offset="0.0001" stop-color="#9D3E4D"/>
<stop offset="1" stop-color="#4881D9"/>
</linearGradient>
<linearGradient id="paint76_linear_171_42233" x1="569.608" y1="-123.284" x2="279.295" y2="-367.599" gradientUnits="userSpaceOnUse">
<stop stop-color="#D57384"/>
<stop offset="0.0001" stop-color="#9D3E4D"/>
<stop offset="1" stop-color="#4881D9"/>
</linearGradient>
<linearGradient id="paint77_linear_171_42233" x1="569.608" y1="-123.284" x2="279.295" y2="-367.599" gradientUnits="userSpaceOnUse">
<stop stop-color="#D57384"/>
<stop offset="0.0001" stop-color="#9D3E4D"/>
<stop offset="1" stop-color="#4881D9"/>
</linearGradient>
<linearGradient id="paint78_linear_171_42233" x1="569.608" y1="-123.284" x2="279.295" y2="-367.599" gradientUnits="userSpaceOnUse">
<stop stop-color="#D57384"/>
<stop offset="0.0001" stop-color="#9D3E4D"/>
<stop offset="1" stop-color="#4881D9"/>
</linearGradient>
<linearGradient id="paint79_linear_171_42233" x1="261.304" y1="67.9027" x2="215.013" y2="-24.2471" gradientUnits="userSpaceOnUse">
<stop stop-color="#D57384"/>
<stop offset="0.921875" stop-color="#4881D9"/>
</linearGradient>
</defs>
</svg>
